Metamorphous.glyphspackage
{
glyphname = exclam;
layers = (
{
layerId = m001;
shapes = (
{
closed = 1;
nodes = (
(315,409,l),
(315,409,o),
(318,1187,o),
(444,1527,c),
(266,1706,l),
(83,1527,l),
(216,1187,o),
(219,409,o),
(219,409,c,{
name = hr00;
})
);
},
{
closed = 1;
nodes = (
(271,-58,l),
(449,123,l),
(271,302,l),
(89,123,l)
);
}
);
width = 512;
}
);
unicode = 33;
}
{
glyphname = quotedbl;
layers = (
{
guides = (
{
pos = (0,1186);
},
{
angle = 90;
pos = (162,0);
},
{
angle = 90;
pos = (455,0);
},
{
angle = 90;
pos = (309,0);
},
{
angle = 90;
pos = (-1240,0);
}
);
layerId = m001;
shapes = (
{
closed = 1;
nodes = (
(813,895,l),
(813,895,o),
(815,1332,o),
(942,1527,c),
(763,1706,l),
(580,1527,l),
(714,1332,o),
(716,895,o),
(716,895,c,{
name = hr00;
})
);
},
{
closed = 1;
nodes = (
(328,895,l),
(328,895,o),
(330,1332,o),
(457,1527,c),
(278,1706,l),
(95,1527,l),
(229,1332,o),
(231,895,o),
(231,895,c)
);
}
);
userData = {
com.typemytype.robofont.guides = (
{
angle = 0;
isGlobal = 0;
magnetic = 5;
x = 0;
y = 1186;
},
{
angle = 90;
isGlobal = 0;
magnetic = 5;
x = 162;
y = 0;
},
{
angle = 90;
isGlobal = 0;
magnetic = 5;
x = 455;
y = 0;
},
{
angle = 90;
isGlobal = 0;
magnetic = 5;
x = 309;
y = 0;
},
{
angle = 90;
isGlobal = 0;
magnetic = 5;
x = -1240;
y = 0;
}
);
};
width = 1025;
}
);
unicode = 34;
}
{
glyphname = numbersign;
layers = (
{
layerId = m001;
shapes = (
{
closed = 1;
nodes = (
(539,-13,l),
(573,393,l),
(915,393,l),
(881,1,l),
(1050,-13,l),
(1084,393,l),
(1306,393,l),
(1347,560,l),
(1098,560,l),
(1131,940,l),
(1340,940,l),
(1381,1107,l),
(1145,1107,l),
(1176,1463,l),
(1008,1477,l),
(975,1107,l),
(634,1107,l),
(665,1463,l),
(497,1477,l),
(464,1107,l),
(221,1107,l,{
name = hr02;
}),
(182,940,l),
(450,940,l),
(418,560,l,{
name = hr03;
}),
(198,560,l,{
name = hr04;
}),
(158,393,l),
(404,393,l),
(371,1,l,{
name = hr01;
})
);
},
{
closed = 1;
nodes = (
(620,940,l),
(961,940,l),
(929,560,l),
(587,560,l)
);
}
);
width = 1539;
}
);
unicode = 35;
}
{
glyphname = dollar;
layers = (
{
layerId = m001;
shapes = (
{
closed = 1;
nodes = (
(189,103,o),
(439,-13,o),
(711,-22,c),
(711,-232,l),
(816,-232,l),
(816,-21,l),
(1097,-2,o),
(1336,126,o),
(1336,387,cs),
(1336,591,o),
(1116,718,o),
(862,842,c),
(816,866,l,{
name = hr02;
}),
(816,1441,l),
(957,1430,o),
(1049,1372,o),
(1049,1271,cs),
(1049,1206,o),
(1021,1172,o),
(993,1141,c),
(1067,1092,l),
(1203,1133,o),
(1262,1220,o),
(1262,1287,cs),
(1262,1436,o),
(1048,1544,o),
(816,1551,c),
(816,1770,l),
(711,1770,l),
(711,1548,l),
(470,1524,o),
(248,1392,o),
(248,1173,cs),
(248,991,o),
(416,863,o),
(711,715,c,{
name = hr03;
}),
(711,83,l),
(518,99,o),
(426,218,o),
(426,346,cs),
(426,434,o),
(450,460,o),
(484,499,c),
(430,563,l),
(348,546,o),
(189,466,o),
(189,314,cs,{
name = hr01;
})
);
},
{
closed = 1;
nodes = (
(551,1015,o),
(471,1091,o),
(471,1223,cs),
(471,1352,o),
(574,1426,o),
(711,1441,c),
(711,923,l)
);
},
{
closed = 1;
nodes = (
(816,660,l),
(970,578,o),
(1106,495,o),
(1106,341,cs),
(1106,182,o),
(997,98,o),
(816,83,c,{
name = hr04;
})
);
}
);
width = 1526;
}
);
unicode = 36;
}
{
glyphname = percent;
layers = (
{
guides = (
{
pos = (0,1545);
}
);
layerId = m001;
shapes = (
{
closed = 1;
nodes = (
(776,-70,l),
(1601,1543,l),
(1449,1543,l),
(622,-70,l,{
name = hr00;
})
);
},
{
closed = 1;
nodes = (
(876,673,o),
(1014,877,o),
(1014,1085,cs),
(1014,1291,o),
(876,1499,o),
(610,1499,cs),
(344,1499,o),
(207,1291,o),
(207,1085,cs),
(207,883,o),
(341,673,o),
(610,673,cs)
);
},
{
closed = 1;
nodes = (
(442,771,o),
(404,941,o),
(404,1085,cs),
(404,1229,o),
(444,1404,o),
(613,1404,cs),
(780,1404,o),
(821,1236,o),
(821,1085,cs),
(821,939,o),
(780,771,o),
(613,771,cs)
);
},
{
closed = 1;
nodes = (
(1207,154,o),
(1343,-55,o),
(1611,-55,cs),
(1878,-55,o),
(2015,149,o),
(2015,357,cs),
(2015,563,o),
(1878,771,o),
(1611,771,cs),
(1345,771,o),
(1207,563,o),
(1207,357,cs)
);
},
{
closed = 1;
nodes = (
(1404,500,o),
(1444,675,o),
(1613,675,cs),
(1781,675,o),
(1821,508,o),
(1821,357,cs),
(1821,212,o),
(1781,41,o),
(1613,41,cs),
(1442,41,o),
(1404,214,o),
(1404,357,cs)
);
}
);
userData = {
com.typemytype.robofont.guides = (
{
angle = 0;
isGlobal = 0;
magnetic = 5;
x = 0;
y = 1545;
}
);
};
width = 2221;
}
);
unicode = 37;
}
{
glyphname = ampersand;
layers = (
{
guides = (
{
pos = (0,934);
},
{
pos = (0,853);
},
{
angle = 90;
pos = (721,0);
}
);
layerId = m001;
shapes = (
{
closed = 1;
nodes = (
(153,140,o),
(367,-26,o),
(719,-26,cs,{
name = hr02;
}),
(860,-26,o),
(1035,4,o),
(1130,71,c),
(1152,-536,l),
(1260,-536,l),
(1300,601,ls),
(1305,747,o),
(1320,755,o),
(1441,769,c),
(1441,847,l),
(949,847,l),
(949,769,l),
(1090,756,o),
(1107,742,o),
(1112,601,cs),
(1125,214,l),
(1044,149,o),
(903,82,o),
(744,82,cs,{
name = hr03;
}),
(565,82,o),
(386,176,o),
(385,395,cs),
(384,636,o),
(510,765,o),
(710,765,c),
(710,869,l),
(566,877,o),
(470,985,o),
(470,1156,cs),
(470,1389,o),
(604,1439,o),
(720,1439,cs,{
name = hr04;
}),
(933,1439,o),
(1036,1325,o),
(1036,1184,cs),
(1036,1128,o),
(1033,1093,o),
(1028,1058,c),
(1125,1058,l),
(1253,1555,l),
(1157,1555,l),
(1127,1511,o),
(1099,1477,o),
(1048,1477,cs),
(1019,1477,o),
(988,1489,o),
(950,1504,cs,{
name = hr05;
}),
(894,1524,o),
(824,1543,o),
(720,1543,cs),
(390,1543,o),
(238,1377,o),
(238,1160,cs),
(238,923,o),
(427,848,o),
(506,824,c),
(321,779,o),
(153,644,o),
(153,426,cs,{
name = hr01;
})
);
}
);
userData = {
com.typemytype.robofont.guides = (
{
angle = 0;
isGlobal = 0;
magnetic = 5;
x = 0;
y = 934;
},
{
angle = 0;
isGlobal = 0;
magnetic = 5;
x = 0;
y = 853;
},
{
angle = 90;
isGlobal = 0;
magnetic = 5;
x = 721;
y = 0;
}
);
};
width = 1533;
}
);
unicode = 38;
}
{
glyphname = quotesingle;
layers = (
{
layerId = m001;
shapes = (
{
closed = 1;
nodes = (
(328,895,l),
(328,895,o),
(334,1336,o),
(460,1527,c),
(278,1706,l),
(92,1527,l),
(226,1335,o),
(231,895,o),
(231,895,c,{
name = hr00;
})
);
}
);
width = 512;
}
);
unicode = 39;
}
{
glyphname = parenleft;
layers = (
{
layerId = m001;
shapes = (
{
closed = 1;
nodes = (
(200,147,o),
(560,-205,o),
(754,-350,c),
(812,-291,l),
(447,12,o),
(415,535,o),
(415,809,cs),
(415,1084,o),
(450,1501,o),
(812,1812,c),
(754,1872,l),
(560,1751,o),
(200,1399,o),
(200,793,cs,{
name = hr00;
})
);
}
);
width = 1022;
}
);
unicode = 40;
}
{
glyphname = asterisk;
layers = (
{
layerId = m001;
shapes = (
{
closed = 1;
nodes = (
(745,932,l),
(682,1024,o),
(655,1178,o),
(643,1294,c),
(738,1226,o),
(859,1125,o),
(910,1028,c),
(1109,1081,l),
(1058,1283,l),
(945,1274,o),
(797,1328,o),
(690,1377,c),
(797,1426,o),
(946,1481,o),
(1057,1475,c),
(1109,1672,l),
(908,1728,l),
(859,1627,o),
(739,1527,o),
(644,1460,c),
(656,1574,o),
(682,1729,o),
(743,1822,c),
(598,1968,l),
(449,1822,l),
(512,1729,o),
(539,1576,o),
(550,1460,c),
(455,1527,o),
(333,1629,o),
(284,1726,c),
(85,1673,l),
(136,1472,l),
(248,1481,o),
(397,1426,o),
(503,1377,c),
(397,1329,o),
(247,1274,o),
(137,1280,c),
(85,1082,l),
(286,1026,l),
(333,1127,o),
(453,1227,o),
(549,1295,c),
(538,1180,o),
(512,1023,o),
(451,932,c),
(597,787,l,{
name = hr00;
})
);
}
);
width = 1195;
}
);
unicode = 42;
}
{
glyphname = plus;
layers = (
{
guides = (
{
pos = (0,886);
},
{
pos = (0,794);
},
{
angle = 90;
pos = (590,0);
},
{
angle = 90;
pos = (693,0);
}
);
layerId = m001;
shapes = (
{
closed = 1;
nodes = (
(785,278,l),
(785,753,l),
(1220,753,l),
(1260,919,l),
(785,919,l),
(785,1396,l),
(616,1396,l),
(616,919,l),
(139,919,l),
(99,753,l),
(616,753,l),
(616,278,l,{
name = hr00;
})
);
}
);
userData = {
com.typemytype.robofont.guides = (
{
angle = 0;
isGlobal = 0;
magnetic = 5;
x = 0;
y = 886;
},
{
angle = 0;
isGlobal = 0;
magnetic = 5;
x = 0;
y = 794;
},
{
angle = 90;
isGlobal = 0;
magnetic = 5;
x = 590;
y = 0;
},
{
angle = 90;
isGlobal = 0;
magnetic = 5;
x = 693;
y = 0;
}
);
};
width = 1360;
}
);
unicode = 43;
}
{
glyphname = comma;
layers = (
{
layerId = m001;
shapes = (
{
closed = 1;
nodes = (
(165,36,o),
(205,-21,o),
(205,-118,cs),
(205,-214,o),
(165,-351,o),
(96,-450,c),
(173,-503,l),
(360,-292,o),
(447,-10,o),
(435,123,c),
(257,302,l),
(76,123,l,{
name = hr00;
})
);
}
);
width = 512;
}
);
unicode = 44;
}
{
glyphname = period;
layers = (
{
layerId = m001;
shapes = (
{
closed = 1;
nodes = (
(257,-58,l),
(435,123,l),
(257,302,l),
(75,123,l,{
name = hr00;
})
);
}
);
width = 512;
}
);
unicode = 46;
}
{
glyphname = slash;
layers = (
{
layerId = m001;
shapes = (
{
closed = 1;
nodes = (
(223,-30,l),
(779,1658,l),
(627,1658,l),
(69,-30,l,{
name = hr00;
})
);
}
);
width = 848;
}
);
unicode = 47;
}
{
glyphname = zero;
layers = (
{
guides = (
{
angle = 90;
pos = (1035,0);
}
);
layerId = m001;
shapes = (
{
closed = 1;
nodes = (
(106,322,o),
(299,-26,o),
(687,-26,cs),
(1066,-26,o),
(1259,314,o),
(1259,663,cs),
(1259,1006,o),
(1066,1353,o),
(687,1353,cs),
(302,1353,o),
(106,1006,o),
(106,663,cs,{
name = hr00;
})
);
},
{
closed = 1;
nodes = (
(218,877,o),
(309,1137,o),
(690,1137,cs),
(1062,1137,o),
(1147,888,o),
(1147,663,cs),
(1147,446,o),
(1062,193,o),
(690,193,cs),
(307,193,o),
(218,449,o),
(218,663,cs)
);
}
);
userData = {
com.typemytype.robofont.guides = (
{
angle = 90;
isGlobal = 0;
magnetic = 5;
x = 1035;
y = 0;
}
);
};
width = 1365;
}
);
unicode = 48;
}
{
glyphname = one;
layers = (
{
layerId = m001;
shapes = (
{
closed = 1;
nodes = (
(888,0,l),
(888,100,l),
(711,106,o),
(611,118,o),
(611,227,c),
(611,1327,l),
(137,1327,l),
(137,1228,l),
(376,1228,o),
(411,1214,o),
(411,1076,c),
(411,227,l),
(411,117,o),
(312,107,o),
(137,100,c),
(137,0,l,{
name = hr00;
})
);
}
);
width = 1025;
}
);
unicode = 49;
}
{
glyphname = two;
layers = (
{
layerId = m001;
shapes = (
{
closed = 1;
nodes = (
(181,0,l),
(1027,0,l),
(1069,0,o),
(1101,-29,o),
(1110,-78,c),
(1208,-78,l),
(1314,383,l),
(1216,383,l),
(1158,232,o),
(1095,173,o),
(935,173,c),
(469,173,l),
(957,550,o),
(1112,712,o),
(1112,948,cs),
(1112,1195,o),
(901,1351,o),
(678,1351,cs),
(620,1351,o),
(551,1337,o),
(504,1327,cs),
(480,1322,o),
(459,1317,o),
(449,1317,cs),
(414,1317,o),
(384,1329,o),
(388,1397,c),
(277,1397,l),
(152,896,l),
(250,896,l),
(328,1084,o),
(439,1183,o),
(614,1183,cs),
(832,1183,o),
(898,1047,o),
(898,909,cs),
(898,655,o),
(556,376,o),
(158,41,c,{
name = hr00;
})
);
}
);
width = 1364;
}
);
unicode = 50;
}
{
glyphname = three;
layers = (
{
layerId = m001;
shapes = (
{
closed = 1;
nodes = (
(263,-489,l),
(561,-411,o),
(1094,-170,o),
(1094,311,cs),
(1094,570,o),
(881,688,o),
(694,719,c),
(874,853,o),
(1028,1042,o),
(1028,1327,c),
(380,1327,ls),
(334,1327,o),
(310,1349,o),
(317,1407,c),
(221,1407,l),
(88,942,l),
(188,942,l),
(240,1066,o),
(279,1153,o),
(399,1153,cs),
(844,1153,l),
(805,957,o),
(636,724,o),
(344,616,c),
(396,534,l),
(425,546,o),
(457,562,o),
(489,578,c),
(757,585,o),
(898,403,o),
(898,241,cs),
(898,-124,o),
(403,-359,o),
(220,-403,c,{
name = hr00;
})
);
}
);
width = 1195;
}
);
unicode = 51;
}
{
glyphname = four;
layers = (
{
layerId = m001;
shapes = (
{
closed = 1;
nodes = (
(868,231,l),
(885,-509,l),
(1011,-509,l),
(1030,231,l),
(1207,231,ls),
(1245,231,o),
(1275,200,o),
(1283,153,c),
(1379,153,l),
(1467,587,l),
(1369,587,l),
(1314,438,o),
(1273,376,o),
(1161,376,cs,{
name = hr02;
}),
(1034,376,l),
(1068,1645,l),
(75,304,l),
(99,231,l,{
name = hr01;
})
);
},
{
closed = 1;
nodes = (
(849,1098,l),
(865,376,l),
(259,376,l)
);
}
);
width = 1533;
}
);
unicode = 52;
}
{
glyphname = five;
layers = (
{
layerId = m001;
shapes = (
{
closed = 1;
nodes = (
(238,-489,l),
(517,-407,o),
(962,-131,o),
(974,357,c),
(967,775,o),
(591,912,o),
(297,923,c),
(405,1153,l),
(973,1153,l),
(1083,1530,l),
(982,1530,l),
(934,1410,o),
(895,1328,o),
(775,1328,c),
(345,1328,l),
(93,761,l),
(380,781,o),
(785,624,o),
(785,286,cs),
(785,141,o),
(699,-209,o),
(195,-404,c,{
name = hr00;
})
);
}
);
width = 1195;
}
);
unicode = 53;
}
{
glyphname = six;
layers = (
{
layerId = m001;
shapes = (
{
closed = 1;
nodes = (
(137,247,o),
(379,-26,o),
(699,-26,cs),
(1034,-26,o),
(1243,221,o),
(1243,553,cs),
(1243,760,o),
(1092,1052,o),
(741,1052,cs),
(615,1052,o),
(473,997,o),
(405,914,c),
(497,1274,o),
(740,1574,o),
(1077,1640,c),
(1047,1736,l),
(472,1654,o),
(137,1119,o),
(137,623,cs,{
name = hr00;
})
);
},
{
closed = 1;
nodes = (
(391,73,o),
(365,459,o),
(365,621,cs),
(365,665,o),
(367,687,o),
(371,725,cs),
(371,730,o),
(373,737,o),
(373,742,c),
(426,851,o),
(566,920,o),
(697,920,cs),
(956,920,o),
(1017,679,o),
(1017,509,cs),
(1017,313,o),
(956,73,o),
(705,73,cs)
);
}
);
width = 1364;
}
);
unicode = 54;
}
{
glyphname = seven;
layers = (
{
layerId = m001;
shapes = (
{
closed = 1;
nodes = (
(493,-497,l),
(1107,1291,l),
(1070,1342,l),
(168,1342,l),
(56,970,l),
(155,970,l),
(208,1090,o),
(239,1170,o),
(378,1170,c),
(834,1170,l),
(389,-472,l,{
name = hr00;
})
);
}
);
width = 1199;
}
);
unicode = 55;
}
{
glyphname = eight;
layers = (
{
guides = (
{
angle = 90;
pos = (200,0);
},
{
angle = 90;
pos = (1165,0);
}
);
layerId = m001;
shapes = (
{
closed = 1;
nodes = (
(148,198,o),
(351,-24,o),
(695,-24,cs),
(1126,-24,o),
(1213,293,o),
(1213,426,cs),
(1213,592,o),
(1192,737,o),
(850,926,c),
(996,1003,o),
(1153,1133,o),
(1153,1333,cs,{
name = hr02;
}),
(1153,1520,o),
(1001,1720,o),
(688,1720,cs),
(469,1720,o),
(225,1589,o),
(225,1338,cs),
(225,1174,o),
(280,1041,o),
(510,891,c),
(263,785,o),
(148,629,o),
(148,399,cs,{
name = hr01;
})
);
},
{
closed = 1;
nodes = (
(580,1082,o),
(404,1229,o),
(404,1402,cs),
(404,1509,o),
(493,1618,o),
(676,1618,cs),
(870,1618,o),
(941,1470,o),
(941,1346,cs),
(941,1157,o),
(850,1049,o),
(764,975,c)
);
},
{
closed = 1;
nodes = (
(372,671,o),
(488,782,o),
(593,833,c,{
name = hr04;
}),
(622,813,o),
(650,794,o),
(682,774,cs),
(836,675,o),
(1027,538,o),
(1027,345,cs),
(1027,206,o),
(896,83,o),
(722,83,cs),
(501,83,o),
(372,269,o),
(372,440,cs)
);
}
);
userData = {
com.typemytype.robofont.guides = (
{
angle = 90;
isGlobal = 0;
magnetic = 5;
x = 200;
y = 0;
},
{
angle = 90;
isGlobal = 0;
magnetic = 5;
x = 1165;
y = 0;
}
);
};
width = 1364;
}
);
unicode = 56;
}
{
glyphname = nine;
layers = (
{
layerId = m001;
shapes = (
{
closed = 1;
nodes = (
(333,-407,l),
(908,-325,o),
(1243,230,o),
(1243,726,cs),
(1243,1102,o),
(1006,1355,o),
(685,1355,cs),
(351,1355,o),
(137,1118,o),
(137,786,cs),
(137,579,o),
(288,277,o),
(639,277,cs),
(765,277,o),
(887,332,o),
(975,405,c),
(883,46,o),
(639,-242,o),
(303,-306,c,{
name = hr00;
})
);
},
{
closed = 1;
nodes = (
(434,399,o),
(363,650,o),
(363,820,cs),
(363,1015,o),
(429,1254,o),
(679,1254,cs),
(1014,1254,o),
(1015,832,o),
(1015,708,cs),
(1015,661,o),
(1013,624,o),
(1007,587,c),
(955,483,o),
(824,399,o),
(692,399,cs)
);
}
);
width = 1361;
}
);
unicode = 57;
}
{
glyphname = less;
layers = (
{
layerId = m001;
shapes = (
{
closed = 1;
nodes = (
(1147,311,l),
(1217,462,l),
(947,587,o),
(678,714,o),
(409,839,c),
(1217,1215,l),
(1147,1366,l),
(142,899,l),
(142,779,l,{
name = hr00;
})
);
}
);
width = 1360;
}
);
unicode = 60;
}
{
glyphname = equal;
layers = (
{
layerId = m001;
shapes = (
{
closed = 1;
nodes = (
(1171,977,l),
(1212,1144,l),
(188,1144,l),
(148,977,l,{
name = hr00;
})
);
},
{
closed = 1;
nodes = (
(1171,525,l),
(1212,692,l),
(188,692,l),
(148,525,l)
);
}
);
width = 1360;
}
);
unicode = 61;
}
{
glyphname = greater;
layers = (
{
layerId = m001;
shapes = (
{
closed = 1;
nodes = (
(1217,779,l),
(1217,899,l),
(212,1366,l),
(142,1215,l),
(412,1090,o),
(680,963,o),
(950,839,c),
(142,462,l),
(212,311,l,{
name = hr00;
})
);
}
);
width = 1360;
}
);
unicode = 62;
}
{
glyphname = question;
layers = (
{
layerId = m001;
shapes = (
{
closed = 1;
nodes = (
(637,428,l),
(660,718,l),
(914,772,o),
(1081,988,o),
(1081,1246,cs),
(1081,1541,o),
(857,1687,o),
(588,1687,cs),
(519,1687,o),
(456,1676,o),
(392,1676,cs),
(356,1676,o),
(320,1707,o),
(318,1756,c),
(203,1756,l),
(82,1255,l),
(195,1255,l),
(283,1517,o),
(378,1579,o),
(565,1579,cs),
(737,1579,o),
(842,1428,o),
(842,1227,cs),
(842,1048,o),
(796,851,o),
(564,815,c),
(501,815,l),
(541,428,l,{
name = hr00;
})
);
},
{
closed = 1;
nodes = (
(589,-58,l),
(767,123,l),
(589,302,l),
(407,123,l)
);
}
);
width = 1195;
}
);
unicode = 63;
}
{
glyphname = at;
layers = (
{
layerId = m001;
shapes = (
{
closed = 1;
nodes = (
(159,35,o),
(430,-448,o),
(1085,-448,cs),
(1284,-448,o),
(1520,-367,o),
(1620,-286,c,{
name = hr02;
}),
(1591,-198,l),
(1476,-272,o),
(1310,-335,o),
(1083,-335,cs,{
name = hr03;
}),
(652,-335,o),
(352,-13,o),
(352,385,cs),
(352,1106,o),
(806,1439,o),
(1242,1439,cs),
(1664,1439,o),
(1891,1108,o),
(1891,749,cs),
(1891,446,o),
(1724,96,o),
(1485,96,cs),
(1443,96,o),
(1430,123,o),
(1430,162,cs),
(1430,194,o),
(1439,234,o),
(1448,275,cs),
(1588,922,l),
(1530,1001,o),
(1382,1100,o),
(1224,1100,cs),
(889,1100,o),
(664,732,o),
(664,398,cs),
(664,191,o),
(757,0,o),
(962,0,cs),
(1077,0,o),
(1196,96,o),
(1257,180,c),
(1270,87,o),
(1323,0,o),
(1443,0,cs),
(1802,0,o),
(2070,401,o),
(2070,753,cs),
(2070,1218,o),
(1691,1529,o),
(1242,1529,cs),
(660,1529,o),
(159,1111,o),
(159,414,cs,{
name = hr01;
})
);
},
{
closed = 1;
nodes = (
(856,480,o),
(866,547,o),
(880,601,c),
(934,771,o),
(1077,1000,o),
(1254,1000,cs),
(1329,1000,o),
(1373,981,o),
(1412,944,c),
(1293,436,l),
(1242,231,o),
(1121,122,o),
(1017,122,cs),
(907,122,o),
(856,271,o),
(856,420,cs,{
name = hr04;
})
);
}
);
width = 2220;
}
);
unicode = 64;
}
{
glyphname = A;
layers = (
{
anchors = (
{
name = btm;
pos = (762,0);
},
{
name = top;
pos = (765,1530);
}
);
guides = (
{
pos = (0,1706);
},
{
pos = (0,1589);
},
{
angle = 90;
pos = (765,0);
}
);
layerId = m001;
shapes = (
{
closed = 1;
nodes = (
(587,0,l),
(587,83,l),
(409,105,o),
(403,111,o),
(403,284,cs),
(403,526,l),
(1122,526,l),
(1122,284,ls),
(1122,111,o),
(1116,105,o),
(939,83,c),
(939,0,l),
(1488,0,l),
(1488,83,l),
(1336,109,o),
(1330,112,o),
(1331,212,cs),
(1332,313,ls),
(1340,1089,o),
(1185,1310,o),
(766,1589,c),
(765,1589,l),
(347,1310,o),
(184,1099,o),
(192,313,cs),
(193,210,ls),
(194,112,o),
(199,109,o),
(46,83,c),
(46,0,l,{
name = hr00;
})
);
},
{
closed = 1;
nodes = (
(421,973,o),
(483,1169,o),
(765,1448,c),
(1047,1169,o),
(1118,974,o),
(1120,638,c),
(405,638,l)
);
}
);
userData = {
com.typemytype.robofont.guides = (
{
angle = 0;
isGlobal = 0;
magnetic = 5;
x = 0;
y = 1706;
},
{
angle = 0;
isGlobal = 0;
magnetic = 5;
x = 0;
y = 1589;
},
{
angle = 90;
isGlobal = 0;
magnetic = 5;
x = 765;
y = 0;
}
);
};
width = 1534;
}
);
unicode = 65;
}
{
glyphname = B;
layers = (
{
anchors = (
{
name = btm;
pos = (712,0);
},
{
name = top;
pos = (680,1530);
}
);
layerId = m001;
shapes = (
{
closed = 1;
nodes = (
(351,0,ls),
(495,0,o),
(641,-30,o),
(782,-30,cs),
(1230,-30,o),
(1426,200,o),
(1426,460,cs),
(1426,640,o),
(1293,785,o),
(1023,829,c),
(1209,893,o),
(1298,1047,o),
(1298,1214,cs),
(1298,1417,o),
(1131,1550,o),
(728,1550,cs),
(592,1550,o),
(472,1530,o),
(351,1530,cs),
(91,1530,l),
(91,1443,l),
(249,1429,o),
(264,1408,o),
(264,1281,cs),
(264,249,ls),
(264,122,o),
(249,97,o),
(91,83,c),
(91,0,l,{
name = hr00;
})
);
},
{
closed = 1;
nodes = (
(467,1238,ls),
(467,1352,o),
(486,1443,o),
(732,1443,cs),
(1010,1443,o),
(1072,1335,o),
(1072,1195,cs),
(1072,1060,o),
(1026,898,o),
(833,880,c),
(626,867,l),
(626,773,l),
(888,759,l),
(1131,738,o),
(1200,573,o),
(1200,418,cs),
(1200,248,o),
(1115,86,o),
(786,86,cs),
(492,86,o),
(467,183,o),
(467,292,cs)
);
}
);
width = 1530;
}
);
unicode = 66;
}
{
glyphname = C;
layers = (
{
anchors = (
{
name = btm;
pos = (860,0);
},
{
name = top;
pos = (868,1530);
}
);
guides = (
{
angle = 90;
pos = (868,0);
}
);
layerId = m001;
shapes = (
{
closed = 1;
nodes = (
(120,348,o),
(382,-25,o),
(892,-25,cs),
(1154,-25,o),
(1346,72,o),
(1448,225,c),
(1398,292,l),
(1272,169,o),
(1131,115,o),
(934,115,cs),
(519,115,o),
(355,452,o),
(355,748,cs),
(355,1081,o),
(492,1442,o),
(893,1442,cs),
(1051,1442,o),
(1234,1376,o),
(1273,1252,c),
(1294,1175,o),
(1290,1098,o),
(1284,1023,c),
(1380,1023,l),
(1512,1553,l),
(1417,1553,l),
(1383,1506,o),
(1345,1471,o),
(1306,1471,cs),
(1256,1471,o),
(1216,1485,o),
(1169,1501,cs),
(1105,1523,o),
(1028,1551,o),
(896,1551,cs),
(389,1551,o),
(120,1154,o),
(120,755,cs,{
name = hr00;
})
);
}
);
userData = {
com.typemytype.robofont.guides = (
{
angle = 90;
isGlobal = 0;
magnetic = 5;
x = 868;
y = 0;
}
);
};
width = 1531;
}
);
unicode = 67;
}
{
glyphname = D;
layers = (
{
anchors = (
{
name = btm;
pos = (791,0);
},
{
name = top;
pos = (791,1530);
}
);
guides = (
{
pos = (0,89);
},
{
pos = (0,1595);
},
{
angle = 90;
pos = (355,0);
}
);
layerId = m001;
shapes = (
{
closed = 1;
nodes = (
(355,1,l),
(387,1,o),
(460,-7,o),
(532,-14,cs),
(604,-21,o),
(695,-25,o),
(726,-25,cs),
(1224,-25,o),
(1499,319,o),
(1499,817,cs,{
name = hr02;
}),
(1499,1324,o),
(1176,1544,o),
(743,1544,cs),
(705,1544,o),
(612,1538,o),
(532,1533,cs),
(457,1528,o),
(385,1531,o),
(355,1531,c),
(64,1531,l,{
name = hr03;
}),
(64,1443,l),
(216,1430,o),
(237,1424,o),
(237,1269,cs),
(237,265,ls),
(237,110,o),
(215,104,o),
(64,83,c),
(64,0,l,{
name = hr01;
})
);
},
{
closed = 1;
nodes = (
(440,1329,ls),
(440,1420,o),
(612,1443,o),
(714,1443,cs,{
name = hr05;
}),
(1047,1443,o),
(1275,1292,o),
(1275,853,cs),
(1275,355,o),
(1123,88,o),
(751,88,cs),
(678,88,o),
(440,109,o),
(440,217,cs,{
name = hr04;
})
);
}
);
userData = {
com.typemytype.robofont.guides = (
{
angle = 0;
isGlobal = 0;
magnetic = 5;
x = 0;
y = 89;
},
{
angle = 0;
isGlobal = 0;
magnetic = 5;
x = 0;
y = 1595;
},
{
angle = 90;
isGlobal = 0;
magnetic = 5;
x = 355;
y = 0;
}
);
};
width = 1537;
}
);
unicode = 68;
}
{
glyphname = E;
layers = (
{
anchors = (
{
name = btm;
pos = (746,0);
},
{
name = top;
pos = (812,1530);
}
);
guides = (
{
angle = 90;
pos = (868,0);
}
);
layerId = m001;
shapes = (
{
closed = 1;
nodes = (
(107,323,o),
(394,-25,o),
(856,-25,cs),
(1094,-25,o),
(1308,64,o),
(1425,225,c),
(1375,292,l),
(1246,156,o),
(1067,104,o),
(898,104,cs),
(550,104,o),
(349,417,o),
(338,704,c),
(959,704,l),
(986,817,l),
(341,817,l),
(367,1163,o),
(515,1443,o),
(828,1443,cs),
(986,1443,o),
(1159,1374,o),
(1198,1250,c),
(1210,1209,o),
(1214,1171,o),
(1214,1126,cs),
(1214,1096,o),
(1212,1062,o),
(1209,1021,c),
(1304,1021,l),
(1437,1551,l),
(1341,1551,l),
(1308,1504,o),
(1270,1469,o),
(1231,1469,cs),
(1181,1469,o),
(1141,1483,o),
(1094,1499,cs),
(1030,1521,o),
(963,1552,o),
(821,1552,cs),
(357,1552,o),
(107,1140,o),
(107,725,cs,{
name = hr00;
})
);
}
);
userData = {
com.typemytype.robofont.guides = (
{
angle = 90;
isGlobal = 0;
magnetic = 5;
x = 868;
y = 0;
}
);
};
width = 1533;
}
);
unicode = 69;
}
{
glyphname = F;
layers = (
{
anchors = (
{
name = btm;
pos = (712,0);
},
{
name = top;
pos = (712,1530);
}
);
layerId = m001;
shapes = (
{
closed = 1;
nodes = (
(741,0,l),
(741,83,l),
(485,108,o),
(461,110,o),
(461,265,cs),
(461,728,l),
(1030,728,l),
(1057,842,l),
(461,842,l),
(461,1418,l),
(915,1418,l),
(1099,1418,o),
(1160,1393,o),
(1160,1271,cs),
(1160,1226,o),
(1152,1171,o),
(1139,1100,c),
(1234,1100,l),
(1339,1530,l),
(86,1530,l),
(86,1443,l),
(238,1430,o),
(259,1422,o),
(259,1267,cs),
(259,265,ls),
(259,110,o),
(237,104,o),
(86,83,c),
(86,0,l,{
name = hr00;
})
);
}
);
width = 1364;
}
);
unicode = 70;
}
{
glyphname = G;
layers = (
{
anchors = (
{
name = btm;
pos = (897,0);
},
{
name = top;
pos = (897,1530);
}
);
guides = (
{
angle = 90;
pos = (897,0);
}
);
layerId = m001;
shapes = (
{
closed = 1;
nodes = (
(96,364,o),
(363,-26,o),
(883,-26,cs),
(1031,-26,o),
(1182,5,o),
(1288,58,c),
(1313,-388,l),
(1438,-388,l),
(1481,502,l),
(1487,662,o),
(1510,665,o),
(1591,680,c),
(1591,765,l),
(1023,765,l),
(1023,680,l),
(1224,667,o),
(1264,658,o),
(1270,502,c),
(1282,210,l),
(1198,134,o),
(1053,95,o),
(885,95,cs),
(482,95,o),
(335,457,o),
(335,761,cs),
(335,1080,o),
(444,1443,o),
(895,1443,cs),
(1052,1443,o),
(1260,1375,o),
(1297,1253,cs),
(1309,1213,o),
(1313,1183,o),
(1313,1145,cs),
(1313,1118,o),
(1311,1085,o),
(1308,1043,c),
(1403,1043,l),
(1536,1553,l),
(1441,1553,l),
(1407,1507,o),
(1368,1471,o),
(1330,1471,cs),
(1281,1471,o),
(1236,1485,o),
(1185,1501,cs),
(1114,1523,o),
(1028,1551,o),
(893,1551,cs),
(356,1551,o),
(96,1157,o),
(96,761,cs,{
name = hr00;
})
);
}
);
userData = {
com.typemytype.robofont.guides = (
{
angle = 90;
isGlobal = 0;
magnetic = 5;
x = 897;
y = 0;
}
);
};
width = 1700;
}
);
unicode = 71;
}
{
glyphname = H;
layers = (
{
anchors = (
{
name = btm;
pos = (848,0);
},
{
name = top;
pos = (848,1530);
}
);
layerId = m001;
shapes = (
{
closed = 1;
nodes = (
(647,0,l),
(647,83,l),
(490,108,o),
(475,110,o),
(475,265,cs),
(475,736,l),
(1220,736,l),
(1220,265,ls),
(1220,110,o),
(1198,104,o),
(1048,83,c),
(1048,0,l),
(1593,0,l),
(1593,83,l),
(1435,108,o),
(1421,110,o),
(1421,265,cs),
(1421,1267,ls),
(1421,1427,o),
(1443,1428,o),
(1593,1443,c),
(1593,1530,l),
(1048,1530,l),
(1048,1443,l),
(1200,1430,o),
(1220,1422,o),
(1220,1267,cs),
(1220,849,l),
(475,849,l),
(475,1267,ls),
(475,1427,o),
(496,1428,o),
(647,1443,c),
(647,1530,l),
(104,1530,l),
(104,1443,l),
(256,1430,o),
(275,1422,o),
(275,1267,cs),
(275,265,ls),
(275,110,o),
(263,104,o),
(112,83,c),
(112,0,l,{
name = hr00;
})
);
}
);
width = 1698;
}
);
unicode = 72;
}
{
glyphname = I;
layers = (
{
anchors = (
{
name = btm;
pos = (427,0);
},
{
name = top;
pos = (427,1530);
}
);
layerId = m001;
shapes = (
{
closed = 1;
nodes = (
(701,0,l),
(701,83,l),
(663,89,l),
(544,108,o),
(529,110,o),
(529,265,c),
(529,1267,l),
(529,1427,o),
(551,1428,o),
(701,1443,c),
(701,1530,l),
(154,1530,l),
(154,1443,l),
(306,1430,o),
(327,1422,o),
(327,1267,c),
(327,265,l),
(327,111,o),
(305,105,o),
(188,88,c),
(156,83,l),
(154,82,l),
(154,0,l,{
name = hr00;
})
);
}
);
width = 848;
}
);
unicode = 73;
}
{
glyphname = J;
layers = (
{
anchors = (
{
name = btm;
pos = (362,0);
},
{
name = top;
pos = (432,1530);
}
);
layerId = m001;
shapes = (
{
closed = 1;
nodes = (
(283,-75,o),
(244,-221,o),
(-41,-497,c),
(13,-565,l),
(403,-326,o),
(486,-110,o),
(486,429,c),
(486,1267,l),
(486,1427,o),
(518,1428,o),
(678,1443,c),
(678,1530,l),
(90,1530,l),
(90,1443,l),
(235,1430,o),
(283,1427,o),
(283,1266,c),
(283,392,ls,{
name = hr00;
})
);
}
);
width = 683;
}
);
unicode = 74;
}
{
glyphname = K;
layers = (
{
anchors = (
{
name = btm;
pos = (859,0);
},
{
name = top;
pos = (815,1530);
}
);
layerId = m001;
shapes = (
{
closed = 1;
nodes = (
(1549,-301,l),
(1617,-244,l),
(824,791,l),
(1230,1321,l),
(1293,1395,o),
(1345,1433,o),
(1430,1443,c),
(1430,1530,l),
(913,1530,l),
(913,1443,l),
(982,1442,o),
(1061,1441,o),
(1061,1395,cs),
(1061,1370,o),
(1028,1314,o),
(991,1270,c),
(581,724,l,{
name = hr00;
})
);
},
{
closed = 1;
nodes = (
(672,0,l),
(672,83,l),
(629,89,l),
(494,108,o),
(478,110,o),
(478,265,c),
(478,1267,ls),
(478,1427,o),
(496,1430,o),
(651,1443,c),
(651,1530,l),
(102,1530,l),
(102,1443,l),
(255,1430,o),
(275,1422,o),
(275,1267,cs),
(275,265,l),
(275,111,o),
(254,105,o),
(137,88,c),
(102,83,l),
(102,0,l)
);
}
);
width = 1533;
}
);
unicode = 75;
}
{
glyphname = L;
layers = (
{
anchors = (
{
name = btm;
pos = (704,0);
},
{
name = top;
pos = (704,1530);
}
);
guides = (
{
angle = 90;
pos = (76,0);
}
);
layerId = m001;
shapes = (
{
closed = 1;
nodes = (
(1091,0,l),
(1137,0,o),
(1168,-29,o),
(1172,-78,c),
(1258,-78,l),
(1335,436,l),
(1242,436,l),
(1156,134,o),
(1128,110,o),
(728,110,cs),
(531,110,o),
(462,116,o),
(462,210,c),
(462,1301,l),
(462,1419,o),
(497,1435,o),
(657,1444,c),
(657,1530,l),
(74,1530,l),
(74,1443,l),
(238,1431,o),
(258,1407,o),
(258,1297,c),
(258,235,l),
(258,122,o),
(245,99,o),
(74,84,c,{
name = hr02;
}),
(74,0,l,{
name = hr01;
})
);
}
);
userData = {
com.typemytype.robofont.guides = (
{
angle = 90;
isGlobal = 0;
magnetic = 5;
x = 76;
y = 0;
}
);
};
width = 1364;
}
);
unicode = 76;
}
{
glyphname = M;
layers = (
{
anchors = (
{
name = btm;
pos = (1074,0);
},
{
name = top;
pos = (1098,1530);
}
);
guides = (
{
pos = (0,1161);
},
{
pos = (0,1843);
},
{
pos = (0,1559);
},
{
pos = (0,-50);
},
{
angle = 90;
pos = (1802,0);
}
);
layerId = m001;
shapes = (
{
closed = 1;
nodes = (
(541,0,l),
(541,83,l),
(364,96,o),
(336,123,o),
(351,203,cs),
(523,1104,l),
(1043,-50,l),
(1110,-50,l),
(1620,1104,l),
(1781,266,l),
(1785,235,o),
(1789,209,o),
(1789,189,cs),
(1789,110,o),
(1754,105,o),
(1623,83,c),
(1623,0,l),
(2192,0,l),
(2192,83,l),
(2054,102,o),
(2032,99,o),
(1996,266,cs),
(1715,1559,l),
(1647,1559,l),
(1111,338,l),
(558,1559,l),
(484,1559,l),
(192,167,ls),
(179,106,o),
(145,99,o),
(31,83,c),
(31,0,l,{
name = hr00;
})
);
}
);
userData = {
com.typemytype.robofont.guides = (
{
angle = 0;
isGlobal = 0;
magnetic = 5;
x = 0;
y = 1161;
},
{
angle = 0;
isGlobal = 0;
magnetic = 5;
x = 0;
y = 1843;
},
{
angle = 0;
isGlobal = 0;
magnetic = 5;
x = 0;
y = 1559;
},
{
angle = 0;
isGlobal = 0;
magnetic = 5;
x = 0;
y = -50;
},
{
angle = 90;
isGlobal = 0;
magnetic = 5;
x = 1802;
y = 0;
}
);
};
width = 2224;
}
);
unicode = 77;
}
{
glyphname = N;
layers = (
{
anchors = (
{
name = btm;
pos = (843,0);
},
{
name = top;
pos = (843,1530);
}
);
layerId = m001;
shapes = (
{
closed = 1;
nodes = (
(604,0,l),
(604,83,l),
(587,85,o),
(567,89,o),
(550,91,cs),
(445,107,o),
(390,117,o),
(390,241,cs),
(390,1200,l),
(1381,-47,l),
(1459,-24,l),
(1459,1290,ls),
(1459,1427,o),
(1499,1430,o),
(1641,1445,c),
(1641,1530,l),
(1113,1530,l,{
name = hr02;
}),
(1113,1445,l),
(1265,1432,o),
(1307,1423,o),
(1307,1287,cs),
(1307,350,l),
(323,1588,l),
(238,1558,l),
(238,210,ls),
(238,112,o),
(189,104,o),
(90,89,cs),
(45,83,l),
(45,0,l,{
name = hr01;
})
);
}
);
width = 1703;
}
);
unicode = 78;
}
{
glyphname = O;
layers = (
{
anchors = (
{
name = btm;
pos = (851,0);
},
{
name = top;
pos = (851,1530);
}
);
guides = (
{
pos = (0,828);
},
{
angle = 90;
pos = (853,0);
}
);
layerId = m001;
shapes = (
{
closed = 1;
nodes = (
(119,361,o),
(356,-20,o),
(851,-20,cs),
(1343,-20,o),
(1584,354,o),
(1584,756,cs),
(1584,1148,o),
(1343,1551,o),
(851,1551,cs),
(360,1551,o),
(119,1148,o),
(119,756,cs,{
name = hr00;
})
);
},
{
closed = 1;
nodes = (
(358,1078,o),
(454,1443,o),
(853,1443,cs),
(1252,1443,o),
(1349,1088,o),
(1349,756,cs),
(1349,425,o),
(1252,81,o),
(853,81,cs),
(452,81,o),
(358,427,o),
(358,756,cs)
);
}
);
userData = {
com.typemytype.robofont.guides = (
{
angle = 0;
isGlobal = 0;
magnetic = 5;
x = 0;
y = 828;
},
{
angle = 90;
isGlobal = 0;
magnetic = 5;
x = 853;
y = 0;
}
);
};
width = 1703;
}
);
unicode = 79;
}
{
glyphname = P;
layers = (
{
anchors = (
{
name = btm;
pos = (668,0);
},
{
name = top;
pos = (699,1530);
}
);
layerId = m001;
shapes = (
{
closed = 1;
nodes = (
(720,0,l),
(720,82,l),
(665,88,l),
(492,107,o),
(471,109,o),
(471,264,c,{
name = hr02;
}),
(471,1254,l),
(471,1364,o),
(491,1443,o),
(733,1443,cs,{
name = hr03;
}),
(1011,1443,o),
(1035,1245,o),
(1035,1048,cs),
(1035,807,o),
(947,640,o),
(716,640,cs),
(689,640,o),
(653,642,o),
(618,648,c),
(601,555,l),
(644,544,o),
(697,535,o),
(742,535,cs),
(1120,535,o),
(1261,791,o),
(1261,1060,cs),
(1261,1319,o),
(1154,1552,o),
(749,1552,cs),
(614,1552,o),
(486,1530,o),
(356,1530,c),
(96,1530,l),
(96,1443,l),
(254,1429,o),
(269,1404,o),
(269,1277,c),
(269,264,l),
(269,110,o),
(243,102,o),
(129,86,cs),
(119,85,o),
(103,84,o),
(96,82,c),
(96,0,l,{
name = hr01;
})
);
}
);
width = 1361;
}
);
unicode = 80;
}
{
glyphname = Q;
layers = (
{
anchors = (
{
name = btm;
pos = (850,0);
},
{
name = top;
pos = (850,1530);
}
);
guides = (
{
angle = 90;
pos = (747,0);
}
);
layerId = m001;
shapes = (
{
closed = 1;
nodes = (
(118,361,o),
(355,-26,o),
(851,-26,cs),
(991,-26,o),
(1110,5,o),
(1210,58,c),
(1696,-368,l),
(1756,-316,l),
(1373,182,l),
(1514,330,o),
(1584,540,o),
(1584,756,cs),
(1584,1148,o),
(1342,1551,o),
(851,1551,cs),
(359,1551,o),
(118,1148,o),
(118,756,cs,{
name = hr00;
})
);
},
{
closed = 1;
nodes = (
(357,1078,o),
(453,1443,o),
(852,1443,cs),
(1251,1443,o),
(1348,1088,o),
(1348,756,cs),
(1348,425,o),
(1251,75,o),
(852,75,cs),
(451,75,o),
(357,427,o),
(357,756,cs)
);
}
);
userData = {
com.typemytype.robofont.guides = (
{
angle = 90;
isGlobal = 0;
magnetic = 5;
x = 747;
y = 0;
}
);
};
width = 1704;
}
);
unicode = 81;
}
{
glyphname = R;
layers = (
{
anchors = (
{
name = btm;
pos = (795,0);
},
{
name = top;
pos = (698,1530);
}
);
guides = (
{
pos = (0,1595);
},
{
pos = (0,820);
},
{
angle = 90;
pos = (92,0);
},
{
angle = 90;
pos = (1254,0);
}
);
layerId = m001;
shapes = (
{
closed = 1;
nodes = (
(715,-1,l),
(715,82,l),
(661,88,l),
(488,107,o),
(467,109,o),
(467,265,cs),
(467,1237,ls),
(467,1346,o),
(493,1443,o),
(745,1443,cs),
(1004,1443,o),
(1071,1283,o),
(1071,1108,cs,{
name = hr02;
}),
(1071,852,o),
(920,729,o),
(777,729,c),
(701,729,l),
(657,640,l),
(1532,-341,l),
(1607,-284,l),
(926,650,l),
(1194,737,o),
(1298,948,o),
(1298,1119,cs),
(1298,1358,o),
(1128,1552,o),
(746,1552,cs),
(615,1552,o),
(475,1530,o),
(351,1530,cs),
(91,1530,l),
(91,1444,l),
(249,1430,o),
(264,1405,o),
(264,1277,cs),
(264,265,ls,{
name = hr03;
}),
(264,109,o),
(242,103,o),
(125,87,c),
(91,82,l),
(91,-1,l,{
name = hr01;
})
);
}
);
userData = {
com.typemytype.robofont.guides = (
{
angle = 0;
isGlobal = 0;
magnetic = 5;
x = 0;
y = 1595;
},
{
angle = 0;
isGlobal = 0;
magnetic = 5;
x = 0;
y = 820;
},
{
angle = 90;
isGlobal = 0;
magnetic = 5;
x = 92;
y = 0;
},
{
angle = 90;
isGlobal = 0;
magnetic = 5;
x = 1254;
y = 0;
}
);
};
width = 1533;
}
);
unicode = 82;
}
{
glyphname = S;
layers = (
{
anchors = (
{
name = btm;
pos = (700,0);
},
{
name = top;
pos = (725,1530);
}
);
layerId = m001;
shapes = (
{
closed = 1;
nodes = (
(137,94,o),
(469,-24,o),
(703,-24,cs),
(1014,-24,o),
(1269,93,o),
(1269,396,cs),
(1269,608,o),
(1059,722,o),
(810,849,cs,{
name = hr02;
}),
(550,981,o),
(415,1048,o),
(415,1216,cs),
(415,1353,o),
(531,1445,o),
(686,1445,cs),
(851,1445,o),
(981,1384,o),
(981,1270,cs),
(981,1205,o),
(958,1171,o),
(935,1140,c),
(1009,1091,l),
(1145,1132,o),
(1190,1229,o),
(1190,1306,cs),
(1190,1461,o),
(968,1551,o),
(714,1551,cs,{
name = hr03;
}),
(435,1551,o),
(217,1409,o),
(217,1170,cs),
(217,974,o),
(354,852,o),
(648,699,cs),
(838,600,o),
(1051,534,o),
(1051,343,cs),
(1051,178,o),
(925,79,o),
(715,79,cs),
(528,79,o),
(374,207,o),
(374,345,cs),
(374,433,o),
(394,459,o),
(422,498,c),
(368,562,l),
(286,545,o),
(137,465,o),
(137,313,cs,{
name = hr01;
})
);
}
);
width = 1364;
}
);
unicode = 83;
}
{
glyphname = T;
layers = (
{
anchors = (
{
name = btm;
pos = (766,0);
},
{
name = top;
pos = (755,1530);
}
);
layerId = m001;
shapes = (
{
closed = 1;
nodes = (
(1133,0,l),
(1133,87,l),
(886,112,o),
(865,114,o),
(865,269,cs),
(865,1424,l),
(1034,1424,ls),
(1217,1424,o),
(1278,1394,o),
(1278,1273,cs),
(1278,1228,o),
(1270,1171,o),
(1257,1100,c),
(1353,1100,l),
(1458,1530,l),
(162,1530,l),
(50,1101,l),
(148,1101,l),
(160,1132,l),
(228,1298,o),
(277,1424,o),
(470,1424,cs),
(662,1424,l),
(662,269,ls),
(662,115,o),
(631,109,o),
(403,87,c),
(403,0,l,{
name = hr00;
})
);
}
);
width = 1533;
}
);
unicode = 84;
}
{
glyphname = U;
layers = (
{
anchors = (
{
name = btm;
pos = (849,0);
},
{
name = top;
pos = (862,1530);
}
);
guides = (
{
angle = 90;
pos = (862,0);
}
);
layerId = m001;
shapes = (
{
closed = 1;
nodes = (
(1323,223,o),
(1504,460,o),
(1504,1254,cs),
(1504,1403,o),
(1513,1426,o),
(1644,1443,c),
(1644,1530,l),
(1133,1530,l),
(1133,1443,l),
(1270,1430,o),
(1293,1396,o),
(1293,1274,cs),
(1293,585,o),
(1268,430,o),
(861,96,c),
(450,423,o),
(407,594,o),
(407,1274,cs),
(407,1396,o),
(429,1430,o),
(568,1443,c),
(568,1530,l),
(55,1530,l),
(55,1443,l),
(196,1431,o),
(196,1393,o),
(196,1254,cs),
(196,460,o),
(383,223,o),
(861,-47,c,{
name = hr00;
})
);
}
);
userData = {
com.typemytype.robofont.guides = (
{
angle = 90;
isGlobal = 0;
magnetic = 5;
x = 862;
y = 0;
}
);
};
width = 1700;
}
);
unicode = 85;
}
{
glyphname = V;
layers = (
{
anchors = (
{
name = btm;
pos = (765,0);
},
{
name = top;
pos = (786,1530);
}
);
guides = (
{
pos = (0,168);
}
);
layerId = m001;
shapes = (
{
closed = 1;
nodes = (
(812,-59,l),
(1359,1296,ls),
(1399,1395,o),
(1407,1431,o),
(1504,1443,c),
(1504,1530,l),
(1049,1530,l),
(1049,1443,l),
(1146,1443,o),
(1204,1434,o),
(1204,1370,cs),
(1204,1334,o),
(851,410,o),
(797,274,c),
(742,410,o),
(363,1375,o),
(363,1386,cs),
(363,1437,o),
(449,1441,o),
(528,1444,c),
(528,1531,l),
(26,1531,l),
(26,1444,l),
(123,1430,o),
(146,1394,o),
(181,1308,cs),
(742,-59,l,{
name = hr00;
})
);
}
);
userData = {
com.typemytype.robofont.guides = (
{
angle = 0;
isGlobal = 0;
magnetic = 5;
x = 0;
y = 168;
}
);
};
width = 1530;
}
);
unicode = 86;
}
{
glyphname = W;
layers = (
{
anchors = (
{
name = btm;
pos = (1111,0);
},
{
name = top;
pos = (1111,1530);
}
);
guides = (
{
pos = (0,1573);
},
{
angle = 90;
pos = (1383,0);
},
{
angle = 90;
pos = (1322,0);
},
{
angle = 90;
pos = (1112,0);
}
);
layerId = m001;
shapes = (
{
closed = 1;
nodes = (
(436,407,o),
(437,570,o),
(437,1273,cs),
(437,1405,o),
(442,1429,o),
(595,1443,c),
(595,1530,l),
(83,1530,l),
(83,1443,l),
(222,1425,o),
(228,1405,o),
(228,1250,cs),
(228,454,o),
(342,190,o),
(709,-80,c),
(909,86,o),
(1032,258,o),
(1112,493,c),
(1188,259,o),
(1320,87,o),
(1513,-80,c),
(1880,190,o),
(1993,454,o),
(1993,1250,cs),
(1993,1405,o),
(1996,1433,o),
(2139,1443,c),
(2139,1530,l),
(1628,1530,l),
(1628,1443,l),
(1779,1429,o),
(1784,1405,o),
(1784,1273,cs),
(1784,570,o),
(1785,407,o),
(1513,62,c),
(1235,386,o),
(1216,523,o),
(1216,1240,cs),
(1216,1405,o),
(1229,1425,o),
(1373,1443,c),
(1373,1530,l),
(850,1530,l),
(850,1443,l),
(995,1429,o),
(1005,1405,o),
(1005,1240,cs),
(1005,563,o),
(997,400,o),
(709,62,c,{
name = hr00;
})
);
}
);
userData = {
com.typemytype.robofont.guides = (
{
angle = 0;
isGlobal = 0;
magnetic = 5;
x = 0;
y = 1573;
},
{
angle = 90;
isGlobal = 0;
magnetic = 5;
x = 1383;
y = 0;
},
{
angle = 90;
isGlobal = 0;
magnetic = 5;
x = 1322;
y = 0;
},
{
angle = 90;
isGlobal = 0;
magnetic = 5;
x = 1112;
y = 0;
}
);
};
width = 2223;
}
);
unicode = 87;
}
{
glyphname = X;
layers = (
{
anchors = (
{
name = btm;
pos = (765,0);
},
{
name = top;
pos = (781,1530);
}
);
layerId = m001;
shapes = (
{
closed = 1;
nodes = (
(580,0,l),
(580,84,l),
(411,93,o),
(404,103,o),
(404,143,cs),
(404,204,o),
(469,509,o),
(755,720,c),
(1041,508,o),
(1095,205,o),
(1095,143,cs),
(1095,103,o),
(1088,93,o),
(951,84,c),
(951,0,l),
(1477,0,l),
(1477,84,l),
(1344,96,o),
(1341,98,o),
(1318,196,cs),
(1299,273,o),
(1238,550,o),
(867,779,c),
(1210,976,o),
(1279,1237,o),
(1296,1334,c),
(1322,1423,o),
(1329,1434,o),
(1466,1444,c),
(1466,1530,l),
(973,1530,l),
(973,1444,l),
(1082,1444,o),
(1105,1423,o),
(1105,1387,cs),
(1105,1329,o),
(1040,1024,o),
(755,843,c),
(484,1023,o),
(436,1329,o),
(436,1387,cs),
(436,1423,o),
(440,1444,o),
(580,1444,c),
(580,1530,l),
(54,1530,l),
(54,1444,l),
(182,1433,o),
(201,1423,o),
(224,1334,c),
(242,1237,o),
(300,976,o),
(644,777,c),
(299,552,o),
(229,277,o),
(213,196,c),
(188,108,o),
(182,95,o),
(54,84,c),
(54,0,l,{
name = hr00;
})
);
}
);
width = 1533;
}
);
unicode = 88;
}
{
glyphname = Y;
layers = (
{
anchors = (
{
name = btm;
pos = (765,0);
},
{
name = top;
pos = (765,1530);
}
);
guides = (
{
angle = 90;
pos = (766,0);
}
);
layerId = m001;
shapes = (
{
closed = 1;
nodes = (
(1072,0,l),
(1072,83,l),
(883,108,o),
(866,110,o),
(866,265,cs),
(866,512,l),
(1179,654,o),
(1313,907,o),
(1313,1255,cs),
(1313,1404,o),
(1322,1426,o),
(1453,1443,c),
(1453,1530,l),
(942,1530,l),
(942,1443,l),
(1079,1430,o),
(1112,1396,o),
(1112,1274,cs),
(1112,975,o),
(1092,767,o),
(766,599,c),
(439,767,o),
(418,975,o),
(418,1274,cs),
(418,1396,o),
(449,1430,o),
(589,1443,c),
(589,1530,l),
(77,1530,l),
(77,1443,l),
(217,1431,o),
(217,1393,o),
(217,1255,cs),
(217,906,o),
(351,652,o),
(665,512,c),
(665,265,ls),
(665,111,o),
(640,105,o),
(459,83,c),
(459,0,l,{
name = hr00;
})
);
}
);
userData = {
com.typemytype.robofont.guides = (
{
angle = 90;
isGlobal = 0;
magnetic = 5;
x = 766;
y = 0;
}
);
};
width = 1530;
}
);
unicode = 89;
}
{
glyphname = Z;
layers = (
{
anchors = (
{
name = btm;
pos = (682,0);
},
{
name = top;
pos = (728,1530);
}
);
layerId = m001;
shapes = (
{
closed = 1;
nodes = (
(109,0,l),
(1096,0,l),
(1127,0,o),
(1164,-26,o),
(1163,-78,c),
(1261,-78,l),
(1324,441,l),
(1227,441,l),
(1181,212,o),
(1156,123,o),
(919,123,c),
(389,123,l),
(1309,1471,l),
(1287,1530,l),
(349,1530,l),
(309,1530,o),
(283,1556,o),
(288,1611,c),
(195,1611,l),
(61,1101,l),
(161,1101,l),
(183,1161,l),
(241,1323,o),
(271,1409,o),
(454,1409,c),
(1019,1409,l),
(86,61,l,{
name = hr00;
})
);
}
);
width = 1364;
}
);
unicode = 90;
}
{
glyphname = bracketleft;
layers = (
{
layerId = m001;
shapes = (
{
closed = 1;
nodes = (
(662,-150,l),
(662,-43,l),
(483,-43,l),
(412,-43,o),
(382,1,o),
(382,64,c),
(382,1620,l),
(382,1678,o),
(421,1714,o),
(476,1714,c),
(662,1714,l),
(662,1817,l),
(200,1817,l),
(200,-150,l,{
name = hr00;
})
);
}
);
width = 848;
}
);
unicode = 91;
}
{
glyphname = backslash;
layers = (
{
layerId = m001;
shapes = (
{
closed = 1;
nodes = (
(779,-30,l),
(223,1658,l),
(69,1658,l),
(627,-30,l,{
name = hr00;
})
);
}
);
width = 848;
}
);
unicode = 92;
}
{
glyphname = asciicircum;
layers = (
{
layerId = m001;
shapes = (
{
closed = 1;
nodes = (
(684,1317,l),
(695,1317,l),
(1090,580,l),
(1232,651,l),
(745,1653,l),
(624,1653,l),
(137,651,l),
(279,580,l,{
name = hr00;
})
);
}
);
width = 1360;
}
);
unicode = 94;
}
{
glyphname = underscore;
layers = (
{
layerId = m001;
shapes = (
{
closed = 1;
nodes = (
(-12,-312,l),
(1200,-312,l),
(1200,-194,l),
(-12,-194,l,{
name = hr00;
})
);
}
);
width = 1189;
}
);
unicode = 95;
}
{
glyphname = grave;
layers = (
{
anchors = (
{
name = _top;
pos = (482,1530);
}
);
layerId = m001;
shapes = (
{
closed = 1;
nodes = (
(636,1404,l),
(383,1870,l),
(182,1736,l),
(547,1349,l,{
name = hr00;
})
);
}
);
width = 850;
}
);
unicode = 96;
}
{
glyphname = a;
layers = (
{
anchors = (
{
name = btm;
pos = (735,0);
},
{
name = top;
pos = (689,1530);
}
);
guides = (
{
angle = 90;
pos = (583,0);
}
);
layerId = m001;
shapes = (
{
closed = 1;
nodes = (
(169,137,o),
(291,-26,o),
(592,-26,cs),
(682,-26,o),
(769,-19,o),
(849,-12,cs),
(920,-6,o),
(989,0,o),
(1053,0,cs),
(1301,0,l),
(1301,84,l),
(1160,98,o),
(1141,108,o),
(1141,266,cs),
(1141,893,ls),
(1141,1094,o),
(1005,1228,o),
(690,1228,cs),
(405,1228,o),
(209,1112,o),
(209,971,cs),
(209,882,o),
(321,826,o),
(399,812,c),
(467,853,l),
(451,877,o),
(429,911,o),
(429,953,cs),
(429,1054,o),
(526,1123,o),
(662,1123,cs),
(855,1123,o),
(939,1048,o),
(939,915,cs),
(939,740,l),
(372,729,o),
(169,467,o),
(169,303,cs,{
name = hr00;
})
);
},
{
closed = 1;
nodes = (
(398,544,o),
(664,620,o),
(939,636,c),
(939,282,ls),
(939,120,o),
(905,83,o),
(671,83,cs),
(507,83,o),
(398,160,o),
(398,303,cs)
);
}
);
userData = {
com.typemytype.robofont.guides = (
{
angle = 90;
isGlobal = 0;
magnetic = 5;
x = 583;
y = 0;
}
);
};
width = 1360;
}
);
unicode = 97;
}
{
glyphname = b;
layers = (
{
anchors = (
{
name = btm;
pos = (713,0);
},
{
name = top;
pos = (904,1530);
}
);
layerId = m001;
shapes = (
{
closed = 1;
nodes = (
(361,0,l),
(408,0,o),
(475,-7,o),
(540,-14,cs),
(615,-22,o),
(697,-30,o),
(764,-30,cs,{
name = hr02;
}),
(1130,-30,o),
(1325,298,o),
(1325,621,cs),
(1325,937,o),
(1146,1245,o),
(821,1245,cs),
(694,1245,o),
(557,1191,o),
(478,1105,c),
(478,1475,l),
(478,1614,o),
(516,1613,o),
(650,1627,c),
(650,1710,l),
(101,1710,l),
(101,1627,l),
(237,1615,o),
(274,1612,o),
(274,1475,c),
(274,249,l),
(274,122,o),
(259,97,o),
(101,83,c,{
name = hr03;
}),
(101,0,l,{
name = hr01;
})
);
},
{
closed = 1;
nodes = (
(478,849,l),
(478,1003,o),
(637,1128,o),
(812,1128,cs,{
name = hr04;
}),
(1031,1128,o),
(1100,860,o),
(1100,621,cs),
(1100,338,o),
(1004,86,o),
(768,86,cs),
(526,86,o),
(478,183,o),
(478,293,c)
);
}
);
width = 1362;
}
);
unicode = 98;
}
{
glyphname = c;
layers = (
{
anchors = (
{
name = btm;
pos = (616,0);
},
{
name = top;
pos = (647,1530);
}
);
layerId = m001;
shapes = (
{
closed = 1;
nodes = (
(85,279,o),
(278,-24,o),
(638,-24,cs),
(814,-24,o),
(997,58,o),
(1095,178,c),
(1038,233,l),
(939,156,o),
(820,104,o),
(673,104,cs),
(395,104,o),
(313,363,o),
(313,606,cs),
(313,877,o),
(402,1139,o),
(657,1139,cs,{
name = hr02;
}),
(865,1139,o),
(957,1018,o),
(988,838,c),
(1071,838,l,{
name = hr03;
}),
(1071,1266,l),
(992,1266,l),
(984,1225,o),
(964,1198,o),
(915,1185,c),
(915,1185,o),
(895,1192,o),
(874,1200,cs),
(859,1206,o),
(839,1213,o),
(819,1220,c),
(758,1237,o),
(699,1245,o),
(642,1245,cs),
(281,1245,o),
(85,954,o),
(85,608,cs,{
name = hr01;
})
);
}
);
width = 1195;
}
);
unicode = 99;
}
{
glyphname = d;
layers = (
{
anchors = (
{
name = btm;
pos = (678,0);
},
{
name = top;
pos = (1131,1530);
}
);
guides = (
{
angle = 90;
pos = (1226,0);
},
{
angle = 90;
pos = (1004,0);
}
);
layerId = m001;
shapes = (
{
closed = 1;
nodes = (
(123,294,o),
(326,-24,o),
(670,-24,cs),
(1012,-24,o),
(1233,254,o),
(1233,703,cs),
(1233,1232,o),
(977,1712,o),
(334,1806,c),
(313,1718,l),
(628,1649,o),
(834,1452,o),
(934,1155,c),
(864,1207,o),
(761,1237,o),
(664,1237,cs),
(303,1237,o),
(123,919,o),
(123,606,cs,{
name = hr00;
})
);
},
{
closed = 1;
nodes = (
(426,87,o),
(352,364,o),
(352,603,cs),
(352,870,o),
(422,1129,o),
(683,1129,cs),
(918,1129,o),
(1005,945,o),
(1005,678,cs),
(1005,343,o),
(950,87,o),
(673,87,cs)
);
}
);
userData = {
com.typemytype.robofont.guides = (
{
angle = 90;
isGlobal = 0;
magnetic = 5;
x = 1226;
y = 0;
},
{
angle = 90;
isGlobal = 0;
magnetic = 5;
x = 1004;
y = 0;
}
);
};
width = 1363;
}
);
unicode = 100;
}
{
glyphname = e;
layers = (
{
anchors = (
{
name = btm;
pos = (584,0);
},
{
name = top;
pos = (658,1530);
}
);
guides = (
{
pos = (0,1015);
},
{
angle = 90;
pos = (1002,0);
},
{
angle = 90;
pos = (693,0);
}
);
layerId = m001;
shapes = (
{
closed = 1;
nodes = (
(101,234,o),
(299,-20,o),
(657,-20,cs),
(844,-20,o),
(978,38,o),
(1068,149,c),
(1011,206,l),
(926,133,o),
(814,110,o),
(689,110,cs),
(425,110,o),
(338,302,o),
(319,519,c),
(871,523,o),
(1061,742,o),
(1061,942,cs),
(1061,1111,o),
(923,1228,o),
(665,1228,cs),
(337,1228,o),
(101,960,o),
(101,587,cs,{
name = hr00;
})
);
},
{
closed = 1;
nodes = (
(321,861,o),
(426,1121,o),
(644,1121,cs),
(807,1121,o),
(844,1020,o),
(844,944,cs),
(844,706,o),
(572,632,o),
(316,626,c)
);
}
);
userData = {
com.typemytype.robofont.guides = (
{
angle = 0;
isGlobal = 0;
magnetic = 5;
x = 0;
y = 1015;
},
{
angle = 90;
isGlobal = 0;
magnetic = 5;
x = 1002;
y = 0;
},
{
angle = 90;
isGlobal = 0;
magnetic = 5;
x = 693;
y = 0;
}
);
};
width = 1195;
}
);
unicode = 101;
}
{
glyphname = f;
layers = (
{
anchors = (
{
name = btm;
pos = (496,0);
},
{
name = top;
pos = (496,1530);
}
);
guides = (
{
pos = (0,2044);
},
{
pos = (0,1854);
}
);
layerId = m001;
shapes = (
{
closed = 1;
nodes = (
(724,0,l),
(724,85,l),
(507,100,o),
(476,113,o),
(476,252,c),
(476,1086,l),
(813,1086,l),
(813,1208,l),
(474,1208,l),
(474,1397,ls),
(474,1595,o),
(566,1665,o),
(772,1692,cs),
(894,1708,l),
(885,1815,l),
(768,1815,ls),
(455,1815,o),
(275,1707,o),
(275,1350,c),
(275,1294,l),
(275,1223,o),
(247,1199,o),
(106,1179,c),
(106,1086,l),
(273,1086,l),
(273,231,l),
(273,118,o),
(250,96,o),
(98,85,c),
(98,0,l,{
name = hr00;
})
);
}
);
userData = {
com.typemytype.robofont.guides = (
{
angle = 0;
isGlobal = 0;
magnetic = 5;
x = 0;
y = 2044;
},
{
angle = 0;
isGlobal = 0;
magnetic = 5;
x = 0;
y = 1854;
}
);
};
width = 854;
}
);
unicode = 102;
}
{
glyphname = g;
layers = (
{
anchors = (
{
name = btm;
pos = (703,0);
},
{
name = top;
pos = (670,1530);
}
);
guides = (
{
pos = (0,1229);
},
{
angle = 90;
pos = (169,0);
}
);
layerId = m001;
shapes = (
{
closed = 1;
nodes = (
(322,-527,l),
(400,-566,o),
(488,-587,o),
(575,-587,cs),
(942,-587,o),
(1135,-273,o),
(1135,51,c),
(1135,958,l,{
name = hr02;
}),
(1135,1086,o),
(1150,1114,o),
(1307,1124,c),
(1307,1209,l),
(1048,1209,l),
(1001,1209,o),
(942,1214,o),
(882,1218,cs,{
name = hr03;
}),
(814,1223,o),
(742,1228,o),
(674,1228,cs),
(279,1228,o),
(99,912,o),
(99,588,cs),
(99,271,o),
(262,-24,o),
(618,-24,cs),
(744,-24,o),
(850,28,o),
(931,114,c),
(931,49,l),
(931,-200,o),
(845,-453,o),
(551,-453,cs),
(484,-453,o),
(418,-442,o),
(361,-419,c,{
name = hr01;
})
);
},
{
closed = 1;
nodes = (
(373,87,o),
(326,349,o),
(326,588,cs),
(326,871,o),
(401,1120,o),
(670,1120,cs),
(913,1120,o),
(931,1025,o),
(931,916,c),
(931,371,l),
(931,216,o),
(801,87,o),
(626,87,cs)
);
}
);
userData = {
com.typemytype.robofont.guides = (
{
angle = 0;
isGlobal = 0;
magnetic = 5;
x = 0;
y = 1229;
},
{
angle = 90;
isGlobal = 0;
magnetic = 5;
x = 169;
y = 0;
}
);
};
width = 1364;
}
);
unicode = 103;
}
{
glyphname = i;
layers = (
{
anchors = (
{
name = btm;
pos = (358,0);
},
{
name = top;
pos = (350,1530);
}
);
guides = (
{
angle = 90;
pos = (300,0);
},
{
angle = 90;
pos = (539,0);
}
);
layerId = m001;
shapes = (
{
closed = 1;
nodes = (
(528,1607,l),
(350,1786,l,{
name = hr02;
}),
(168,1607,l),
(350,1426,l,{
name = hr01;
})
);
},
{
closed = 1;
nodes = (
(632,0,l,{
name = hr03;
}),
(632,83,l),
(593,89,l),
(475,108,o),
(460,111,o),
(460,266,c),
(460,944,l),
(460,1104,o),
(481,1107,o),
(632,1122,c),
(632,1208,l),
(85,1208,l),
(85,1122,l),
(237,1110,o),
(258,1100,o),
(258,944,c),
(258,266,l),
(258,110,o),
(236,104,o),
(120,88,c,{
name = hr04;
}),
(85,83,l),
(85,0,l)
);
}
);
userData = {
com.typemytype.robofont.guides = (
{
angle = 90;
isGlobal = 0;
magnetic = 5;
x = 300;
y = 0;
},
{
angle = 90;
isGlobal = 0;
magnetic = 5;
x = 539;
y = 0;
}
);
};
width = 680;
}
);
unicode = 105;
}
{
glyphname = k;
layers = (
{
anchors = (
{
name = btm;
pos = (735,0);
},
{
name = top;
pos = (735,1530);
}
);
layerId = m001;
shapes = (
{
closed = 1;
nodes = (
(628,0,l),
(628,83,l),
(590,89,ls),
(470,108,o),
(455,110,o),
(455,266,cs),
(455,1448,ls),
(455,1607,o),
(477,1610,o),
(628,1625,c),
(628,1710,l),
(80,1710,l),
(80,1625,l),
(232,1612,o),
(252,1602,o),
(252,1448,cs),
(252,266,ls),
(252,111,o),
(231,105,o),
(114,88,cs),
(80,83,l),
(80,0,l,{
name = hr00;
})
);
},
{
closed = 1;
nodes = (
(1322,-222,l),
(1390,-165,l),
(777,689,l),
(1083,999,ls),
(1159,1076,o),
(1258,1117,o),
(1359,1128,c),
(1359,1209,l),
(829,1209,l),
(829,1122,l),
(882,1121,o),
(945,1119,o),
(945,1074,cs),
(945,1055,o),
(910,1021,o),
(876,988,cs),
(525,650,l)
);
}
);
width = 1364;
}
);
unicode = 107;
}
{
glyphname = l;
layers = (
{
anchors = (
{
name = btm;
pos = (377,0);
},
{
name = top;
pos = (367,1626);
}
);
layerId = m001;
shapes = (
{
closed = 1;
nodes = (
(666,0,l),
(666,83,l),
(618,90,l),
(504,107,o),
(464,115,o),
(464,265,cs),
(464,1730,l),
(89,1730,l),
(89,1645,l),
(241,1632,o),
(262,1622,o),
(262,1468,cs),
(262,265,ls),
(262,110,o),
(240,104,o),
(124,88,c),
(89,83,l),
(89,0,l,{
name = hr00;
})
);
}
);
width = 686;
}
);
unicode = 108;
}
{
glyphname = m;
layers = (
{
anchors = (
{
name = btm;
pos = (1163,0);
},
{
name = top;
pos = (1163,1530);
}
);
guides = (
{
angle = 90;
pos = (1854,0);
}
);
layerId = m001;
shapes = (
{
closed = 1;
nodes = (
(693,0,l),
(693,83,l),
(667,86,l),
(535,105,o),
(520,110,o),
(520,292,cs),
(520,631,ls),
(520,912,o),
(661,1060,o),
(816,1159,c),
(1033,975,o),
(1059,799,o),
(1059,397,cs),
(1059,276,ls),
(1059,97,o),
(1038,103,o),
(887,83,c),
(887,0,l),
(1435,0,l),
(1435,83,l),
(1408,87,ls),
(1290,104,o),
(1262,110,o),
(1262,256,cs),
(1262,769,o),
(1289,956,o),
(1533,1160,c),
(1767,951,o),
(1809,805,o),
(1807,433,cs),
(1806,282,ls),
(1805,97,o),
(1784,103,o),
(1633,83,c),
(1633,0,l),
(2180,0,l),
(2180,83,l),
(2142,88,ls),
(2036,103,o),
(2012,111,o),
(2012,301,cs),
(2012,902,o),
(1900,1097,o),
(1533,1302,c),
(1359,1194,o),
(1244,1088,o),
(1169,937,c),
(1101,1102,o),
(991,1206,o),
(826,1300,c),
(660,1214,o),
(576,1119,o),
(520,1000,c),
(520,1208,l),
(147,1208,l),
(147,1122,l),
(298,1111,o),
(317,1095,o),
(317,973,cs),
(317,260,ls),
(317,109,o),
(296,104,o),
(175,87,cs),
(147,83,l),
(147,0,l,{
name = hr00;
})
);
}
);
userData = {
com.typemytype.robofont.guides = (
{
angle = 90;
isGlobal = 0;
magnetic = 5;
x = 1854;
y = 0;
}
);
};
width = 2213;
}
);
unicode = 109;
}
{
glyphname = n;
layers = (
{
anchors = (
{
name = btm;
pos = (827,0);
},
{
name = top;
pos = (850,1530);
}
);
guides = (
{
pos = (0,82);
},
{
angle = 90;
pos = (482,0);
}
);
layerId = m001;
shapes = (
{
closed = 1;
nodes = (
(699,0,l),
(699,83,l),
(673,86,l),
(541,105,o),
(526,110,o),
(526,292,cs),
(526,631,ls),
(526,912,o),
(683,1060,o),
(842,1159,c),
(1079,972,o),
(1097,807,o),
(1097,398,cs),
(1097,282,ls),
(1097,97,o),
(1076,103,o),
(925,83,c),
(925,0,l),
(1472,0,l),
(1472,83,l),
(1458,85,o),
(1443,86,o),
(1432,88,cs),
(1319,104,o),
(1306,106,o),
(1306,301,cs),
(1306,905,o),
(1184,1125,o),
(852,1300,c),
(681,1214,o),
(585,1116,o),
(526,1000,c),
(526,1208,l),
(152,1208,l),
(152,1122,l),
(304,1111,o),
(323,1095,o),
(323,973,cs),
(323,260,ls),
(323,110,o),
(303,104,o),
(183,87,cs),
(175,86,o),
(163,85,o),
(154,83,c),
(152,82,l),
(152,0,l,{
name = hr00;
})
);
}
);
userData = {
com.typemytype.robofont.guides = (
{
angle = 0;
isGlobal = 0;
magnetic = 5;
x = 0;
y = 82;
},
{
angle = 90;
isGlobal = 0;
magnetic = 5;
x = 482;
y = 0;
}
);
};
width = 1538;
}
);
unicode = 110;
}
{
glyphname = o;
layers = (
{
anchors = (
{
name = btm;
pos = (681,0);
},
{
name = top;
pos = (681,1530);
}
);
guides = (
{
pos = (0,610);
},
{
angle = 90;
pos = (117,0);
},
{
angle = 90;
pos = (1258,0);
},
{
angle = 90;
pos = (681,0);
}
);
layerId = m001;
shapes = (
{
closed = 1;
nodes = (
(121,296,o),
(306,-24,o),
(680,-24,cs),
(1051,-24,o),
(1241,288,o),
(1241,609,cs),
(1241,927,o),
(1051,1228,o),
(680,1228,cs),
(310,1228,o),
(121,927,o),
(121,609,cs,{
name = hr00;
})
);
},
{
closed = 1;
nodes = (
(411,87,o),
(349,368,o),
(349,609,cs),
(349,850,o),
(413,1120,o),
(682,1120,cs),
(951,1120,o),
(1016,861,o),
(1016,609,cs),
(1016,365,o),
(951,87,o),
(682,87,cs)
);
}
);
userData = {
com.typemytype.robofont.guides = (
{
angle = 0;
isGlobal = 0;
magnetic = 5;
x = 0;
y = 610;
},
{
angle = 90;
isGlobal = 0;
magnetic = 5;
x = 117;
y = 0;
},
{
angle = 90;
isGlobal = 0;
magnetic = 5;
x = 1258;
y = 0;
},
{
angle = 90;
isGlobal = 0;
magnetic = 5;
x = 681;
y = 0;
}
);
};
width = 1364;
}
);
unicode = 111;
}
{
glyphname = p;
layers = (
{
anchors = (
{
name = btm;
pos = (670,0);
},
{
name = top;
pos = (700,1530);
}
);
layerId = m001;
shapes = (
{
closed = 1;
nodes = (
(239,-468,o),
(205,-471,o),
(79,-483,c),
(77,-484,l),
(77,-566,l),
(637,-566,l),
(637,-483,l),
(486,-469,o),
(443,-470,o),
(443,-330,c),
(443,110,l),
(523,26,o),
(631,-24,o),
(756,-24,cs),
(1112,-24,o),
(1274,277,o),
(1274,594,cs),
(1274,918,o),
(1095,1228,o),
(699,1228,cs,{
name = hr02;
}),
(632,1228,o),
(560,1222,o),
(492,1217,cs),
(431,1212,o),
(374,1208,o),
(326,1208,c),
(66,1208,l),
(66,1125,l),
(224,1111,o),
(239,1087,o),
(239,959,c,{
name = hr03;
}),
(239,-330,ls,{
name = hr01;
})
);
},
{
closed = 1;
nodes = (
(443,916,l),
(443,1025,o),
(461,1122,o),
(703,1122,cs),
(973,1122,o),
(1048,877,o),
(1048,594,cs),
(1048,355,o),
(1001,87,o),
(748,87,cs),
(573,87,o),
(443,211,o),
(443,366,c)
);
}
);
width = 1364;
}
);
unicode = 112;
}
{
glyphname = q;
layers = (
{
anchors = (
{
name = btm;
pos = (745,0);
},
{
name = top;
pos = (691,1530);
}
);
guides = (
{
angle = 90;
pos = (956,0);
}
);
layerId = m001;
shapes = (
{
closed = 1;
nodes = (
(128,298,o),
(308,-25,o),
(666,-25,cs),
(815,-25,o),
(925,35,o),
(986,116,c),
(987,-338,ls),
(987,-456,o),
(962,-468,o),
(817,-481,c),
(815,-482,l),
(815,-566,l),
(1362,-566,l),
(1362,-481,l),
(1210,-467,o),
(1190,-449,o),
(1190,-349,cs),
(1190,713,ls),
(1190,1003,o),
(1020,1229,o),
(687,1229,cs),
(316,1229,o),
(128,932,o),
(128,615,cs,{
name = hr00;
})
);
},
{
closed = 1;
nodes = (
(415,93,o),
(356,368,o),
(356,612,cs),
(356,857,o),
(420,1121,o),
(689,1121,cs),
(924,1121,o),
(986,899,o),
(986,677,cs),
(986,378,l),
(986,176,o),
(808,93,o),
(678,93,cs)
);
}
);
userData = {
com.typemytype.robofont.guides = (
{
angle = 90;
isGlobal = 0;
magnetic = 5;
x = 956;
y = 0;
}
);
};
width = 1364;
}
);
unicode = 113;
}
{
glyphname = r;
layers = (
{
anchors = (
{
name = btm;
pos = (425,0);
},
{
name = top;
pos = (618,1530);
}
);
layerId = m001;
shapes = (
{
closed = 1;
nodes = (
(808,0,l),
(808,83,l),
(549,90,o),
(521,121,o),
(521,235,c),
(521,995,l),
(521,1080,o),
(586,1119,o),
(736,1119,cs),
(809,1119,o),
(893,1087,o),
(893,1009,cs),
(893,938,o),
(874,881,o),
(837,845,c),
(892,801,l),
(989,829,o),
(1096,926,o),
(1096,1039,cs),
(1096,1185,o),
(938,1228,o),
(764,1228,cs),
(711,1228,o),
(668,1224,o),
(619,1220,cs),
(557,1214,o),
(484,1208,o),
(369,1208,c),
(162,1208,l,{
name = hr02;
}),
(162,1123,l),
(299,1106,o),
(318,1079,o),
(318,936,c),
(318,243,l),
(318,116,o),
(300,99,o),
(142,83,c),
(140,82,l,{
name = hr03;
}),
(140,0,l,{
name = hr01;
})
);
}
);
width = 1195;
}
);
unicode = 114;
}
{
glyphname = s;
layers = (
{
anchors = (
{
name = btm;
pos = (622,0);
},
{
name = top;
pos = (652,1530);
}
);
layerId = m001;
shapes = (
{
closed = 1;
nodes = (
(159,81,o),
(398,-24,o),
(624,-24,cs),
(869,-24,o),
(1106,104,o),
(1106,326,cs),
(1106,500,o),
(931,583,o),
(739,676,cs),
(720,685,o),
(695,697,o),
(676,705,cs,{
name = hr02;
}),
(536,770,o),
(409,832,o),
(409,937,cs),
(409,1043,o),
(487,1121,o),
(635,1121,cs),
(768,1121,o),
(848,1066,o),
(848,993,cs),
(848,951,o),
(825,916,o),
(810,894,c),
(867,853,l),
(932,867,o),
(1025,929,o),
(1025,1012,cs),
(1025,1135,o),
(874,1228,o),
(666,1228,cs),
(404,1228,o),
(214,1112,o),
(214,914,cs,{
name = hr03;
}),
(214,745,o),
(375,644,o),
(571,551,c),
(580,548,o),
(594,542,o),
(603,538,cs),
(771,468,o),
(905,410,o),
(905,293,cs),
(905,168,o),
(805,87,o),
(630,87,cs),
(463,87,o),
(361,187,o),
(361,271,cs),
(361,330,o),
(373,364,o),
(399,397,c),
(355,448,l),
(263,426,o),
(167,352,o),
(164,251,cs,{
name = hr01;
})
);
}
);
width = 1190;
}
);
unicode = 115;
}
{
glyphname = t;
layers = (
{
anchors = (
{
name = btm;
pos = (488,0);
},
{
name = top;
pos = (680,1530);
}
);
layerId = m001;
shapes = (
{
closed = 1;
nodes = (
(795,0,l),
(795,93,l),
(518,99,o),
(493,105,o),
(493,279,c),
(493,1086,l),
(855,1086,l),
(855,1208,l),
(493,1208,l),
(493,1568,l),
(348,1508,l),
(337,1378,o),
(302,1239,o),
(288,1221,c),
(289,1221,l),
(269,1199,o),
(121,1178,o),
(121,1178,c),
(121,1086,l),
(292,1086,l),
(292,276,l),
(292,107,o),
(280,109,o),
(159,83,c),
(159,0,l,{
name = hr00;
})
);
}
);
width = 856;
}
);
unicode = 116;
}
{
glyphname = u;
layers = (
{
anchors = (
{
name = btm;
pos = (679,0);
},
{
name = top;
pos = (679,1530);
}
);
layerId = m001;
shapes = (
{
closed = 1;
nodes = (
(1029,157,o),
(1162,321,o),
(1162,933,cs),
(1162,1083,o),
(1170,1104,o),
(1301,1122,c),
(1301,1208,l),
(811,1208,l),
(811,1122,l),
(948,1109,o),
(961,1075,o),
(961,953,cs),
(961,451,o),
(932,328,o),
(680,90,c),
(429,328,o),
(399,451,o),
(399,953,cs),
(399,1075,o),
(411,1109,o),
(550,1122,c),
(550,1208,l),
(58,1208,l),
(58,1122,l),
(198,1110,o),
(198,1072,o),
(198,933,cs),
(198,321,o),
(331,157,o),
(680,-52,c,{
name = hr00;
})
);
}
);
width = 1361;
}
);
unicode = 117;
}
{
glyphname = v;
layers = (
{
anchors = (
{
name = btm;
pos = (596,0);
},
{
name = top;
pos = (630,1530);
}
);
layerId = m001;
shapes = (
{
closed = 1;
nodes = (
(641,-45,l),
(774,291,o),
(914,640,o),
(1048,975,cs),
(1091,1084,o),
(1143,1124,o),
(1204,1124,c),
(1204,1208,l),
(765,1208,l),
(765,1122,l),
(837,1122,o),
(893,1112,o),
(893,1049,cs),
(893,1012,o),
(881,978,o),
(865,936,cs),
(625,303,l),
(360,1010,ls),
(352,1032,o),
(348,1050,o),
(348,1064,cs),
(348,1119,o),
(404,1119,o),
(477,1122,c),
(477,1208,l),
(-12,1208,l),
(-12,1124,l),
(98,1109,o),
(124,1078,o),
(173,954,cs),
(568,-45,l,{
name = hr00;
})
);
}
);
width = 1191;
}
);
unicode = 118;
}
{
glyphname = w;
layers = (
{
anchors = (
{
name = btm;
pos = (1025,0);
},
{
name = top;
pos = (1025,1530);
}
);
layerId = m001;
shapes = (
{
closed = 1;
nodes = (
(425,300,o),
(407,447,o),
(407,951,cs),
(407,1073,o),
(411,1110,o),
(565,1124,c),
(565,1208,l),
(64,1208,l),
(64,1124,l),
(203,1105,o),
(210,1086,o),
(210,928,cs),
(210,319,o),
(318,127,o),
(666,-81,c),
(845,34,o),
(955,154,o),
(1026,320,c),
(1093,154,o),
(1211,34,o),
(1384,-81,c),
(1732,127,o),
(1840,320,o),
(1840,928,cs),
(1840,1005,o),
(1850,1070,o),
(1864,1085,cs),
(1881,1105,o),
(1924,1116,o),
(1986,1124,c),
(1986,1208,l),
(1485,1208,l),
(1485,1124,l),
(1638,1110,o),
(1642,1082,o),
(1642,951,cs),
(1642,447,o),
(1624,300,o),
(1384,60,c),
(1153,285,o),
(1124,394,o),
(1124,917,cs),
(1124,1100,o),
(1137,1105,o),
(1282,1124,c),
(1282,1208,l),
(769,1208,l),
(769,1124,l),
(914,1110,o),
(925,1091,o),
(925,917,cs),
(925,433,o),
(912,299,o),
(666,60,c,{
name = hr00;
})
);
}
);
width = 2050;
}
);
unicode = 119;
}
{
glyphname = x;
layers = (
{
anchors = (
{
name = btm;
pos = (720,0);
},
{
name = top;
pos = (744,1530);
}
);
layerId = m001;
shapes = (
{
closed = 1;
nodes = (
(605,0,l),
(605,82,l),
(436,92,o),
(429,113,o),
(429,158,cs),
(429,202,o),
(496,417,o),
(717,559,c),
(912,417,o),
(958,202,o),
(958,158,cs),
(958,113,o),
(951,92,o),
(814,82,c),
(814,0,l),
(1339,0,l),
(1339,82,l),
(1208,95,o),
(1209,107,o),
(1181,215,cs),
(1141,368,o),
(1043,504,o),
(842,624,c),
(1036,741,o),
(1115,862,o),
(1159,993,c),
(1166,1015,l),
(1191,1091,o),
(1203,1113,o),
(1328,1126,c),
(1328,1208,l),
(857,1208,l),
(857,1126,l),
(984,1116,o),
(990,1095,o),
(990,1050,cs),
(990,1010,o),
(931,819,o),
(717,693,c),
(536,820,o),
(483,1010,o),
(483,1050,cs),
(483,1095,o),
(479,1116,o),
(627,1126,c),
(627,1208,l),
(101,1208,l),
(101,1126,l),
(233,1113,o),
(242,1101,o),
(271,993,cs),
(309,854,o),
(394,741,o),
(596,623,c),
(419,509,o),
(310,368,o),
(260,215,c),
(254,195,l),
(228,106,o),
(225,94,o),
(101,82,c),
(101,0,l,{
name = hr00;
})
);
}
);
width = 1364;
}
);
unicode = 120;
}
{
glyphname = y;
layers = (
{
anchors = (
{
name = btm;
pos = (673,0);
},
{
name = top;
pos = (680,1530);
}
);
guides = (
{
pos = (0,120);
},
{
pos = (0,1551);
},
{
pos = (0,1125);
},
{
angle = 90;
pos = (947,0);
},
{
angle = 90;
pos = (1144,0);
},
{
angle = 90;
pos = (2438,0);
},
{
angle = 90;
pos = (2634,0);
},
{
angle = 90;
pos = (1673,0);
}
);
layerId = m001;
shapes = (
{
closed = 1;
nodes = (
(778,-25,o),
(884,73,o),
(954,183,c),
(921,-201,o),
(790,-403,o),
(465,-482,c),
(486,-587,l),
(1045,-500,o),
(1159,-69,o),
(1159,461,c),
(1159,908,l),
(1159,1087,o),
(1184,1112,o),
(1298,1122,c),
(1300,1123,l),
(1300,1208,l),
(797,1208,l),
(797,1122,l),
(821,1119,l),
(941,1102,o),
(956,1100,o),
(956,916,c),
(956,578,l),
(956,296,o),
(809,149,o),
(649,49,c),
(413,237,o),
(395,401,o),
(395,810,c),
(395,926,l),
(395,1100,o),
(410,1103,o),
(529,1119,c),
(554,1122,l),
(554,1208,l),
(50,1208,l),
(50,1122,l),
(167,1112,o),
(186,1087,o),
(186,907,cs),
(186,303,o),
(308,83,o),
(640,-92,c,{
name = hr00;
})
);
}
);
userData = {
com.typemytype.robofont.guides = (
{
angle = 0;
isGlobal = 0;
magnetic = 5;
x = 0;
y = 120;
},
{
angle = 0;
isGlobal = 0;
magnetic = 5;
x = 0;
y = 1551;
},
{
angle = 0;
isGlobal = 0;
magnetic = 5;
x = 0;
y = 1125;
},
{
angle = 90;
isGlobal = 0;
magnetic = 5;
x = 947;
y = 0;
},
{
angle = 90;
isGlobal = 0;
magnetic = 5;
x = 1144;
y = 0;
},
{
angle = 90;
isGlobal = 0;
magnetic = 5;
x = 2438;
y = 0;
},
{
angle = 90;
isGlobal = 0;
magnetic = 5;
x = 2634;
y = 0;
},
{
angle = 90;
isGlobal = 0;
magnetic = 5;
x = 1673;
y = 0;
}
);
};
width = 1361;
}
);
unicode = 121;
}
{
glyphname = z;
layers = (
{
anchors = (
{
name = btm;
pos = (634,0);
},
{
name = top;
pos = (651,1530);
}
);
layerId = m001;
shapes = (
{
closed = 1;
nodes = (
(132,0,l),
(934,0,l),
(968,0,o),
(1001,-17,o),
(1006,-51,c),
(1104,-51,l),
(1158,344,l),
(1061,344,l),
(1012,191,o),
(979,123,o),
(772,123,c),
(400,123,l,{
name = hr02;
}),
(1134,1145,l,{
name = hr03;
}),
(1112,1208,l),
(407,1208,l,{
name = hr04;
}),
(353,1208,o),
(331,1226,o),
(325,1259,c),
(230,1259,l),
(126,859,l),
(225,859,l,{
name = hr05;
}),
(285,998,o),
(314,1086,o),
(491,1086,c),
(854,1086,l),
(110,63,l,{
name = hr01;
})
);
}
);
width = 1193;
}
);
unicode = 122;
}
{
glyphname = braceleft;
layers = (
{
guides = (
{
angle = 90;
pos = (916,0);
}
);
layerId = m001;
shapes = (
{
closed = 1;
nodes = (
(423,-63,o),
(609,-166,o),
(867,-166,c),
(868,-74,l),
(682,-48,o),
(617,24,o),
(618,220,c),
(619,402,l),
(620,668,o),
(513,792,o),
(352,836,c),
(513,881,o),
(620,1003,o),
(619,1270,c),
(618,1453,l),
(617,1648,o),
(683,1720,o),
(868,1746,c),
(867,1838,l),
(609,1838,o),
(423,1735,o),
(423,1373,c),
(423,1201,l),
(423,998,o),
(329,913,o),
(143,897,c),
(143,776,l),
(329,759,o),
(423,674,o),
(423,471,c),
(423,300,ls,{
name = hr00;
})
);
}
);
userData = {
com.typemytype.robofont.guides = (
{
angle = 90;
isGlobal = 0;
magnetic = 5;
x = 916;
y = 0;
}
);
};
width = 1022;
}
);
unicode = 123;
}
{
glyphname = bar;
layers = (
{
layerId = m001;
shapes = (
{
closed = 1;
nodes = (
(327,-193,l),
(327,1909,l),
(182,1909,l),
(182,-193,l,{
name = hr00;
})
);
}
);
width = 510;
}
);
unicode = 124;
}
{
glyphname = asciitilde;
layers = (
{
layerId = m001;
shapes = (
{
closed = 1;
nodes = (
(264,764,o),
(337,813,o),
(447,813,cs),
(481,813,o),
(519,799,o),
(554,782,c),
(624,749,l,{
name = hr02;
}),
(691,716,o),
(768,678,o),
(860,678,cs),
(1058,678,o),
(1167,814,o),
(1238,939,c),
(1166,993,l),
(1106,907,o),
(1022,846,o),
(913,846,cs),
(870,846,o),
(808,873,o),
(772,890,c),
(701,922,l,{
name = hr03;
}),
(634,954,o),
(572,975,o),
(509,975,cs),
(311,975,o),
(202,858,o),
(131,730,c),
(202,676,l,{
name = hr01;
})
);
}
);
width = 1370;
}
);
unicode = 126;
}
{
glyphname = exclamdown;
layers = (
{
layerId = m001;
shapes = (
{
closed = 1;
nodes = (
(459,1539,l),
(278,1720,l),
(99,1539,l),
(278,1361,l,{
name = hr00;
})
);
},
{
closed = 1;
nodes = (
(283,-44,l),
(465,135,l),
(333,475,o),
(330,1253,o),
(330,1253,c),
(234,1253,l),
(234,1253,o),
(231,475,o),
(104,135,c)
);
}
);
width = 512;
}
);
unicode = 161;
}
{
glyphname = cent;
layers = (
{
layerId = m001;
shapes = (
{
closed = 1;
nodes = (
(604,-287,l),
(719,-295,l),
(746,-23,l),
(918,-19,o),
(1095,62,o),
(1191,179,c),
(1134,234,l),
(1035,157,o),
(916,105,o),
(769,105,cs,{
name = hr02;
}),
(758,105,l),
(859,1127,l),
(993,1092,o),
(1059,985,o),
(1084,839,c),
(1167,839,l),
(1167,1267,l),
(1088,1267,l,{
name = hr03;
}),
(1080,1226,o),
(1060,1199,o),
(1011,1186,c),
(1006,1187,o),
(932,1219,o),
(869,1232,c),
(895,1490,l),
(779,1498,l),
(754,1246,l),
(738,1246,ls,{
name = hr04;
}),
(377,1246,o),
(181,955,o),
(181,609,cs),
(181,313,o),
(337,38,o),
(631,-14,c,{
name = hr01;
})
);
},
{
closed = 1;
nodes = (
(465,192,o),
(409,405,o),
(409,607,cs),
(409,875,o),
(496,1134,o),
(744,1140,c),
(644,126,l)
);
}
);
width = 1360;
}
);
unicode = 162;
}
{
glyphname = sterling;
layers = (
{
layerId = m001;
shapes = (
{
closed = 1;
nodes = (
(1361,0,l,{
name = hr02;
}),
(1424,437,l),
(1323,437,l),
(1242,121,o),
(1135,110,o),
(848,110,cs),
(693,110,o),
(628,114,o),
(628,185,cs),
(628,237,o),
(665,299,o),
(665,550,cs),
(665,588,o),
(664,624,o),
(662,659,c),
(1043,659,l),
(1070,772,l),
(654,772,l),
(642,910,o),
(622,1027,o),
(622,1153,cs),
(622,1285,o),
(661,1452,o),
(869,1452,cs),
(1075,1452,o),
(1115,1270,o),
(1115,1124,cs),
(1115,1100,o),
(1113,1049,o),
(1110,1031,c),
(1216,1031,l,{
name = hr03;
}),
(1336,1560,l),
(1233,1560,l),
(1214,1520,o),
(1179,1495,o),
(1142,1495,cs),
(1094,1495,o),
(1008,1560,o),
(879,1560,cs),
(586,1560,o),
(406,1347,o),
(406,1045,cs),
(406,951,o),
(418,861,o),
(428,772,c),
(231,772,l),
(205,659,l),
(440,659,l),
(443,623,o),
(445,586,o),
(445,550,cs),
(445,255,o),
(401,130,o),
(127,83,c),
(127,0,l,{
name = hr01;
})
);
}
);
width = 1529;
}
);
unicode = 163;
}
{
glyphname = currency;
layers = (
{
layerId = m001;
shapes = (
{
closed = 1;
nodes = (
(278,177,l),
(509,416,l),
(574,366,o),
(660,335,o),
(766,335,cs),
(872,335,o),
(957,365,o),
(1023,415,c),
(1253,177,l),
(1333,257,l),
(1095,488,l),
(1145,559,o),
(1178,656,o),
(1178,745,cs),
(1178,836,o),
(1147,929,o),
(1094,1001,c),
(1333,1231,l),
(1253,1311,l),
(1021,1074,l),
(956,1123,o),
(871,1154,o),
(766,1154,cs),
(661,1154,o),
(576,1123,o),
(510,1073,c),
(278,1311,l),
(198,1231,l),
(267,1161,o),
(374,1065,o),
(437,1001,c),
(385,928,o),
(355,835,o),
(355,745,cs),
(355,655,o),
(385,561,o),
(436,489,c),
(198,257,l,{
name = hr00;
})
);
},
{
closed = 1;
nodes = (
(587,450,o),
(546,611,o),
(546,745,cs),
(546,879,o),
(589,1041,o),
(768,1041,cs),
(948,1041,o),
(991,885,o),
(991,745,cs),
(991,609,o),
(948,450,o),
(768,450,cs)
);
}
);
width = 1532;
}
);
unicode = 164;
}
{
glyphname = yen;
layers = (
{
layerId = m001;
shapes = (
{
closed = 1;
nodes = (
(748,338,l),
(748,266,ls),
(748,112,o),
(723,106,o),
(542,84,c),
(542,1,l),
(1155,1,l),
(1155,84,l),
(966,109,o),
(949,111,o),
(949,266,cs),
(949,338,l),
(1391,338,l),
(1418,451,l),
(949,451,l),
(949,639,l),
(1391,639,l),
(1418,752,l),
(1076,752,l),
(1273,853,o),
(1416,1010,o),
(1416,1256,cs),
(1416,1405,o),
(1425,1427,o),
(1556,1444,c),
(1556,1531,l),
(1045,1531,l),
(1045,1444,l),
(1182,1431,o),
(1215,1397,o),
(1215,1275,cs),
(1215,1040,o),
(1148,868,o),
(849,802,c),
(584,868,o),
(481,1040,o),
(481,1275,cs),
(481,1397,o),
(512,1431,o),
(652,1444,c),
(652,1531,l),
(140,1531,l),
(140,1444,l),
(280,1432,o),
(280,1394,o),
(280,1256,cs),
(280,1010,o),
(417,854,o),
(618,752,c),
(287,752,l),
(261,639,l),
(748,639,l),
(748,451,l),
(287,451,l),
(261,338,l,{
name = hr00;
})
);
}
);
width = 1701;
}
);
unicode = 165;
}
{
glyphname = brokenbar;
layers = (
{
layerId = m001;
shapes = (
{
closed = 1;
nodes = (
(327,1019,l),
(327,1911,l),
(182,1911,l),
(182,1019,l,{
name = hr00;
})
);
},
{
closed = 1;
nodes = (
(327,-191,l),
(327,697,l),
(182,697,l),
(182,-191,l)
);
}
);
width = 510;
}
);
unicode = 166;
}
{
glyphname = section;
layers = (
{
layerId = m001;
shapes = (
{
closed = 1;
nodes = (
(176,-255,o),
(372,-356,o),
(587,-356,cs,{
name = hr02;
}),
(816,-356,o),
(1007,-248,o),
(1007,-54,cs),
(1007,99,o),
(866,179,o),
(765,276,c),
(719,320,l,{
name = hr03;
}),
(730,317,o),
(742,317,o),
(754,317,cs),
(927,317,o),
(1042,450,o),
(1042,626,cs),
(1042,783,o),
(916,917,o),
(786,1026,c),
(592,1188,l),
(502,1261,o),
(381,1335,o),
(381,1457,cs),
(381,1552,o),
(465,1624,o),
(582,1624,cs,{
name = hr04;
}),
(720,1624,o),
(801,1543,o),
(801,1432,cs),
(801,1379,o),
(768,1322,o),
(733,1288,c),
(823,1260,l),
(896,1292,o),
(988,1351,o),
(988,1447,cs),
(988,1596,o),
(823,1707,o),
(609,1707,cs,{
name = hr05;
}),
(369,1707,o),
(197,1584,o),
(197,1403,cs),
(197,1218,o),
(343,1145,o),
(496,1013,c),
(496,1013,o),
(473,1017,o),
(461,1017,cs),
(294,1017,o),
(160,885,o),
(160,711,cs),
(160,558,o),
(280,413,o),
(400,313,c),
(460,262,l),
(330,173,o),
(176,89,o),
(176,-63,cs,{
name = hr01;
})
);
},
{
closed = 1;
nodes = (
(378,614,o),
(326,681,o),
(326,780,cs),
(326,865,o),
(393,929,o),
(474,929,cs),
(540,929,o),
(628,887,o),
(727,798,c),
(818,710,o),
(874,621,o),
(874,561,cs),
(874,472,o),
(809,406,o),
(723,406,cs),
(637,406,o),
(562,452,o),
(471,533,cs,{
name = hr07;
})
);
},
{
closed = 1;
nodes = (
(361,45,o),
(452,158,o),
(530,211,c),
(544,200,o),
(558,190,o),
(574,179,cs),
(672,109,o),
(823,24,o),
(823,-101,cs),
(823,-213,o),
(735,-277,o),
(598,-277,cs),
(428,-277,o),
(361,-175,o),
(361,-39,cs,{
name = hr08;
})
);
}
);
width = 1189;
}
);
unicode = 167;
}
{
glyphname = dieresis;
layers = (
{
anchors = (
{
name = _top;
pos = (510,1530);
}
);
guides = (
{
pos = (0,1938);
},
{
pos = (0,1463);
}
);
layerId = m001;
shapes = (
{
closed = 1;
nodes = (
(926,1612,l),
(747,1791,l),
(564,1612,l),
(747,1432,l,{
name = hr00;
})
);
},
{
closed = 1;
nodes = (
(456,1612,l),
(277,1791,l),
(94,1612,l),
(277,1432,l)
);
}
);
userData = {
com.typemytype.robofont.guides = (
{
angle = 0;
isGlobal = 0;
magnetic = 5;
x = 0;
y = 1938;
},
{
angle = 0;
isGlobal = 0;
magnetic = 5;
x = 0;
y = 1463;
}
);
};
width = 1020;
}
);
unicode = 168;
}
{
glyphname = copyright;
layers = (
{
layerId = m001;
shapes = (
{
closed = 1;
nodes = (
(74,220,o),
(431,-145,o),
(892,-145,cs),
(1350,-145,o),
(1705,220,o),
(1705,675,cs),
(1705,1131,o),
(1350,1500,o),
(892,1500,cs),
(431,1500,o),
(74,1131,o),
(74,675,cs,{
name = hr00;
})
);
},
{
closed = 1;
nodes = (
(183,1065,o),
(479,1407,o),
(892,1407,cs),
(1313,1407,o),
(1594,1067,o),
(1594,675,cs),
(1594,268,o),
(1297,-55,o),
(892,-55,cs),
(501,-55,o),
(183,288,o),
(183,675,cs)
);
},
{
closed = 1;
nodes = (
(422,400,o),
(585,161,o),
(898,161,cs),
(1045,161,o),
(1192,240,o),
(1268,359,c),
(1218,414,l),
(1122,313,o),
(1034,252,o),
(923,252,cs),
(709,252,o),
(627,469,o),
(627,661,cs),
(627,862,o),
(699,1102,o),
(914,1102,cs),
(1059,1102,o),
(1153,982,o),
(1138,834,c),
(1194,834,l),
(1281,1186,l),
(1224,1186,l),
(1209,1157,o),
(1169,1136,o),
(1151,1136,cs),
(1146,1136,o),
(1103,1144,o),
(1052,1162,cs),
(1002,1179,o),
(951,1186,o),
(900,1186,cs),
(593,1186,o),
(422,927,o),
(422,663,cs)
);
}
);
width = 1870;
}
);
unicode = 169;
}
{
glyphname = ordfeminine;
layers = (
{
layerId = m001;
shapes = (
{
closed = 1;
nodes = (
(570,773,o),
(626,777,o),
(677,782,cs),
(728,786,o),
(778,791,o),
(828,791,c),
(1027,791,l),
(1027,892,l),
(926,901,o),
(912,906,o),
(912,1001,c),
(912,1471,l),
(912,1626,o),
(815,1719,o),
(594,1719,cs),
(381,1719,o),
(236,1638,o),
(236,1525,cs),
(236,1450,o),
(319,1403,o),
(375,1390,c,{
name = hr02;
}),
(440,1437,l),
(422,1459,o),
(405,1489,o),
(405,1512,cs),
(405,1577,o),
(472,1619,o),
(565,1619,cs,{
name = hr03;
}),
(673,1619,o),
(726,1571,o),
(726,1486,c),
(726,1353,l),
(313,1339,o),
(162,1151,o),
(162,1028,cs),
(162,899,o),
(264,773,o),
(515,773,cs,{
name = hr01;
})
);
},
{
closed = 1;
nodes = (
(448,875,o),
(367,950,o),
(367,1028,cs),
(367,1185,o),
(540,1240,o),
(726,1253,c),
(726,1013,l),
(726,906,o),
(706,875,o),
(572,875,cs)
);
},
{
pos = (372,278);
ref = period;
}
);
width = 1189;
}
);
unicode = 170;
}
{
glyphname = guillemetleft;
layers = (
{
layerId = m001;
shapes = (
{
closed = 1;
nodes = (
(1327,95,l),
(1402,148,l),
(1045,651,l),
(1402,1156,l),
(1327,1209,l),
(715,651,l,{
name = hr00;
})
);
},
{
closed = 1;
nodes = (
(762,95,l),
(837,148,l),
(480,651,l),
(837,1156,l),
(762,1209,l),
(150,651,l)
);
}
);
width = 1533;
}
);
unicode = 171;
}
{
glyphname = logicalnot;
layers = (
{
layerId = m001;
shapes = (
{
closed = 1;
nodes = (
(1048,917,l),
(1048,473,l),
(1216,473,l),
(1216,1085,l),
(183,1085,l),
(143,917,l,{
name = hr00;
})
);
}
);
width = 1360;
}
);
unicode = 172;
}
{
glyphname = uni00AD;
layers = (
{
layerId = m001;
shapes = (
{
closed = 1;
nodes = (
(1065,753,l),
(1108,919,l),
(292,919,l),
(251,753,l,{
name = hr00;
})
);
}
);
width = 1360;
}
);
unicode = 173;
}
{
glyphname = registered;
layers = (
{
layerId = m001;
shapes = (
{
closed = 1;
nodes = (
(74,220,o),
(431,-145,o),
(892,-145,cs),
(1350,-145,o),
(1705,220,o),
(1705,675,cs),
(1705,1131,o),
(1350,1500,o),
(892,1500,cs),
(431,1500,o),
(74,1131,o),
(74,675,cs,{
name = hr00;
})
);
},
{
closed = 1;
nodes = (
(183,1065,o),
(479,1407,o),
(892,1407,cs),
(1313,1407,o),
(1594,1067,o),
(1594,675,cs),
(1594,268,o),
(1297,-55,o),
(892,-55,cs),
(501,-55,o),
(183,288,o),
(183,675,cs)
);
},
{
closed = 1;
nodes = (
(901,204,l),
(901,253,l),
(805,265,o),
(783,281,o),
(783,370,cs),
(783,636,l),
(793,636,o),
(801,635,o),
(807,634,cs),
(812,633,o),
(882,632,o),
(889,632,c),
(1305,141,l),
(1363,187,l),
(1064,653,l),
(1193,689,o),
(1273,765,o),
(1273,906,cs),
(1273,1096,o),
(1114,1164,o),
(925,1164,cs),
(485,1164,l),
(485,1115,l),
(575,1101,o),
(609,1084,o),
(609,996,cs),
(609,387,ls),
(609,290,o),
(580,265,o),
(487,250,c),
(485,249,l),
(485,204,l)
);
},
{
closed = 1;
nodes = (
(783,1048,ls),
(783,1078,o),
(836,1084,o),
(894,1084,cs),
(1011,1084,o),
(1090,1030,o),
(1090,906,cs),
(1090,724,o),
(971,711,o),
(783,711,c)
);
}
);
width = 1870;
}
);
unicode = 174;
}
{
glyphname = macron;
layers = (
{
anchors = (
{
name = _top;
pos = (594,1530);
}
);
layerId = m001;
shapes = (
{
closed = 1;
nodes = (
(929,1552,l),
(929,1735,l),
(260,1706,l),
(260,1575,l,{
name = hr00;
})
);
}
);
width = 1189;
}
);
unicode = 175;
}
{
glyphname = degree;
layers = (
{
layerId = m001;
shapes = (
{
closed = 1;
nodes = (
(721,943,o),
(887,1106,o),
(887,1317,cs),
(887,1525,o),
(721,1690,o),
(513,1690,cs),
(302,1690,o),
(138,1525,o),
(138,1317,cs),
(138,1106,o),
(302,943,o),
(513,943,cs,{
name = hr00;
})
);
},
{
closed = 1;
nodes = (
(378,1061,o),
(272,1182,o),
(272,1317,cs),
(272,1451,o),
(378,1572,o),
(513,1572,cs),
(647,1572,o),
(754,1451,o),
(754,1317,cs),
(754,1182,o),
(647,1061,o),
(513,1061,cs)
);
}
);
width = 1025;
}
);
unicode = 176;
}
{
glyphname = plusminus;
layers = (
{
layerId = m001;
shapes = (
{
closed = 1;
nodes = (
(785,611,l),
(785,927,l),
(1220,927,l),
(1261,1094,l),
(785,1094,l),
(785,1462,l),
(616,1462,l),
(616,1094,l),
(139,1094,l),
(99,927,l),
(616,927,l),
(616,611,l,{
name = hr00;
})
);
},
{
closed = 1;
nodes = (
(1220,282,l),
(1261,449,l),
(139,449,l),
(99,282,l)
);
}
);
width = 1360;
}
);
unicode = 177;
}
{
glyphname = twosuperior;
layers = (
{
layerId = m001;
shapes = (
{
closed = 1;
nodes = (
(891,780,l),
(932,780,o),
(964,751,o),
(973,702,c),
(1060,702,l),
(1167,1163,l),
(1079,1163,l),
(1022,1011,o),
(958,952,o),
(798,952,c),
(474,952,l),
(875,1240,o),
(1011,1369,o),
(1011,1550,cs),
(1011,1744,o),
(825,1866,o),
(628,1866,cs),
(570,1866,o),
(501,1852,o),
(454,1842,cs),
(430,1837,o),
(409,1832,o),
(399,1832,cs),
(363,1832,o),
(337,1862,o),
(337,1912,c),
(258,1912,l),
(113,1411,l),
(200,1411,l),
(278,1599,o),
(389,1728,o),
(564,1728,cs),
(741,1728,o),
(798,1605,o),
(798,1510,cs),
(798,1315,o),
(448,1046,o),
(141,832,c),
(152,780,l,{
name = hr00;
})
);
}
);
width = 1236;
}
);
unicode = 178;
}
{
glyphname = threesuperior;
layers = (
{
layerId = m001;
shapes = (
{
closed = 1;
nodes = (
(259,692,o),
(424,634,o),
(588,634,cs),
(836,634,o),
(1086,760,o),
(1086,1050,cs),
(1086,1253,o),
(892,1355,o),
(792,1368,c),
(921,1478,o),
(1020,1619,o),
(1020,1798,c),
(1020,1841,l),
(431,1841,l),
(390,1841,o),
(367,1858,o),
(367,1903,cs),
(367,1908,o),
(367,1914,o),
(368,1921,c),
(283,1921,l),
(150,1457,l),
(240,1457,l),
(292,1580,o),
(331,1666,o),
(451,1666,c),
(832,1666,l),
(800,1523,o),
(665,1361,o),
(436,1274,c),
(475,1187,l),
(507,1200,o),
(542,1215,o),
(577,1233,c),
(775,1238,o),
(889,1104,o),
(889,1003,cs),
(889,834,o),
(727,747,o),
(553,747,cs),
(425,747,o),
(289,791,o),
(209,854,c),
(170,764,l,{
name = hr00;
})
);
}
);
width = 1185;
}
);
unicode = 179;
}
{
glyphname = acute;
layers = (
{
anchors = (
{
name = _top;
pos = (483,1530);
}
);
layerId = m001;
shapes = (
{
closed = 1;
nodes = (
(791,1746,l),
(581,1880,l),
(328,1414,l),
(426,1359,l,{
name = hr00;
})
);
}
);
width = 850;
}
);
unicode = 180;
}
{
glyphname = mu;
layers = (
{
guides = (
{
angle = 90;
pos = (775,0);
}
);
layerId = m001;
shapes = (
{
closed = 1;
nodes = (
(326,-468,o),
(292,-471,o),
(164,-483,c),
(164,-566,l),
(725,-566,l),
(725,-483,l),
(573,-469,o),
(530,-470,o),
(530,-329,c),
(530,185,l),
(599,72,o),
(702,-21,o),
(845,-90,c),
(1016,-5,o),
(1103,94,o),
(1161,209,c),
(1161,0,l),
(1535,0,l),
(1535,86,l),
(1382,97,o),
(1363,113,o),
(1363,236,c),
(1363,909,l),
(1363,1088,o),
(1388,1113,o),
(1504,1123,c),
(1506,1124,l),
(1506,1209,l),
(1002,1209,l),
(1002,1123,l),
(1028,1120,l),
(1142,1104,o),
(1161,1098,o),
(1161,916,c),
(1161,578,l),
(1161,297,o),
(1010,149,o),
(845,50,c),
(691,143,o),
(546,287,o),
(530,535,c),
(530,980,l),
(536,1098,o),
(566,1105,o),
(661,1119,c),
(688,1123,l),
(688,1209,l),
(184,1209,l),
(184,1123,l),
(301,1113,o),
(326,1088,o),
(326,909,c),
(326,-329,ls,{
name = hr00;
})
);
}
);
userData = {
com.typemytype.robofont.guides = (
{
angle = 90;
isGlobal = 0;
magnetic = 5;
x = 775;
y = 0;
}
);
};
width = 1700;
}
);
unicode = (181,956);
}
{
glyphname = paragraph;
layers = (
{
guides = (
{
pos = (0,1602);
}
);
layerId = m001;
shapes = (
{
closed = 1;
nodes = (
(871,-565,l),
(987,-565,l),
(997,114,o),
(1011,901,o),
(1022,1579,c,{
name = hr02;
}),
(1148,1579,l),
(1183,-565,l),
(1300,-565,l),
(1352,1433,l),
(1354,1558,o),
(1369,1583,o),
(1526,1597,c),
(1526,1680,l),
(1291,1680,l),
(1248,1680,o),
(1191,1686,o),
(1130,1692,cs,{
name = hr03;
}),
(1050,1700,o),
(954,1710,o),
(859,1710,cs),
(323,1710,o),
(82,1391,o),
(82,1018,cs),
(82,652,o),
(334,328,o),
(846,350,c,{
name = hr01;
})
);
},
{
closed = 1;
nodes = (
(564,467,o),
(417,671,o),
(417,1002,cs),
(417,1297,o),
(505,1557,o),
(814,1578,c),
(843,465,l)
);
}
);
userData = {
com.typemytype.robofont.guides = (
{
angle = 0;
isGlobal = 0;
magnetic = 5;
x = 0;
y = 1602;
}
);
};
width = 1703;
}
);
unicode = 182;
}
{
glyphname = periodcentered;
layers = (
{
layerId = m001;
shapes = (
{
closed = 1;
nodes = (
(435,690,l),
(257,869,l),
(75,690,l),
(257,509,l,{
name = hr00;
})
);
}
);
width = 512;
}
);
unicode = 183;
}
{
glyphname = cedilla;
layers = (
{
anchors = (
{
name = _btm;
pos = (417,0);
}
);
layerId = m001;
shapes = (
{
closed = 1;
nodes = (
(392,-220,o),
(478,-252,o),
(478,-351,cs),
(478,-419,o),
(402,-475,o),
(282,-504,c),
(339,-587,l),
(465,-577,o),
(685,-480,o),
(685,-318,cs),
(685,-193,o),
(559,-125,o),
(425,-127,c),
(474,2,l),
(355,2,l),
(268,-220,l,{
name = hr00;
})
);
}
);
width = 934;
}
);
unicode = 184;
}
{
glyphname = onesuperior;
layers = (
{
layerId = m001;
shapes = (
{
closed = 1;
nodes = (
(845,776,l),
(845,857,l),
(681,864,o),
(590,877,o),
(590,985,c),
(590,1871,l),
(138,1871,l),
(138,1787,l),
(357,1787,o),
(390,1758,o),
(390,1620,c),
(390,985,l),
(390,876,o),
(300,864,o),
(138,856,c),
(138,776,l,{
name = hr00;
})
);
}
);
width = 984;
}
);
unicode = 185;
}
{
glyphname = ordmasculine;
layers = (
{
guides = (
{
angle = 90;
pos = (594,0);
}
);
layerId = m001;
shapes = (
{
closed = 1;
nodes = (
(888,772,o),
(1038,1005,o),
(1038,1245,cs),
(1038,1481,o),
(888,1719,o),
(594,1719,cs),
(300,1719,o),
(151,1481,o),
(151,1245,cs),
(151,1012,o),
(298,772,o),
(594,772,cs,{
name = hr00;
})
);
},
{
closed = 1;
nodes = (
(398,874,o),
(354,1075,o),
(354,1245,cs),
(354,1416,o),
(400,1619,o),
(596,1619,cs),
(790,1619,o),
(837,1423,o),
(837,1245,cs),
(837,1073,o),
(790,874,o),
(596,874,cs)
);
},
{
pos = (335,278);
ref = period;
}
);
userData = {
com.typemytype.robofont.guides = (
{
angle = 90;
isGlobal = 0;
magnetic = 5;
x = 594;
y = 0;
}
);
};
width = 1189;
}
);
unicode = 186;
}
{
glyphname = guillemetright;
layers = (
{
layerId = m001;
shapes = (
{
closed = 1;
nodes = (
(799,95,l),
(1411,651,l),
(799,1209,l),
(724,1156,l),
(1082,651,l),
(724,148,l,{
name = hr00;
})
);
},
{
closed = 1;
nodes = (
(234,95,l),
(846,651,l),
(234,1209,l),
(159,1156,l),
(517,651,l),
(159,148,l)
);
}
);
width = 1533;
}
);
unicode = 187;
}
{
glyphname = onequarter;
layers = (
{
layerId = m001;
shapes = (
{
closed = 1;
nodes = (
(874,-352,l),
(1637,1972,l),
(1486,1972,l),
(720,-352,l,{
name = hr01;
})
);
},
{
closed = 1;
nodes = (
(1372,203,l),
(2005,203,l),
(2018,-192,l),
(2134,-192,l),
(2147,203,l),
(2269,203,l,{
name = hr02;
}),
(2307,203,o),
(2337,171,o),
(2345,125,c),
(2432,125,l),
(2531,559,l),
(2442,559,l),
(2386,410,o),
(2325,347,o),
(2174,347,c),
(2152,347,l),
(2190,1449,l),
(1346,277,l)
);
},
{
closed = 1;
nodes = (
(1982,901,l),
(2000,347,l),
(1563,347,l)
);
},
{
pos = (23,1);
ref = onesuperior;
}
);
width = 2694;
}
);
unicode = 188;
}
{
glyphname = onehalf;
layers = (
{
layerId = m001;
shapes = (
{
closed = 1;
nodes = (
(835,-354,l),
(1598,1970,l),
(1447,1970,l),
(681,-354,l,{
name = hr00;
})
);
},
{
pos = (22,1);
ref = onesuperior;
},
{
pos = (1320,-778);
ref = twosuperior;
}
);
width = 2649;
}
);
unicode = 189;
}
{
glyphname = threequarters;
layers = (
{
layerId = m001;
shapes = (
{
closed = 1;
nodes = (
(1041,-354,l),
(1805,1970,l),
(1653,1970,l),
(888,-354,l,{
name = hr01;
})
);
},
{
closed = 1;
nodes = (
(1543,203,l),
(2176,203,l),
(2189,-192,l),
(2304,-192,l),
(2318,203,l),
(2441,203,l,{
name = hr02;
}),
(2478,203,o),
(2508,171,o),
(2516,125,c),
(2603,125,l),
(2702,559,l),
(2614,559,l),
(2557,410,o),
(2496,347,o),
(2344,347,c),
(2323,347,l),
(2362,1449,l),
(1517,277,l)
);
},
{
closed = 1;
nodes = (
(2153,901,l),
(2171,347,l),
(1733,347,l)
);
},
{
pos = (10,1);
ref = threesuperior;
}
);
width = 2865;
}
);
unicode = 190;
}
{
glyphname = AE;
layers = (
{
anchors = (
{
name = top;
pos = (1375,1530);
}
);
layerId = m001;
shapes = (
{
closed = 1;
nodes = (
(644,0,l),
(644,83,l),
(467,105,o),
(460,111,o),
(460,284,c),
(460,486,l),
(1187,486,l),
(1187,284,l),
(1187,111,o),
(1181,105,o),
(1004,83,c),
(1004,0,l),
(2141,0,l),
(2214,425,l),
(2119,425,l),
(2018,140,o),
(1924,112,o),
(1666,112,c),
(1388,112,l),
(1388,313,l),
(1388,480,o),
(1378,648,o),
(1364,779,c),
(1875,779,l),
(1902,893,l),
(1349,893,l),
(1299,1124,o),
(1225,1289,o),
(1059,1418,c),
(1748,1418,l),
(1931,1418,o),
(1992,1392,o),
(1992,1272,cs),
(1992,1227,o),
(1984,1171,o),
(1971,1100,c),
(2067,1100,l),
(2172,1530,l),
(929,1530,l),
(902,1550,o),
(873,1570,o),
(844,1590,c),
(842,1590,l),
(424,1341,o),
(267,1039,o),
(267,313,cs),
(267,113,o),
(260,114,o),
(98,83,c),
(98,0,l,{
name = hr00;
})
);
},
{
closed = 1;
nodes = (
(478,996,o),
(559,1212,o),
(843,1449,c),
(1120,1215,o),
(1182,986,o),
(1185,598,c),
(462,598,l)
);
}
);
width = 2219;
}
);
unicode = 198;
}
{
glyphname = Eth;
layers = (
{
anchors = (
{
name = btm;
pos = (763,0);
},
{
name = top;
pos = (763,1530);
}
);
layerId = m001;
shapes = (
{
closed = 1;
nodes = (
(355,2,ls),
(387,2,o),
(460,-6,o),
(532,-13,cs),
(604,-20,o),
(695,-24,o),
(726,-24,cs),
(1236,-24,o),
(1519,320,o),
(1519,818,cs,{
name = hr02;
}),
(1519,1325,o),
(1188,1545,o),
(743,1545,cs),
(705,1545,o),
(612,1539,o),
(532,1534,cs),
(457,1529,o),
(385,1532,o),
(355,1532,cs),
(64,1532,l,{
name = hr03;
}),
(64,1444,l),
(216,1431,o),
(237,1425,o),
(237,1270,cs),
(237,891,l),
(36,891,l),
(7,766,l),
(237,766,l),
(237,266,ls),
(237,111,o),
(215,105,o),
(64,84,c),
(64,1,l,{
name = hr01;
})
);
},
{
closed = 1;
nodes = (
(440,766,l),
(752,766,l,{
name = hr05;
}),
(782,891,l),
(440,891,l),
(440,1330,ls),
(440,1421,o),
(612,1444,o),
(714,1444,cs),
(1059,1444,o),
(1295,1293,o),
(1295,854,cs),
(1295,356,o),
(1137,89,o),
(751,89,cs),
(678,89,o),
(440,110,o),
(440,218,cs,{
name = hr04;
})
);
}
);
width = 1533;
}
);
unicode = 208;
}
{
glyphname = multiply;
layers = (
{
layerId = m001;
shapes = (
{
closed = 1;
nodes = (
(680,718,l),
(1072,327,l),
(1191,446,l),
(799,837,l),
(1190,1229,l),
(1071,1348,l),
(680,956,l),
(288,1348,l),
(169,1229,l),
(561,837,l),
(169,445,l),
(288,326,l,{
name = hr00;
})
);
}
);
width = 1360;
}
);
unicode = 215;
}
{
glyphname = Oslash;
layers = (
{
layerId = m001;
shapes = (
{
closed = 1;
nodes = (
(368,-91,l),
(471,75,l),
(574,15,o),
(701,-20,o),
(851,-20,cs),
(1343,-20,o),
(1584,354,o),
(1584,756,cs),
(1584,1002,o),
(1488,1253,o),
(1295,1405,c),
(1391,1560,l),
(1295,1621,l),
(1200,1468,l,{
name = hr02;
}),
(1102,1520,o),
(986,1551,o),
(851,1551,cs,{
name = hr03;
}),
(360,1551,o),
(119,1148,o),
(119,756,cs),
(119,520,o),
(204,289,o),
(377,141,c),
(271,-30,l,{
name = hr01;
})
);
},
{
closed = 1;
nodes = (
(383,410,o),
(358,585,o),
(358,756,cs),
(358,1078,o),
(454,1443,o),
(853,1443,cs),
(971,1443,o),
(1062,1412,o),
(1133,1359,c),
(464,281,l)
);
},
{
closed = 1;
nodes = (
(1216,1277,l),
(1317,1143,o),
(1349,945,o),
(1349,756,cs),
(1349,425,o),
(1252,81,o),
(853,81,cs),
(716,81,o),
(615,121,o),
(541,188,c)
);
}
);
width = 1703;
}
);
unicode = 216;
}
{
glyphname = Thorn;
layers = (
{
anchors = (
{
name = btm;
pos = (672,0);
},
{
name = top;
pos = (672,1530);
}
);
layerId = m001;
shapes = (
{
closed = 1;
nodes = (
(709,-1,l),
(709,82,l),
(655,88,ls),
(482,107,o),
(461,109,o),
(461,264,cs),
(461,898,ls),
(461,1017,o),
(491,1125,o),
(733,1125,cs),
(986,1125,o),
(1021,960,o),
(1021,807,cs),
(1021,602,o),
(927,467,o),
(736,467,cs),
(710,467,o),
(665,470,o),
(629,475,c),
(613,382,l),
(656,372,o),
(707,364,o),
(753,364,cs),
(1117,364,o),
(1258,590,o),
(1258,819,cs),
(1258,1005,o),
(1149,1230,o),
(739,1230,cs),
(654,1230,o),
(544,1219,o),
(461,1198,c),
(461,1267,ls),
(461,1427,o),
(483,1430,o),
(634,1445,c),
(634,1530,l),
(86,1530,l),
(86,1445,l),
(238,1432,o),
(259,1422,o),
(259,1267,cs),
(259,264,ls),
(259,109,o),
(237,103,o),
(121,87,cs),
(86,82,l),
(86,-1,l,{
name = hr00;
})
);
}
);
width = 1361;
}
);
unicode = 222;
}
{
glyphname = germandbls;
layers = (
{
anchors = (
{
name = btm;
pos = (744,0);
},
{
name = top;
pos = (744,1530);
}
);
layerId = m001;
shapes = (
{
closed = 1;
nodes = (
(470,0,l),
(470,1233,ls,{
name = hr02;
}),
(470,1469,o),
(549,1602,o),
(729,1602,cs),
(870,1602,o),
(955,1497,o),
(955,1367,cs),
(955,1097,o),
(751,1158,o),
(751,935,cs),
(751,810,o),
(824,725,o),
(918,653,cs),
(1079,529,o),
(1229,462,o),
(1229,292,cs),
(1229,146,o),
(1147,83,o),
(1026,83,cs),
(913,83,o),
(825,150,o),
(825,212,cs,{
name = hr03;
}),
(825,267,o),
(834,302,o),
(858,325,c),
(806,385,l),
(742,370,o),
(651,294,o),
(651,205,cs,{
name = hr04;
}),
(651,83,o),
(786,-23,o),
(998,-23,cs),
(1222,-23,o),
(1420,97,o),
(1420,336,cs),
(1420,549,o),
(1280,656,o),
(1086,797,cs),
(1008,854,o),
(927,901,o),
(927,980,cs),
(927,1097,o),
(1152,1174,o),
(1152,1408,cs),
(1152,1515,o),
(1051,1711,o),
(725,1711,cs),
(474,1711,o),
(265,1599,o),
(265,1185,c,{
name = hr05;
}),
(265,230,ls),
(265,117,o),
(241,94,o),
(89,84,c,{
name = hr06;
}),
(89,0,l,{
name = hr01;
})
);
}
);
width = 1529;
}
);
unicode = 223;
}
{
glyphname = ae;
layers = (
{
anchors = (
{
name = btm;
pos = (1030,0);
},
{
name = top;
pos = (1106,1530);
}
);
layerId = m001;
shapes = (
{
closed = 1;
nodes = (
(141,147,o),
(262,-20,o),
(563,-20,cs),
(746,-20,o),
(972,37,o),
(1070,185,c),
(1162,57,o),
(1311,-20,o),
(1508,-20,cs),
(1695,-20,o),
(1829,30,o),
(1919,141,c),
(1862,198,l),
(1777,125,o),
(1665,90,o),
(1540,90,cs),
(1273,90,o),
(1163,378,o),
(1164,519,c),
(1724,523,o),
(1912,752,o),
(1912,952,cs),
(1912,1121,o),
(1754,1228,o),
(1526,1228,cs),
(1346,1228,o),
(1189,1162,o),
(1092,1052,c),
(1027,1160,o),
(901,1228,o),
(672,1228,cs),
(386,1228,o),
(191,1112,o),
(191,971,cs),
(191,882,o),
(302,826,o),
(380,812,c),
(448,853,l),
(432,877,o),
(410,911,o),
(410,953,cs),
(410,1054,o),
(507,1131,o),
(643,1131,cs),
(850,1131,o),
(937,1048,o),
(937,915,cs),
(937,740,l),
(349,729,o),
(141,477,o),
(141,313,cs,{
name = hr00;
})
);
},
{
closed = 1;
nodes = (
(1164,887,o),
(1270,1130,o),
(1495,1130,cs),
(1638,1130,o),
(1694,1040,o),
(1694,964,cs),
(1694,725,o),
(1425,632,o),
(1164,626,c)
);
},
{
closed = 1;
nodes = (
(369,554,o),
(647,620,o),
(937,636,c),
(937,360,ls),
(937,194,o),
(803,80,o),
(643,80,cs),
(478,80,o),
(369,170,o),
(369,313,cs)
);
}
);
width = 2046;
}
);
unicode = 230;
}
{
glyphname = eth;
layers = (
{
anchors = (
{
name = btm;
pos = (661,0);
},
{
name = top;
pos = (661,1530);
}
);
guides = (
{
pos = (0,1809);
},
{
angle = 90;
pos = (107,0);
},
{
angle = 90;
pos = (1215,0);
},
{
angle = 90;
pos = (299,0);
},
{
angle = 90;
pos = (1039,0);
}
);
layerId = m001;
shapes = (
{
closed = 1;
nodes = (
(106,283,o),
(309,-27,o),
(653,-27,cs),
(995,-27,o),
(1216,254,o),
(1216,703,cs),
(1216,1064,o),
(1097,1403,o),
(817,1609,c),
(1041,1718,l),
(984,1808,l),
(896,1766,o),
(802,1720,o),
(714,1677,c),
(605,1738,o),
(470,1783,o),
(317,1806,c),
(296,1704,l),
(401,1682,o),
(493,1645,o),
(574,1595,c),
(302,1465,l),
(359,1374,l),
(670,1524,l),
(794,1438,o),
(885,1281,o),
(936,1098,c),
(867,1160,o),
(753,1193,o),
(647,1193,cs),
(286,1193,o),
(106,888,o),
(106,584,cs,{
name = hr00;
})
);
},
{
closed = 1;
nodes = (
(409,85,o),
(335,353,o),
(335,581,cs),
(335,837,o),
(405,1086,o),
(666,1086,cs),
(866,1086,o),
(988,940,o),
(988,711,cs),
(988,343,o),
(933,85,o),
(656,85,cs)
);
}
);
userData = {
com.typemytype.robofont.guides = (
{
angle = 0;
isGlobal = 0;
magnetic = 5;
x = 0;
y = 1809;
},
{
angle = 90;
isGlobal = 0;
magnetic = 5;
x = 107;
y = 0;
},
{
angle = 90;
isGlobal = 0;
magnetic = 5;
x = 1215;
y = 0;
},
{
angle = 90;
isGlobal = 0;
magnetic = 5;
x = 299;
y = 0;
},
{
angle = 90;
isGlobal = 0;
magnetic = 5;
x = 1039;
y = 0;
}
);
};
width = 1366;
}
);
unicode = 240;
}
{
glyphname = divide;
layers = (
{
layerId = m001;
shapes = (
{
closed = 1;
nodes = (
(854,1315,l),
(682,1487,l),
(508,1315,l),
(682,1140,l,{
name = hr00;
})
);
},
{
closed = 1;
nodes = (
(1220,752,l),
(1261,919,l),
(139,919,l),
(99,752,l)
);
},
{
closed = 1;
nodes = (
(682,169,l),
(854,343,l),
(682,515,l),
(508,343,l)
);
}
);
width = 1360;
}
);
unicode = 247;
}
{
glyphname = oslash;
layers = (
{
layerId = m001;
shapes = (
{
closed = 1;
nodes = (
(268,-135,l),
(392,55,l),
(471,5,o),
(567,-24,o),
(680,-24,cs),
(1051,-24,o),
(1241,288,o),
(1241,609,cs),
(1241,787,o),
(1181,960,o),
(1063,1077,c),
(1215,1308,l),
(1119,1369,l),
(974,1148,l),
(894,1198,o),
(796,1228,o),
(680,1228,cs),
(310,1228,o),
(121,927,o),
(121,609,cs),
(121,430,o),
(181,249,o),
(303,127,c),
(171,-74,l,{
name = hr00;
})
);
},
{
closed = 1;
nodes = (
(362,377,o),
(349,497,o),
(349,609,cs),
(349,850,o),
(413,1120,o),
(682,1120,cs),
(778,1120,o),
(848,1087,o),
(898,1033,c),
(403,280,l)
);
},
{
closed = 1;
nodes = (
(965,927,l),
(1003,835,o),
(1016,721,o),
(1016,609,cs),
(1016,365,o),
(951,87,o),
(682,87,cs),
(588,87,o),
(520,120,o),
(470,174,c)
);
}
);
width = 1364;
}
);
unicode = 248;
}
{
glyphname = thorn;
layers = (
{
anchors = (
{
name = btm;
pos = (713,0);
},
{
name = top;
pos = (713,1530);
}
);
layerId = m001;
shapes = (
{
closed = 1;
nodes = (
(273,-330,ls),
(273,-468,o),
(239,-471,o),
(113,-483,c),
(111,-484,l),
(111,-566,l),
(671,-566,l),
(671,-483,l),
(520,-469,o),
(477,-470,o),
(477,-330,cs),
(477,-7,l),
(497,-9,o),
(519,-11,o),
(540,-14,c),
(615,-22,o),
(697,-30,o),
(764,-30,cs),
(1130,-30,o),
(1325,298,o),
(1325,621,cs),
(1325,937,o),
(1146,1245,o),
(821,1245,cs),
(694,1245,o),
(557,1191,o),
(478,1105,c),
(478,1475,ls),
(478,1614,o),
(516,1613,o),
(650,1627,c),
(650,1710,l),
(101,1710,l),
(101,1627,l),
(237,1615,o),
(274,1612,o),
(274,1475,cs,{
name = hr02;
}),
(273,0,l,{
name = hr01;
})
);
},
{
closed = 1;
nodes = (
(478,849,ls),
(478,1003,o),
(637,1128,o),
(812,1128,cs),
(1031,1128,o),
(1100,860,o),
(1100,621,cs),
(1100,338,o),
(1004,86,o),
(768,86,cs),
(526,86,o),
(478,183,o),
(478,293,cs,{
name = hr03;
})
);
}
);
width = 1368;
}
);
unicode = 254;
}
{
glyphname = Aogonek;
layers = (
{
guides = (
{
angle = 90;
pos = (1146,0);
}
);
layerId = m001;
shapes = (
{
closed = 1;
nodes = (
(602,0,l),
(602,83,l),
(424,105,o),
(418,111,o),
(418,284,cs),
(418,526,l),
(1145,526,l),
(1145,284,ls),
(1145,111,o),
(1139,105,o),
(962,83,c),
(962,0,l),
(1191,0,l),
(1061,-83,o),
(928,-207,o),
(928,-362,cs),
(928,-495,o),
(1022,-568,o),
(1172,-568,cs),
(1260,-568,o),
(1381,-528,o),
(1463,-481,c),
(1429,-402,l),
(1367,-432,o),
(1301,-444,o),
(1251,-444,cs,{
name = hr02;
}),
(1176,-444,o),
(1132,-399,o),
(1132,-319,cs),
(1132,-219,o),
(1219,-85,o),
(1346,0,c),
(1521,0,l),
(1521,83,l),
(1369,109,o),
(1353,112,o),
(1354,212,cs),
(1355,313,ls),
(1363,1089,o),
(1204,1310,o),
(785,1589,c),
(784,1589,l),
(366,1310,o),
(199,1099,o),
(207,313,cs,{
name = hr03;
}),
(208,210,ls),
(209,112,o),
(194,109,o),
(41,83,c),
(41,0,l,{
name = hr01;
})
);
},
{
closed = 1;
nodes = (
(436,973,o),
(502,1169,o),
(784,1448,c),
(1066,1169,o),
(1141,974,o),
(1143,638,c),
(420,638,l)
);
}
);
userData = {
com.typemytype.robofont.guides = (
{
angle = 90;
isGlobal = 0;
magnetic = 5;
x = 1146;
y = 0;
}
);
};
width = 1533;
}
);
unicode = 260;
}
{
glyphname = aogonek;
layers = (
{
guides = (
{
angle = 90;
pos = (1302,0);
}
);
layerId = m001;
shapes = (
{
closed = 1;
nodes = (
(169,137,o),
(291,-26,o),
(592,-26,cs),
(682,-26,o),
(769,-19,o),
(849,-12,cs),
(920,-6,o),
(993,0,o),
(1057,0,c),
(918,-77,o),
(752,-198,o),
(752,-362,cs),
(752,-489,o),
(847,-568,o),
(996,-568,cs),
(1085,-568,o),
(1206,-528,o),
(1288,-481,c),
(1254,-402,l),
(1192,-432,o),
(1129,-444,o),
(1075,-444,cs),
(1000,-444,o),
(956,-399,o),
(956,-319,cs,{
name = hr02;
}),
(956,-199,o),
(1132,0,o),
(1301,0,c),
(1301,84,l),
(1160,98,o),
(1141,108,o),
(1141,266,cs,{
name = hr03;
}),
(1141,893,ls),
(1141,1094,o),
(1005,1228,o),
(690,1228,cs),
(405,1228,o),
(209,1112,o),
(209,971,cs),
(209,882,o),
(321,826,o),
(399,812,c),
(467,853,l),
(451,877,o),
(429,911,o),
(429,953,cs),
(429,1054,o),
(526,1123,o),
(662,1123,cs),
(855,1123,o),
(939,1048,o),
(939,915,cs,{
name = hr04;
}),
(939,740,l),
(372,729,o),
(169,467,o),
(169,303,cs,{
name = hr01;
})
);
},
{
closed = 1;
nodes = (
(398,544,o),
(664,620,o),
(939,636,c),
(939,282,ls),
(939,120,o),
(905,83,o),
(671,83,cs),
(507,83,o),
(398,160,o),
(398,303,cs)
);
}
);
userData = {
com.typemytype.robofont.guides = (
{
angle = 90;
isGlobal = 0;
magnetic = 5;
x = 1302;
y = 0;
}
);
};
width = 1360;
}
);
unicode = 261;
}
{
glyphname = Dcroat;
layers = (
{
layerId = m001;
shapes = (
{
closed = 1;
nodes = (
(355,1,ls),
(387,1,o),
(460,-7,o),
(532,-14,cs),
(604,-21,o),
(695,-25,o),
(726,-25,cs),
(1236,-25,o),
(1519,319,o),
(1519,817,cs,{
name = hr02;
}),
(1519,1324,o),
(1188,1544,o),
(743,1544,cs),
(705,1544,o),
(612,1538,o),
(532,1533,cs),
(457,1528,o),
(385,1531,o),
(355,1531,cs),
(64,1531,l,{
name = hr03;
}),
(64,1443,l),
(216,1430,o),
(237,1424,o),
(237,1269,cs),
(237,891,l),
(36,891,l),
(7,766,l),
(237,766,l),
(237,265,ls),
(237,110,o),
(215,104,o),
(64,83,c),
(64,0,l,{
name = hr01;
})
);
},
{
closed = 1;
nodes = (
(440,766,l),
(752,766,l,{
name = hr05;
}),
(782,891,l),
(440,891,l),
(440,1329,ls),
(440,1420,o),
(612,1443,o),
(714,1443,cs),
(1059,1443,o),
(1295,1292,o),
(1295,853,cs),
(1295,355,o),
(1137,88,o),
(751,88,cs),
(678,88,o),
(440,109,o),
(440,217,cs,{
name = hr04;
})
);
}
);
width = 1533;
}
);
unicode = 272;
}
{
glyphname = dcroat;
layers = (
{
layerId = m001;
shapes = (
{
closed = 1;
nodes = (
(126,298,o),
(321,-30,o),
(687,-30,cs),
(754,-30,o),
(836,-22,o),
(911,-14,cs),
(976,-7,o),
(1043,0,o),
(1090,0,cs),
(1350,0,l),
(1350,83,l),
(1192,97,o),
(1177,122,o),
(1177,249,cs),
(1177,1361,l),
(1322,1361,l),
(1351,1484,l),
(1177,1484,l),
(1178,1612,o),
(1217,1615,o),
(1350,1627,c),
(1350,1710,l),
(801,1710,l),
(801,1627,l),
(932,1613,o),
(971,1614,o),
(973,1484,c,{
name = hr02;
}),
(759,1484,l),
(731,1361,l),
(973,1361,l),
(973,1105,l),
(894,1191,o),
(757,1245,o),
(630,1245,cs),
(305,1245,o),
(126,937,o),
(126,621,cs,{
name = hr01;
})
);
},
{
closed = 1;
nodes = (
(447,86,o),
(351,338,o),
(351,621,cs),
(351,860,o),
(420,1128,o),
(639,1128,cs,{
name = hr03;
}),
(814,1128,o),
(973,1003,o),
(973,849,cs),
(973,293,ls,{
name = hr04;
}),
(973,183,o),
(925,86,o),
(683,86,cs)
);
}
);
width = 1363;
}
);
unicode = 273;
}
{
glyphname = Eogonek;
layers = (
{
guides = (
{
angle = 90;
pos = (808,0);
},
{
angle = 90;
pos = (1407,0);
}
);
layerId = m001;
shapes = (
{
closed = 1;
nodes = (
(97,323,o),
(362,-25,o),
(836,-25,cs),
(887,-25,o),
(943,-18,o),
(994,-7,c),
(857,-99,o),
(732,-224,o),
(732,-362,cs),
(732,-489,o),
(832,-568,o),
(976,-568,cs),
(1064,-568,o),
(1185,-528,o),
(1267,-481,c),
(1233,-402,l),
(1171,-432,o),
(1104,-444,o),
(1055,-444,cs),
(980,-444,o),
(936,-399,o),
(936,-319,cs),
(936,-107,o),
(1251,73,o),
(1435,225,c),
(1385,292,l),
(1192,142,o),
(1047,104,o),
(878,104,cs),
(516,104,o),
(343,417,o),
(332,704,c),
(988,704,l),
(1015,817,l),
(335,817,l),
(363,1113,o),
(513,1443,o),
(838,1443,cs),
(996,1443,o),
(1169,1374,o),
(1208,1250,c),
(1220,1209,o),
(1224,1171,o),
(1224,1126,cs),
(1224,1096,o),
(1222,1062,o),
(1219,1021,c),
(1314,1021,l),
(1447,1551,l),
(1351,1551,l),
(1318,1504,o),
(1280,1469,o),
(1241,1469,cs),
(1191,1469,o),
(1151,1483,o),
(1104,1499,cs),
(1040,1521,o),
(973,1552,o),
(831,1552,cs),
(354,1552,o),
(97,1140,o),
(97,725,cs,{
name = hr00;
})
);
}
);
userData = {
com.typemytype.robofont.guides = (
{
angle = 90;
isGlobal = 0;
magnetic = 5;
x = 808;
y = 0;
},
{
angle = 90;
isGlobal = 0;
magnetic = 5;
x = 1407;
y = 0;
}
);
};
width = 1533;
}
);
unicode = 280;
}
{
glyphname = eogonek;
layers = (
{
guides = (
{
angle = 90;
pos = (659,0);
},
{
angle = 90;
pos = (1068,0);
}
);
layerId = m001;
shapes = (
{
closed = 1;
nodes = (
(101,234,o),
(299,-20,o),
(657,-20,cs),
(683,-20,o),
(718,-15,o),
(742,-9,c),
(610,-99,o),
(488,-223,o),
(488,-362,cs),
(488,-489,o),
(582,-568,o),
(732,-568,cs),
(820,-568,o),
(941,-528,o),
(1023,-481,c),
(989,-402,l),
(927,-432,o),
(861,-444,o),
(811,-444,cs),
(736,-444,o),
(692,-399,o),
(692,-319,cs),
(692,-104,o),
(902,-16,o),
(1068,149,c),
(1011,206,l),
(926,133,o),
(814,110,o),
(689,110,cs),
(425,110,o),
(338,302,o),
(319,519,c),
(871,523,o),
(1061,742,o),
(1061,942,cs),
(1061,1111,o),
(923,1228,o),
(665,1228,cs),
(337,1228,o),
(101,960,o),
(101,587,cs,{
name = hr00;
})
);
},
{
closed = 1;
nodes = (
(321,861,o),
(426,1121,o),
(644,1121,cs),
(807,1121,o),
(844,1020,o),
(844,944,cs),
(844,706,o),
(572,632,o),
(316,626,c)
);
}
);
userData = {
com.typemytype.robofont.guides = (
{
angle = 90;
isGlobal = 0;
magnetic = 5;
x = 659;
y = 0;
},
{
angle = 90;
isGlobal = 0;
magnetic = 5;
x = 1068;
y = 0;
}
);
};
width = 1195;
}
);
unicode = 281;
}
{
glyphname = hcircumflex;
layers = (
{
layerId = m001;
shapes = (
{
closed = 1;
nodes = (
(970,1706,l),
(1240,1364,l),
(1325,1406,l),
(1099,1859,l),
(843,1859,l),
(615,1406,l),
(700,1364,l,{
name = hr00;
})
);
},
{
closed = 1;
nodes = (
(700,0,l),
(700,83,l),
(538,104,o),
(527,108,o),
(527,292,c),
(527,631,l),
(527,931,o),
(694,1063,o),
(851,1159,c),
(1085,972,o),
(1103,807,o),
(1103,399,c),
(1103,282,l),
(1103,97,o),
(1082,103,o),
(931,83,c),
(931,0,l),
(1474,0,l),
(1474,83,l),
(1461,85,o),
(1446,86,o),
(1435,88,cs),
(1325,104,o),
(1312,106,o),
(1312,300,cs),
(1312,904,o),
(1190,1125,o),
(860,1300,c),
(703,1221,o),
(586,1117,o),
(527,1000,c),
(527,1730,l),
(151,1730,l),
(151,1646,l),
(304,1632,o),
(323,1624,o),
(323,1473,c),
(323,261,l),
(323,113,o),
(310,101,o),
(153,83,c),
(151,82,l),
(151,0,l)
);
}
);
width = 1535;
}
);
unicode = 293;
}
{
glyphname = Hbar;
layers = (
{
layerId = m001;
shapes = (
{
closed = 1;
nodes = (
(650,0,l),
(650,83,l),
(493,108,o),
(478,110,o),
(478,265,cs),
(478,736,l),
(1218,736,l),
(1218,265,ls),
(1218,110,o),
(1196,104,o),
(1046,83,c),
(1046,0,l),
(1593,0,l),
(1593,83,l),
(1435,108,o),
(1421,110,o),
(1421,265,cs),
(1421,1051,l),
(1560,1051,l),
(1560,1176,l),
(1421,1176,l),
(1421,1267,ls),
(1421,1427,o),
(1443,1428,o),
(1593,1443,c),
(1593,1530,l),
(1046,1530,l),
(1046,1443,l),
(1198,1430,o),
(1218,1422,o),
(1218,1267,cs),
(1218,1176,l),
(478,1176,l),
(478,1267,ls),
(478,1427,o),
(499,1428,o),
(650,1443,c),
(650,1530,l),
(104,1530,l),
(104,1443,l),
(256,1430,o),
(275,1422,o),
(275,1267,cs),
(275,1176,l),
(121,1176,l),
(121,1051,l),
(275,1051,l),
(275,265,ls),
(275,110,o),
(263,104,o),
(112,83,c),
(112,0,l,{
name = hr00;
})
);
},
{
closed = 1;
nodes = (
(478,1051,l),
(1218,1051,l),
(1218,849,l),
(478,849,l)
);
}
);
width = 1698;
}
);
unicode = 294;
}
{
glyphname = hbar;
layers = (
{
layerId = m001;
shapes = (
{
closed = 1;
nodes = (
(700,0,l),
(700,83,l),
(538,104,o),
(527,108,o),
(527,292,cs),
(527,631,ls),
(527,931,o),
(694,1063,o),
(851,1159,c),
(1085,972,o),
(1103,807,o),
(1103,399,cs),
(1103,282,ls),
(1103,97,o),
(1082,103,o),
(931,83,c),
(931,0,l),
(1474,0,l),
(1474,83,l),
(1461,85,o),
(1446,86,o),
(1435,88,cs),
(1325,104,o),
(1312,106,o),
(1312,300,cs),
(1312,904,o),
(1190,1125,o),
(860,1300,c),
(703,1221,o),
(586,1117,o),
(527,1000,c),
(527,1381,l),
(742,1381,l),
(771,1504,l),
(527,1504,l),
(531,1629,o),
(560,1631,o),
(700,1646,c),
(700,1730,l),
(151,1730,l),
(151,1646,l),
(292,1633,o),
(320,1625,o),
(323,1504,c),
(179,1504,l),
(151,1381,l),
(323,1381,l),
(323,261,ls),
(323,113,o),
(310,101,o),
(153,83,c),
(151,82,l),
(151,0,l,{
name = hr00;
})
);
}
);
width = 1535;
}
);
unicode = 295;
}
{
glyphname = Iogonek;
layers = (
{
layerId = m001;
shapes = (
{
closed = 1;
nodes = (
(372,0,l),
(242,-83,o),
(109,-207,o),
(109,-362,cs),
(109,-495,o),
(203,-568,o),
(353,-568,cs),
(441,-568,o),
(562,-528,o),
(644,-481,c),
(610,-402,l),
(548,-432,o),
(482,-444,o),
(432,-444,cs),
(357,-444,o),
(313,-399,o),
(313,-319,cs),
(313,-219,o),
(400,-85,o),
(527,0,c),
(701,0,l),
(701,83,l),
(663,89,ls),
(544,108,o),
(529,110,o),
(529,265,cs),
(529,1267,ls,{
name = hr02;
}),
(529,1427,o),
(551,1428,o),
(701,1443,c),
(701,1530,l),
(154,1530,l),
(154,1443,l,{
name = hr03;
}),
(306,1430,o),
(327,1422,o),
(327,1267,cs),
(327,265,ls,{
name = hr04;
}),
(327,111,o),
(305,105,o),
(188,88,cs),
(156,83,l),
(154,82,l,{
name = hr05;
}),
(154,0,l,{
name = hr01;
})
);
}
);
width = 848;
}
);
unicode = 302;
}
{
glyphname = iogonek;
layers = (
{
layerId = m001;
shapes = (
{
closed = 1;
nodes = (
(528,1607,l),
(350,1786,l),
(168,1607,l),
(350,1426,l,{
name = hr01;
})
);
},
{
closed = 1;
nodes = (
(307,0,l),
(177,-83,o),
(44,-207,o),
(44,-362,cs),
(44,-495,o),
(138,-568,o),
(288,-568,cs),
(376,-568,o),
(497,-528,o),
(579,-481,c,{
name = hr02;
}),
(545,-402,l),
(483,-432,o),
(417,-444,o),
(367,-444,cs),
(292,-444,o),
(248,-399,o),
(248,-319,cs),
(248,-219,o),
(335,-85,o),
(462,0,c),
(632,0,l,{
name = hr03;
}),
(632,83,l),
(593,89,ls),
(475,108,o),
(460,111,o),
(460,266,cs),
(460,944,ls),
(460,1104,o),
(481,1107,o),
(632,1122,c),
(632,1208,l),
(85,1208,l),
(85,1122,l),
(237,1110,o),
(258,1100,o),
(258,944,cs,{
name = hr04;
}),
(258,266,ls),
(258,110,o),
(236,104,o),
(120,88,cs),
(85,83,l,{
name = hr05;
}),
(85,0,l)
);
}
);
width = 680;
}
);
unicode = 303;
}
{
glyphname = idotless;
layers = (
{
anchors = (
{
name = btm;
pos = (358,0);
},
{
name = top;
pos = (358,1530);
}
);
layerId = m001;
shapes = (
{
closed = 1;
nodes = (
(632,0,l),
(632,83,l),
(593,89,ls),
(475,108,o),
(460,111,o),
(460,266,cs),
(460,944,ls),
(460,1104,o),
(481,1107,o),
(632,1122,c),
(632,1208,l),
(85,1208,l),
(85,1122,l),
(237,1110,o),
(258,1100,o),
(258,944,cs),
(258,266,ls),
(258,110,o),
(236,104,o),
(120,88,cs),
(85,83,l),
(85,0,l,{
name = hr00;
})
);
}
);
width = 680;
}
);
unicode = 305;
}
{
glyphname = ij;
layers = (
{
layerId = m001;
shapes = (
{
closed = 1;
nodes = (
(1308,1626,l),
(1130,1805,l),
(948,1626,l),
(1130,1446,l,{
name = hr01;
})
);
},
{
closed = 1;
nodes = (
(586,1626,l),
(406,1805,l),
(224,1626,l),
(406,1446,l)
);
},
{
closed = 1;
nodes = (
(571,-587,l),
(1070,-497,o),
(1241,-163,o),
(1241,364,cs,{
name = hr02;
}),
(1241,945,ls),
(1241,1105,o),
(1263,1108,o),
(1413,1123,c,{
name = hr03;
}),
(1413,1208,l),
(866,1208,l),
(866,1123,l,{
name = hr04;
}),
(1010,1110,o),
(1039,1100,o),
(1039,966,cs),
(1039,236,ls),
(1039,-149,o),
(893,-406,o),
(551,-489,c)
);
},
{
closed = 1;
nodes = (
(689,0,l),
(689,83,l),
(650,89,ls),
(531,108,o),
(516,110,o),
(516,265,cs),
(516,945,ls,{
name = hr05;
}),
(516,1105,o),
(538,1108,o),
(689,1123,c),
(689,1208,l),
(141,1208,l),
(141,1123,l),
(293,1110,o),
(314,1100,o),
(314,945,cs),
(314,265,ls),
(314,111,o),
(288,103,o),
(174,87,cs),
(165,86,o),
(153,85,o),
(143,83,cs),
(141,82,l),
(141,0,l)
);
}
);
width = 1533;
}
);
unicode = 307;
}
{
glyphname = kgreenlandic;
layers = (
{
layerId = m001;
shapes = (
{
closed = 1;
nodes = (
(1322,-222,l),
(1390,-165,l),
(777,689,l),
(1083,999,l),
(1161,1075,o),
(1257,1116,o),
(1359,1128,c),
(1359,1209,l),
(829,1209,l),
(829,1122,l),
(882,1121,o),
(945,1119,o),
(945,1074,cs),
(945,1055,o),
(910,1021,o),
(876,988,c),
(525,650,l,{
name = hr01;
})
);
},
{
closed = 1;
nodes = (
(628,0,l),
(628,83,l),
(590,89,l),
(470,108,o),
(455,110,o),
(455,266,c),
(455,946,l),
(455,1095,o),
(474,1110,o),
(601,1123,c),
(601,1208,l,{
name = hr02;
}),
(80,1208,l),
(80,1123,l),
(232,1110,o),
(252,1100,o),
(252,946,c),
(252,266,l),
(252,111,o),
(231,105,o),
(114,88,c),
(80,83,l),
(80,0,l)
);
}
);
width = 1364;
}
);
unicode = 312;
}
{
glyphname = lacute;
layers = (
{
guides = (
{
angle = 90;
pos = (90,0);
}
);
layerId = m001;
shapes = (
{
closed = 1;
nodes = (
(666,0,l),
(666,83,l),
(618,90,l),
(504,107,o),
(464,115,o),
(464,265,cs),
(464,1530,l),
(89,1530,l),
(89,1445,l),
(241,1432,o),
(262,1422,o),
(262,1268,cs),
(262,265,ls),
(262,110,o),
(240,104,o),
(124,88,c),
(89,83,l),
(89,0,l,{
name = hr00;
})
);
},
{
pos = (47,2);
ref = acute.cap;
}
);
userData = {
com.typemytype.robofont.guides = (
{
angle = 90;
isGlobal = 0;
magnetic = 5;
x = 90;
y = 0;
}
);
};
width = 686;
}
);
unicode = 314;
}
{
glyphname = Ldot;
layers = (
{
layerId = m001;
shapes = (
{
closed = 1;
nodes = (
(1118,838,l),
(1296,1019,l),
(1118,1198,l),
(936,1019,l,{
name = hr00;
})
);
},
{
ref = L;
}
);
width = 1364;
}
);
unicode = 319;
}
{
glyphname = Lslash;
layers = (
{
layerId = m001;
shapes = (
{
closed = 1;
nodes = (
(1148,0,ls),
(1194,0,o),
(1225,-29,o),
(1229,-78,c),
(1315,-78,l),
(1392,436,l),
(1299,436,l),
(1213,134,o),
(1185,110,o),
(785,110,cs),
(588,110,o),
(519,116,o),
(519,210,cs),
(519,750,l),
(1110,1072,l),
(1073,1191,l),
(519,890,l),
(519,1301,ls),
(519,1419,o),
(554,1435,o),
(714,1444,c),
(714,1530,l),
(131,1530,l),
(131,1443,l),
(295,1431,o),
(315,1407,o),
(315,1297,cs),
(315,779,l),
(114,670,l),
(152,551,l),
(315,639,l),
(315,235,ls),
(315,122,o),
(302,99,o),
(131,84,c,{
name = hr02;
}),
(131,0,l,{
name = hr01;
})
);
}
);
width = 1354;
}
);
unicode = 321;
}
{
glyphname = lslash;
layers = (
{
guides = (
{
angle = 90;
pos = (88,0);
},
{
angle = 90;
pos = (632,0);
}
);
layerId = m001;
shapes = (
{
closed = 1;
nodes = (
(666,0,l),
(666,83,l),
(618,90,ls),
(504,107,o),
(464,115,o),
(464,265,cs),
(464,952,l),
(701,1089,l),
(665,1208,l),
(464,1093,l),
(464,1730,l),
(89,1730,l),
(89,1645,l),
(241,1632,o),
(262,1622,o),
(262,1468,cs),
(262,977,l),
(20,838,l),
(58,719,l),
(262,836,l),
(262,265,ls),
(262,110,o),
(240,104,o),
(124,88,cs),
(89,83,l),
(89,0,l,{
name = hr00;
})
);
}
);
userData = {
com.typemytype.robofont.guides = (
{
angle = 90;
isGlobal = 0;
magnetic = 5;
x = 88;
y = 0;
},
{
angle = 90;
isGlobal = 0;
magnetic = 5;
x = 632;
y = 0;
}
);
};
width = 686;
}
);
unicode = 322;
}
{
glyphname = Eng;
layers = (
{
guides = (
{
angle = 90;
pos = (1459,0);
}
);
layerId = m001;
shapes = (
{
closed = 1;
nodes = (
(604,0,l),
(604,83,l),
(587,85,o),
(567,89,o),
(550,91,cs),
(445,107,o),
(390,117,o),
(390,241,cs),
(390,1200,l),
(1272,85,l),
(1238,-217,o),
(1087,-418,o),
(772,-489,c),
(792,-587,l),
(1291,-500,o),
(1459,-175,o),
(1459,334,cs),
(1459,1290,ls),
(1459,1427,o),
(1499,1430,o),
(1641,1445,c),
(1641,1530,l),
(1113,1530,l),
(1113,1445,l),
(1265,1432,o),
(1307,1423,o),
(1307,1287,cs),
(1307,350,l),
(323,1588,l),
(238,1558,l),
(238,210,ls),
(238,112,o),
(189,104,o),
(90,89,cs),
(45,83,l),
(45,0,l,{
name = hr00;
})
);
}
);
userData = {
com.typemytype.robofont.guides = (
{
angle = 90;
isGlobal = 0;
magnetic = 5;
x = 1459;
y = 0;
}
);
};
width = 1703;
}
);
unicode = 330;
}
{
glyphname = eng;
layers = (
{
guides = (
{
angle = 90;
pos = (1303,0);
}
);
layerId = m001;
shapes = (
{
closed = 1;
nodes = (
(699,0,l),
(699,83,l),
(673,86,l),
(541,105,o),
(526,110,o),
(526,292,cs),
(526,631,ls),
(526,912,o),
(683,1060,o),
(842,1159,c),
(1074,976,o),
(1107,813,o),
(1105,423,cs),
(1104,236,ls),
(1102,-149,o),
(958,-406,o),
(616,-489,c),
(636,-587,l),
(1135,-497,o),
(1303,-163,o),
(1303,364,cs),
(1303,435,ls),
(1303,918,o),
(1152,1142,o),
(852,1300,c),
(681,1214,o),
(585,1116,o),
(526,1000,c),
(526,1208,l),
(152,1208,l),
(152,1122,l),
(304,1111,o),
(323,1095,o),
(323,973,cs),
(323,260,ls),
(323,110,o),
(303,104,o),
(183,87,cs),
(175,86,o),
(163,85,o),
(154,83,cs),
(152,82,l),
(152,0,l,{
name = hr00;
})
);
}
);
userData = {
com.typemytype.robofont.guides = (
{
angle = 90;
isGlobal = 0;
magnetic = 5;
x = 1303;
y = 0;
}
);
};
width = 1538;
}
);
unicode = 331;
}
{
glyphname = OE;
layers = (
{
layerId = m001;
shapes = (
{
closed = 1;
nodes = (
(112,356,o),
(341,-26,o),
(845,-26,cs),
(880,-26,o),
(939,-21,o),
(1004,-16,cs),
(1083,-9,o),
(1177,0,o),
(1255,0,c),
(2173,0,l),
(2268,425,l),
(2174,425,l),
(2063,140,o),
(1961,112,o),
(1677,112,c),
(1369,112,l),
(1369,704,l),
(1908,704,l),
(1935,817,l),
(1369,817,l),
(1369,1418,l),
(1781,1418,l),
(1963,1418,o),
(2025,1393,o),
(2025,1272,cs),
(2025,1227,o),
(2017,1171,o),
(2004,1099,c),
(2100,1099,l,{
name = hr02;
}),
(2205,1530,l),
(1259,1530,l),
(1220,1530,o),
(1147,1538,o),
(1076,1546,cs),
(990,1555,o),
(899,1563,o),
(845,1563,cs,{
name = hr03;
}),
(345,1563,o),
(112,1219,o),
(112,789,cs,{
name = hr01;
})
);
},
{
closed = 1;
nodes = (
(436,85,o),
(350,429,o),
(350,789,cs),
(350,1142,o),
(438,1455,o),
(847,1455,cs),
(979,1455,o),
(1088,1426,o),
(1166,1379,c),
(1166,166,l),
(1089,116,o),
(978,85,o),
(847,85,cs)
);
}
);
width = 2379;
}
);
unicode = 338;
}
{
glyphname = oe;
layers = (
{
anchors = (
{
name = btm;
pos = (1088,0);
},
{
name = top;
pos = (1088,1530);
}
);
layerId = m001;
shapes = (
{
closed = 1;
nodes = (
(133,296,o),
(318,-24,o),
(692,-24,cs),
(918,-24,o),
(1074,92,o),
(1160,256,c),
(1249,86,o),
(1413,-20,o),
(1632,-20,cs),
(1819,-20,o),
(1953,38,o),
(2043,149,c),
(1986,206,l),
(1901,133,o),
(1789,110,o),
(1664,110,cs),
(1420,110,o),
(1313,302,o),
(1294,519,c),
(1846,523,o),
(2036,742,o),
(2036,942,cs),
(2036,1111,o),
(1898,1228,o),
(1640,1228,cs),
(1430,1228,o),
(1262,1118,o),
(1168,941,c,{
name = hr02;
}),
(1083,1108,o),
(925,1228,o),
(692,1228,cs),
(322,1228,o),
(133,927,o),
(133,609,cs,{
name = hr01;
})
);
},
{
closed = 1;
nodes = (
(1296,861,o),
(1401,1121,o),
(1619,1121,cs),
(1782,1121,o),
(1831,1020,o),
(1831,944,cs),
(1831,706,o),
(1547,632,o),
(1291,626,c,{
name = hr04;
})
);
},
{
closed = 1;
nodes = (
(423,87,o),
(361,368,o),
(361,609,cs),
(361,850,o),
(425,1120,o),
(694,1120,cs),
(963,1120,o),
(1028,861,o),
(1028,609,cs),
(1028,365,o),
(963,87,o),
(694,87,cs)
);
}
);
width = 2216;
}
);
unicode = 339;
}
{
glyphname = Tbar;
layers = (
{
layerId = m001;
shapes = (
{
closed = 1;
nodes = (
(1133,0,l),
(1133,87,l),
(886,112,o),
(865,114,o),
(865,269,cs),
(865,708,l),
(1280,708,l),
(1280,833,l),
(865,833,l),
(865,1424,l),
(1020,1424,ls),
(1203,1424,o),
(1264,1394,o),
(1264,1273,cs),
(1264,1228,o),
(1256,1171,o),
(1243,1100,c),
(1339,1100,l),
(1444,1530,l),
(178,1530,l),
(66,1101,l),
(164,1101,l),
(176,1132,ls),
(244,1298,o),
(293,1424,o),
(486,1424,cs),
(662,1424,l),
(662,833,l),
(231,833,l),
(231,708,l),
(662,708,l),
(662,269,ls),
(662,115,o),
(631,109,o),
(403,87,c),
(403,0,l,{
name = hr00;
})
);
}
);
width = 1533;
}
);
unicode = 358;
}
{
glyphname = tbar;
layers = (
{
layerId = m001;
shapes = (
{
closed = 1;
nodes = (
(795,0,l),
(795,93,l),
(518,99,o),
(493,105,o),
(493,279,cs),
(493,708,l),
(853,708,l),
(853,833,l),
(493,833,l),
(493,1086,l),
(855,1086,l),
(855,1208,l),
(493,1208,l),
(493,1568,l),
(348,1508,l),
(337,1378,o),
(302,1239,o),
(288,1221,c),
(289,1221,l),
(269,1199,o),
(121,1178,o),
(121,1178,c),
(121,1086,l),
(292,1086,l),
(292,833,l),
(121,833,l),
(121,708,l),
(292,708,l),
(292,276,ls),
(292,107,o),
(280,109,o),
(159,83,c),
(159,0,l,{
name = hr00;
})
);
}
);
width = 856;
}
);
unicode = 359;
}
{
glyphname = Uogonek;
layers = (
{
layerId = m001;
shapes = (
{
closed = 1;
nodes = (
(572,-475,o),
(670,-568,o),
(826,-568,cs),
(914,-568,o),
(1035,-528,o),
(1117,-481,c),
(1083,-402,l),
(1021,-432,o),
(955,-444,o),
(905,-444,cs),
(824,-444,o),
(776,-379,o),
(776,-299,cs),
(776,-208,o),
(817,-75,o),
(949,9,cs),
(1342,260,o),
(1500,515,o),
(1500,1254,cs),
(1500,1403,o),
(1509,1426,o),
(1640,1443,c),
(1640,1530,l),
(1129,1530,l),
(1129,1443,l),
(1266,1430,o),
(1289,1396,o),
(1289,1274,cs),
(1289,585,o),
(1264,430,o),
(857,96,c),
(446,423,o),
(403,594,o),
(403,1274,cs),
(403,1396,o),
(425,1430,o),
(564,1443,c),
(564,1530,l),
(51,1530,l),
(51,1443,l),
(192,1431,o),
(192,1393,o),
(192,1254,cs),
(192,498,o),
(361,247,o),
(789,-8,c),
(675,-90,o),
(572,-207,o),
(572,-342,cs,{
name = hr00;
})
);
}
);
width = 1700;
}
);
unicode = 370;
}
{
glyphname = uogonek;
layers = (
{
layerId = m001;
shapes = (
{
closed = 1;
nodes = (
(400,-475,o),
(498,-568,o),
(654,-568,cs),
(742,-568,o),
(863,-528,o),
(945,-481,c),
(911,-402,l),
(849,-432,o),
(783,-444,o),
(733,-444,cs),
(652,-444,o),
(604,-379,o),
(604,-299,cs),
(604,-206,o),
(657,-71,o),
(787,16,cs),
(1055,195,o),
(1162,388,o),
(1162,933,cs),
(1162,1083,o),
(1170,1104,o),
(1301,1122,c),
(1301,1208,l),
(811,1208,l),
(811,1122,l),
(948,1109,o),
(961,1075,o),
(961,953,cs,{
name = hr02;
}),
(961,451,o),
(932,328,o),
(680,90,c),
(429,328,o),
(399,451,o),
(399,953,cs),
(399,1075,o),
(411,1109,o),
(550,1122,c),
(550,1208,l),
(58,1208,l),
(58,1122,l),
(198,1110,o),
(198,1072,o),
(198,933,cs),
(198,361,o),
(314,180,o),
(613,-11,c),
(501,-93,o),
(400,-209,o),
(400,-342,cs,{
name = hr01;
})
);
}
);
width = 1361;
}
);
unicode = 371;
}
{
glyphname = florin;
layers = (
{
layerId = m001;
shapes = (
{
closed = 1;
nodes = (
(317,-340,l),
(499,1086,l),
(826,1086,l),
(841,1208,l),
(512,1208,l),
(537,1397,l),
(562,1595,o),
(663,1658,o),
(872,1692,c),
(926,1708,l),
(941,1815,l),
(884,1815,l),
(571,1815,o),
(378,1712,o),
(332,1350,c),
(324,1294,l),
(315,1223,o),
(284,1199,o),
(141,1179,c),
(129,1086,l),
(296,1086,l),
(115,-340,l,{
name = hr00;
})
);
}
);
width = 854;
}
);
unicode = 402;
}
{
glyphname = jdotless;
layers = (
{
anchors = (
{
name = btm;
pos = (295,0);
},
{
name = top;
pos = (360,1530);
}
);
layerId = m001;
shapes = (
{
closed = 1;
nodes = (
(270,-172,o),
(218,-237,o),
(28,-418,cs),
(3,-441,o),
(-24,-468,o),
(-54,-497,c),
(0,-565,l),
(390,-325,o),
(472,-229,o),
(472,310,cs),
(472,944,ls),
(472,1104,o),
(494,1107,o),
(645,1122,c),
(645,1208,l),
(97,1208,l),
(97,1122,l),
(242,1109,o),
(270,1100,o),
(270,966,cs),
(270,231,ls,{
name = hr00;
})
);
}
);
width = 680;
}
);
unicode = 567;
}
{
glyphname = circumflex;
layers = (
{
anchors = (
{
name = _top;
pos = (603,1530);
}
);
layerId = m001;
shapes = (
{
closed = 1;
nodes = (
(603,1706,l),
(873,1364,l),
(958,1406,l),
(732,1859,l),
(476,1859,l),
(248,1406,l),
(333,1364,l,{
name = hr00;
})
);
}
);
width = 1189;
}
);
unicode = 710;
}
{
glyphname = caron;
layers = (
{
anchors = (
{
name = _top;
pos = (603,1530);
}
);
layerId = m001;
shapes = (
{
closed = 1;
nodes = (
(738,1364,l),
(964,1817,l),
(879,1859,l),
(609,1517,l),
(339,1859,l),
(254,1817,l),
(482,1364,l,{
name = hr00;
})
);
}
);
width = 1207;
}
);
unicode = 711;
}
{
glyphname = breve;
layers = (
{
anchors = (
{
name = _top;
pos = (593,1530);
}
);
guides = (
{
pos = (0,1827);
}
);
layerId = m001;
shapes = (
{
closed = 1;
nodes = (
(915,1488,o),
(937,1767,o),
(943,1835,c),
(838,1835,l),
(817,1721,o),
(730,1649,o),
(593,1649,cs),
(457,1649,o),
(370,1721,o),
(349,1835,c),
(244,1835,l),
(250,1767,o),
(272,1488,o),
(589,1488,cs,{
name = hr00;
})
);
}
);
userData = {
com.typemytype.robofont.guides = (
{
angle = 0;
isGlobal = 0;
magnetic = 5;
x = 0;
y = 1827;
}
);
};
width = 1188;
}
);
unicode = 728;
}
{
glyphname = dotaccent;
layers = (
{
anchors = (
{
name = _top;
pos = (306,1530);
}
);
layerId = m001;
shapes = (
{
closed = 1;
nodes = (
(486,1651,l),
(308,1830,l),
(126,1651,l),
(308,1471,l,{
name = hr00;
})
);
}
);
width = 612;
}
);
unicode = 729;
}
{
glyphname = ring;
layers = (
{
anchors = (
{
name = _top;
pos = (509,1530);
}
);
layerId = m001;
shapes = (
{
closed = 1;
nodes = (
(658,1360,o),
(798,1446,o),
(798,1618,cs),
(798,1788,o),
(658,1872,o),
(509,1872,cs),
(359,1872,o),
(221,1788,o),
(221,1618,cs),
(221,1446,o),
(359,1360,o),
(509,1360,cs,{
name = hr00;
})
);
},
{
closed = 1;
nodes = (
(423,1459,o),
(345,1510,o),
(345,1613,cs),
(345,1714,o),
(423,1766,o),
(509,1766,cs),
(594,1766,o),
(674,1714,o),
(674,1613,cs),
(674,1510,o),
(594,1459,o),
(509,1459,cs)
);
}
);
width = 1020;
}
);
unicode = 730;
}
{
glyphname = ogonek;
layers = (
{
layerId = m001;
shapes = (
{
closed = 1;
nodes = (
(248,-495,o),
(342,-568,o),
(492,-568,cs),
(580,-568,o),
(701,-528,o),
(783,-481,c),
(749,-402,l),
(687,-432,o),
(621,-444,o),
(571,-444,cs),
(496,-444,o),
(452,-399,o),
(452,-319,cs),
(452,-210,o),
(579,-61,o),
(755,14,c),
(729,77,l),
(589,26,o),
(248,-133,o),
(248,-362,cs,{
name = hr00;
})
);
}
);
width = 1019;
}
);
unicode = 731;
}
{
glyphname = tilde;
layers = (
{
anchors = (
{
name = _top;
pos = (597,1530);
}
);
layerId = m001;
shapes = (
{
closed = 1;
nodes = (
(318,1438,l),
(311,1510,o),
(375,1555,o),
(433,1555,cs),
(552,1555,o),
(593,1404,o),
(747,1404,cs),
(890,1404,o),
(1022,1532,o),
(989,1691,c),
(876,1691,l,{
name = hr02;
}),
(883,1618,o),
(829,1573,o),
(771,1573,cs),
(662,1573,o),
(599,1725,o),
(446,1725,cs),
(303,1725,o),
(172,1596,o),
(205,1438,c,{
name = hr01;
})
);
}
);
width = 1195;
}
);
unicode = 732;
}
{
glyphname = hungarumlaut;
layers = (
{
anchors = (
{
name = _top;
pos = (510,1530);
}
);
guides = (
{
pos = (0,1430);
}
);
layerId = m001;
shapes = (
{
closed = 1;
nodes = (
(1008,1780,l),
(833,1880,l),
(597,1414,l),
(695,1359,l,{
name = hr00;
})
);
},
{
closed = 1;
nodes = (
(563,1780,l),
(388,1880,l),
(152,1414,l),
(250,1359,l)
);
}
);
userData = {
com.typemytype.robofont.guides = (
{
angle = 0;
isGlobal = 0;
magnetic = 5;
x = 0;
y = 1430;
}
);
};
width = 1022;
}
);
unicode = 733;
}
{
glyphname = Delta;
layers = (
{
layerId = m001;
shapes = (
{
closed = 1;
nodes = (
(1504,0,l),
(1504,87,l),
(1407,101,o),
(1384,137,o),
(1349,223,cs),
(790,1588,l),
(718,1589,l),
(171,234,ls),
(131,135,o),
(123,99,o),
(26,87,c),
(26,0,l,{
name = hr00;
})
);
},
{
closed = 1;
nodes = (
(733,1256,l),
(1164,153,l),
(315,153,l)
);
}
);
width = 1530;
}
);
unicode = (916,8710);
}
{
glyphname = Omega;
layers = (
{
guides = (
{
pos = (0,896);
},
{
angle = 90;
pos = (630,0);
},
{
angle = 90;
pos = (1075,0);
},
{
angle = 90;
pos = (139,0);
},
{
angle = 90;
pos = (1572,0);
}
);
layerId = m001;
shapes = (
{
closed = 1;
nodes = (
(730,-1,l),
(730,254,l),
(476,377,o),
(378,616,o),
(378,897,cs),
(378,1123,o),
(415,1441,o),
(857,1441,cs),
(1298,1441,o),
(1338,1123,o),
(1338,898,cs),
(1338,612,o),
(1235,371,o),
(974,252,c),
(974,-1,l),
(1525,-1,l),
(1636,380,l),
(1535,380,l),
(1487,260,o),
(1447,174,o),
(1327,174,c),
(1075,174,l),
(1075,194,l),
(1378,340,o),
(1569,588,o),
(1569,899,cs),
(1569,1189,o),
(1394,1551,o),
(855,1551,cs),
(315,1551,o),
(142,1189,o),
(142,896,cs),
(142,591,o),
(330,342,o),
(630,195,c),
(630,174,l),
(377,174,l),
(257,174,o),
(217,260,o),
(169,380,c),
(68,380,l),
(179,-1,l,{
name = hr00;
})
);
}
);
userData = {
com.typemytype.robofont.guides = (
{
angle = 0;
isGlobal = 0;
magnetic = 5;
x = 0;
y = 896;
},
{
angle = 90;
isGlobal = 0;
magnetic = 5;
x = 630;
y = 0;
},
{
angle = 90;
isGlobal = 0;
magnetic = 5;
x = 1075;
y = 0;
},
{
angle = 90;
isGlobal = 0;
magnetic = 5;
x = 139;
y = 0;
},
{
angle = 90;
isGlobal = 0;
magnetic = 5;
x = 1572;
y = 0;
}
);
};
width = 1703;
}
);
unicode = (937,8486);
}
{
glyphname = pi;
layers = (
{
layerId = m001;
shapes = (
{
closed = 1;
nodes = (
(740,0,l),
(740,83,l),
(701,89,ls),
(583,108,o),
(568,111,o),
(568,266,cs),
(568,1083,l),
(1134,1083,l),
(1134,266,ls,{
name = hr02;
}),
(1134,110,o),
(1112,104,o),
(996,88,cs,{
name = hr03;
}),
(961,83,l),
(961,0,l,{
name = hr04;
}),
(1508,0,l),
(1508,83,l),
(1469,89,ls),
(1351,108,o),
(1336,111,o),
(1336,266,cs),
(1336,944,ls),
(1336,1104,o),
(1357,1107,o),
(1508,1122,c),
(1508,1208,l),
(193,1208,l),
(193,1122,l),
(345,1110,o),
(366,1100,o),
(366,944,cs,{
name = hr05;
}),
(366,266,ls),
(366,110,o),
(344,104,o),
(228,88,cs),
(193,83,l),
(193,0,l,{
name = hr01;
})
);
}
);
width = 1701;
}
);
unicode = 960;
}
{
glyphname = uni1E03;
layers = (
{
layerId = m001;
shapes = (
{
closed = 1;
nodes = (
(1084,1651,l),
(906,1830,l),
(724,1651,l,{
name = hr02;
}),
(906,1471,l,{
name = hr01;
})
);
},
{
closed = 1;
nodes = (
(361,0,ls),
(408,0,o),
(475,-7,o),
(540,-14,cs),
(615,-22,o),
(697,-30,o),
(764,-30,cs),
(1130,-30,o),
(1325,298,o),
(1325,621,cs),
(1325,937,o),
(1146,1245,o),
(821,1245,cs),
(694,1245,o),
(557,1191,o),
(478,1105,c),
(478,1475,ls),
(478,1614,o),
(516,1613,o),
(650,1627,c),
(650,1710,l),
(101,1710,l,{
name = hr03;
}),
(101,1627,l),
(237,1615,o),
(274,1612,o),
(274,1475,cs),
(274,249,ls,{
name = hr04;
}),
(274,122,o),
(259,97,o),
(101,83,c),
(101,0,l)
);
},
{
closed = 1;
nodes = (
(478,849,ls,{
name = hr05;
}),
(478,1003,o),
(637,1128,o),
(812,1128,cs),
(1031,1128,o),
(1100,860,o),
(1100,621,cs),
(1100,338,o),
(1004,86,o),
(768,86,cs),
(526,86,o),
(478,183,o),
(478,293,cs)
);
}
);
width = 1362;
}
);
unicode = 7683;
}
{
glyphname = uni1E0B;
layers = (
{
layerId = m001;
shapes = (
{
closed = 1;
nodes = (
(634,1651,l),
(456,1830,l),
(274,1651,l),
(456,1471,l,{
name = hr01;
})
);
},
{
closed = 1;
nodes = (
(671,-30,o),
(753,-22,o),
(828,-14,cs),
(893,-7,o),
(960,0,o),
(1007,0,cs),
(1267,0,l),
(1267,83,l),
(1109,97,o),
(1094,122,o),
(1094,249,cs),
(1094,1475,ls),
(1094,1612,o),
(1131,1615,o),
(1267,1627,c,{
name = hr02;
}),
(1267,1710,l),
(718,1710,l,{
name = hr03;
}),
(718,1627,l),
(852,1613,o),
(890,1614,o),
(890,1475,cs),
(890,1105,l),
(811,1191,o),
(674,1245,o),
(547,1245,cs),
(222,1245,o),
(43,937,o),
(43,621,cs,{
name = hr04;
}),
(43,298,o),
(238,-30,o),
(604,-30,cs)
);
},
{
closed = 1;
nodes = (
(364,86,o),
(268,338,o),
(268,621,cs),
(268,860,o),
(337,1128,o),
(556,1128,cs),
(731,1128,o),
(890,1003,o),
(890,849,cs),
(890,293,ls),
(890,183,o),
(842,86,o),
(600,86,cs,{
name = hr05;
})
);
}
);
width = 1363;
}
);
unicode = 7691;
}
{
glyphname = uni1E1F;
layers = (
{
layerId = m001;
shapes = (
{
closed = 1;
nodes = (
(724,0,l),
(724,85,l),
(507,100,o),
(476,113,o),
(476,252,cs),
(476,855,l),
(813,855,l),
(813,977,l),
(474,977,l),
(474,1133,ls),
(474,1331,o),
(567,1394,o),
(772,1428,c),
(894,1444,l),
(895,1551,l),
(768,1551,ls),
(455,1551,o),
(275,1448,o),
(275,1086,c),
(275,1063,ls),
(275,992,o),
(247,968,o),
(106,948,c),
(106,855,l,{
name = hr02;
}),
(273,855,l),
(273,231,ls),
(273,118,o),
(250,96,o),
(98,85,c),
(98,0,l,{
name = hr01;
})
);
},
{
pos = (166,142);
ref = dotaccent;
}
);
width = 854;
}
);
unicode = 7711;
}
{
glyphname = uni1E6B;
layers = (
{
layerId = m001;
shapes = (
{
closed = 1;
nodes = (
(578,1793,l),
(400,1972,l),
(218,1793,l),
(400,1613,l,{
name = hr01;
})
);
},
{
closed = 1;
nodes = (
(795,0,l),
(795,93,l),
(518,99,o),
(493,105,o),
(493,279,c,{
name = hr02;
}),
(493,1086,l),
(855,1086,l),
(855,1208,l),
(493,1208,l,{
name = hr03;
}),
(493,1507,l),
(348,1508,l),
(337,1378,o),
(302,1239,o),
(288,1221,c),
(289,1221,l),
(269,1199,o),
(121,1178,o),
(121,1178,c),
(121,1086,l),
(292,1086,l),
(292,276,l,{
name = hr04;
}),
(292,107,o),
(280,109,o),
(159,83,c),
(159,0,l)
);
}
);
width = 856;
}
);
unicode = 7787;
}
{
glyphname = endash;
layers = (
{
layerId = m001;
shapes = (
{
closed = 1;
nodes = (
(1304,753,l),
(1345,919,l),
(224,919,l),
(184,753,l,{
name = hr00;
})
);
}
);
width = 1530;
}
);
unicode = 8211;
}
{
glyphname = emdash;
layers = (
{
layerId = m001;
shapes = (
{
closed = 1;
nodes = (
(1809,753,l),
(1850,919,l),
(227,919,l),
(188,753,l,{
name = hr00;
})
);
}
);
width = 2039;
}
);
unicode = 8212;
}
{
glyphname = quoteleft;
layers = (
{
layerId = m001;
shapes = (
{
closed = 1;
nodes = (
(454,1079,l),
(366,1166,o),
(326,1261,o),
(326,1358,cs),
(326,1454,o),
(366,1553,o),
(435,1652,c),
(358,1705,l),
(171,1494,o),
(106,1253,o),
(95,1079,c),
(274,901,l,{
name = hr00;
})
);
}
);
width = 512;
}
);
unicode = 8216;
}
{
glyphname = dagger;
layers = (
{
guides = (
{
pos = (0,617);
},
{
angle = 90;
pos = (503,0);
},
{
angle = 90;
pos = (856,0);
},
{
angle = 90;
pos = (919,0);
},
{
angle = 90;
pos = (440,0);
}
);
layerId = m001;
shapes = (
{
closed = 1;
nodes = (
(725,-464,l),
(725,382,o),
(755,524,o),
(857,606,c),
(857,688,l),
(857,688,o),
(754,705,o),
(750,1063,c,{
name = hr02;
}),
(823,1063,l),
(1019,1063,o),
(1023,1040,o),
(1048,870,c),
(1129,870,l),
(1129,1389,l),
(1048,1389,l),
(1021,1217,o),
(1018,1191,o),
(823,1191,c),
(748,1191,l),
(748,1353,l),
(748,1551,o),
(791,1553,o),
(960,1579,c),
(962,1580,l),
(962,1658,l,{
name = hr03;
}),
(394,1658,l),
(394,1579,l),
(567,1552,o),
(608,1548,o),
(608,1353,c),
(608,1191,l),
(506,1191,l),
(349,1191,o),
(321,1251,o),
(314,1389,c),
(231,1389,l),
(231,870,l),
(314,870,l),
(328,1035,o),
(356,1063,o),
(535,1063,c,{
name = hr04;
}),
(608,1063,l),
(605,690,o),
(502,689,o),
(502,689,c),
(501,606,l,{
name = hr05;
}),
(603,524,o),
(630,382,o),
(630,-464,c,{
name = hr01;
})
);
}
);
userData = {
com.typemytype.robofont.guides = (
{
angle = 0;
isGlobal = 0;
magnetic = 5;
x = 0;
y = 617;
},
{
angle = 90;
isGlobal = 0;
magnetic = 5;
x = 503;
y = 0;
},
{
angle = 90;
isGlobal = 0;
magnetic = 5;
x = 856;
y = 0;
},
{
angle = 90;
isGlobal = 0;
magnetic = 5;
x = 919;
y = 0;
},
{
angle = 90;
isGlobal = 0;
magnetic = 5;
x = 440;
y = 0;
}
);
};
width = 1360;
}
);
unicode = 8224;
}
{
glyphname = daggerdbl;
layers = (
{
layerId = m001;
shapes = (
{
closed = 1;
nodes = (
(312,-46,l),
(339,125,o),
(342,143,o),
(537,143,c),
(610,143,l),
(610,-11,l),
(610,-209,o),
(567,-219,o),
(396,-246,c),
(396,-323,l),
(964,-323,l),
(964,-246,l),
(791,-219,o),
(750,-206,o),
(750,-11,c),
(750,143,l),
(854,143,l),
(1011,143,o),
(1039,91,o),
(1046,-46,c),
(1129,-46,l),
(1129,468,l),
(1046,468,l),
(1032,302,o),
(1004,272,o),
(825,272,c),
(750,272,l),
(753,597,o),
(856,624,o),
(856,624,c),
(857,710,l),
(857,710,o),
(755,745,o),
(750,1062,c),
(823,1062,l),
(1019,1062,o),
(1023,1038,o),
(1048,869,c),
(1129,869,l),
(1129,1388,l),
(1048,1388,l),
(1021,1217,o),
(1018,1191,o),
(823,1191,c),
(748,1191,l),
(748,1353,l),
(748,1551,o),
(791,1553,o),
(960,1579,c),
(962,1580,l),
(962,1657,l),
(394,1657,l),
(394,1579,l),
(567,1552,o),
(608,1547,o),
(608,1353,c),
(608,1191,l),
(506,1191,l),
(349,1191,o),
(321,1251,o),
(314,1388,c),
(231,1388,l),
(231,869,l),
(314,869,l),
(328,1034,o),
(356,1062,o),
(535,1062,c),
(608,1062,l),
(605,733,o),
(502,710,o),
(502,710,c),
(501,626,l),
(501,626,o),
(603,585,o),
(608,272,c),
(537,272,l),
(341,272,o),
(337,299,o),
(312,468,c),
(231,468,l),
(231,-46,l,{
name = hr00;
})
);
}
);
width = 1360;
}
);
unicode = 8225;
}
{
glyphname = bullet;
layers = (
{
layerId = m001;
shapes = (
{
closed = 1;
nodes = (
(701,617,o),
(685,767,o),
(643,856,cs),
(593,958,o),
(447,1037,o),
(324,1115,c),
(389,1230,l),
(522,1152,o),
(658,1084,o),
(758,1084,cs),
(871,1084,o),
(1012,1161,o),
(1141,1230,c),
(1208,1116,l),
(1074,1040,o),
(951,953,o),
(896,870,cs),
(834,774,o),
(837,611,o),
(832,465,c),
(700,464,l,{
name = hr00;
})
);
}
);
width = 1532;
}
);
unicode = 8226;
}
{
glyphname = ellipsis;
layers = (
{
layerId = m001;
shapes = (
{
closed = 1;
nodes = (
(1281,-58,l),
(1459,123,l),
(1281,302,l),
(1099,123,l,{
name = hr00;
})
);
},
{
closed = 1;
nodes = (
(769,-58,l),
(947,123,l),
(769,302,l),
(587,123,l)
);
},
{
closed = 1;
nodes = (
(257,-58,l),
(435,123,l),
(257,302,l),
(75,123,l)
);
}
);
width = 1536;
}
);
unicode = 8230;
}
{
glyphname = perthousand;
layers = (
{
layerId = m001;
shapes = (
{
closed = 1;
nodes = (
(776,-70,l),
(1601,1543,l),
(1449,1543,l),
(622,-70,l,{
name = hr00;
})
);
},
{
closed = 1;
nodes = (
(876,673,o),
(1014,877,o),
(1014,1085,cs),
(1014,1291,o),
(876,1499,o),
(610,1499,cs),
(344,1499,o),
(207,1291,o),
(207,1085,cs),
(207,883,o),
(341,673,o),
(610,673,cs)
);
},
{
closed = 1;
nodes = (
(442,771,o),
(404,941,o),
(404,1085,cs),
(404,1229,o),
(444,1404,o),
(613,1404,cs),
(780,1404,o),
(821,1236,o),
(821,1085,cs),
(821,939,o),
(780,771,o),
(613,771,cs)
);
},
{
closed = 1;
nodes = (
(1207,154,o),
(1343,-55,o),
(1611,-55,cs),
(1766,-55,o),
(1878,14,o),
(1944,113,c),
(2010,15,o),
(2121,-55,o),
(2276,-55,cs),
(2543,-55,o),
(2680,149,o),
(2680,357,cs),
(2680,563,o),
(2543,771,o),
(2276,771,cs),
(2121,771,o),
(2009,700,o),
(1943,601,c),
(1877,700,o),
(1766,771,o),
(1611,771,cs),
(1345,771,o),
(1207,563,o),
(1207,357,cs)
);
},
{
closed = 1;
nodes = (
(2069,500,o),
(2109,675,o),
(2278,675,cs),
(2446,675,o),
(2486,508,o),
(2486,357,cs),
(2486,212,o),
(2446,41,o),
(2278,41,cs),
(2107,41,o),
(2069,214,o),
(2069,357,cs)
);
},
{
closed = 1;
nodes = (
(1404,500,o),
(1444,675,o),
(1613,675,cs),
(1781,675,o),
(1821,508,o),
(1821,357,cs),
(1821,212,o),
(1781,41,o),
(1613,41,cs),
(1442,41,o),
(1404,214,o),
(1404,357,cs)
);
}
);
width = 2903;
}
);
unicode = 8240;
}
{
glyphname = guilsinglleft;
layers = (
{
layerId = m001;
shapes = (
{
closed = 1;
nodes = (
(761,95,l),
(836,148,l),
(479,651,l),
(836,1156,l),
(761,1209,l),
(149,651,l,{
name = hr00;
})
);
}
);
width = 1025;
}
);
unicode = 8249;
}
{
glyphname = guilsinglright;
layers = (
{
layerId = m001;
shapes = (
{
closed = 1;
nodes = (
(264,95,l),
(876,651,l),
(264,1209,l),
(189,1156,l),
(546,651,l),
(189,148,l,{
name = hr00;
})
);
}
);
width = 1025;
}
);
unicode = 8250;
}
{
glyphname = fraction;
layers = (
{
layerId = m001;
shapes = (
{
closed = 1;
nodes = (
(207,-334,l),
(971,1972,l),
(819,1972,l),
(53,-334,l,{
name = hr00;
})
);
}
);
width = 1025;
}
);
unicode = 8260;
}
{
glyphname = euro;
layers = (
{
guides = (
{
angle = 90;
pos = (141,0);
}
);
layerId = m001;
shapes = (
{
closed = 1;
nodes = (
(352,584,l),
(414,249,o),
(660,-24,o),
(1079,-24,cs),
(1326,-24,o),
(1509,73,o),
(1605,226,c),
(1555,293,l),
(1438,170,o),
(1306,116,o),
(1121,116,cs),
(799,116,o),
(637,340,o),
(588,584,c),
(1208,584,l),
(1235,697,l),
(573,697,l),
(572,714,o),
(572,731,o),
(572,749,cs),
(572,775,o),
(573,801,o),
(574,828,c),
(1272,828,l),
(1299,941,l),
(587,941,l),
(630,1207,o),
(773,1443,o),
(1080,1443,cs),
(1226,1443,o),
(1394,1377,o),
(1430,1253,c),
(1451,1176,o),
(1447,1099,o),
(1441,1024,c),
(1537,1024,l),
(1669,1554,l),
(1574,1554,l),
(1540,1507,o),
(1501,1472,o),
(1463,1472,cs),
(1425,1472,o),
(1393,1486,o),
(1356,1502,c),
(1292,1524,o),
(1215,1552,o),
(1083,1552,cs),
(673,1552,o),
(424,1269,o),
(356,941,c),
(140,941,l),
(140,828,l),
(340,828,l),
(338,804,o),
(337,780,o),
(337,756,cs),
(337,736,o),
(338,716,o),
(339,697,c),
(140,697,l),
(140,584,l,{
name = hr00;
})
);
}
);
userData = {
com.typemytype.robofont.guides = (
{
angle = 90;
isGlobal = 0;
magnetic = 5;
x = 141;
y = 0;
}
);
};
width = 1872;
}
);
unicode = 8364;
}
{
glyphname = trademark;
layers = (
{
guides = (
{
pos = (0,1748);
},
{
pos = (0,1420);
},
{
pos = (0,908);
}
);
layerId = m001;
shapes = (
{
closed = 1;
nodes = (
(1293,820,l),
(1293,907,l),
(1230,915,o),
(1181,924,o),
(1186,968,c),
(1282,1418,l),
(1504,796,l),
(1552,796,l),
(1771,1418,l),
(1854,966,l),
(1860,929,o),
(1850,915,o),
(1776,906,c),
(1776,820,l),
(2095,820,l),
(2095,907,l),
(2030,913,o),
(2014,918,o),
(2005,975,c),
(1836,1716,l),
(1794,1716,l),
(1555,1060,l),
(1310,1716,l),
(1252,1716,l),
(1070,960,l),
(1063,913,o),
(1023,911,o),
(980,907,c),
(980,820,l,{
name = hr00;
})
);
},
{
closed = 1;
nodes = (
(790,820,l),
(790,907,l),
(674,921,o),
(665,922,o),
(665,972,c),
(665,1589,l),
(770,1589,l),
(843,1589,o),
(865,1537,o),
(865,1489,cs),
(865,1467,o),
(862,1444,o),
(856,1418,c),
(944,1418,l),
(1006,1676,l),
(245,1676,l),
(178,1418,l),
(269,1418,l),
(313,1520,o),
(337,1589,o),
(414,1589,c),
(514,1589,l),
(514,972,l),
(514,923,o),
(498,916,o),
(390,907,c),
(390,820,l)
);
}
);
userData = {
com.typemytype.robofont.guides = (
{
angle = 0;
isGlobal = 0;
magnetic = 5;
x = 0;
y = 1748;
},
{
angle = 0;
isGlobal = 0;
magnetic = 5;
x = 0;
y = 1420;
},
{
angle = 0;
isGlobal = 0;
magnetic = 5;
x = 0;
y = 908;
}
);
};
width = 2215;
}
);
unicode = 8482;
}
{
glyphname = partialdiff;
layers = (
{
layerId = m001;
shapes = (
{
closed = 1;
nodes = (
(172,193,o),
(365,-26,o),
(676,-26,cs),
(1050,-26,o),
(1241,374,o),
(1241,773,cs),
(1241,1180,o),
(1037,1553,o),
(659,1553,cs),
(477,1553,o),
(333,1462,o),
(259,1316,c),
(325,1268,l),
(404,1376,o),
(498,1423,o),
(627,1423,cs),
(873,1423,o),
(983,1107,o),
(1003,833,c),
(923,994,o),
(733,1052,o),
(634,1052,cs),
(311,1052,o),
(172,732,o),
(172,525,cs,{
name = hr00;
})
);
},
{
closed = 1;
nodes = (
(398,651,o),
(451,920,o),
(678,920,cs),
(774,920,o),
(939,851,o),
(1005,696,c),
(999,371,o),
(920,73,o),
(670,73,cs),
(451,73,o),
(398,285,o),
(398,481,cs)
);
}
);
width = 1364;
}
);
unicode = 8706;
}
{
glyphname = product;
layers = (
{
layerId = m001;
shapes = (
{
closed = 1;
nodes = (
(704,0,l),
(704,83,l),
(665,89,ls),
(547,108,o),
(532,111,o),
(532,266,cs),
(532,1405,l),
(1168,1405,l),
(1168,266,ls),
(1168,110,o),
(1146,104,o),
(1030,88,cs),
(995,83,l),
(995,0,l),
(1542,0,l),
(1542,83,l),
(1503,89,ls),
(1385,108,o),
(1370,111,o),
(1370,266,cs),
(1370,1266,ls),
(1370,1426,o),
(1391,1429,o),
(1542,1444,c),
(1542,1530,l),
(157,1530,l),
(157,1444,l),
(309,1432,o),
(330,1422,o),
(330,1266,cs),
(330,266,ls),
(330,110,o),
(308,104,o),
(192,88,cs),
(157,83,l),
(157,0,l,{
name = hr00;
})
);
}
);
width = 1700;
}
);
unicode = 8719;
}
{
glyphname = summation;
layers = (
{
guides = (
{
pos = (0,811);
},
{
angle = 90;
pos = (152,0);
},
{
angle = 90;
pos = (1302,0);
}
);
layerId = m001;
shapes = (
{
closed = 1;
nodes = (
(181,0,l),
(1215,0,l),
(1304,383,l),
(1216,383,l),
(1158,232,o),
(1095,173,o),
(935,173,cs),
(369,173,l),
(770,786,l),
(404,1418,l),
(897,1418,ls),
(1080,1418,o),
(1142,1393,o),
(1142,1271,cs),
(1142,1226,o),
(1134,1171,o),
(1121,1100,c),
(1216,1100,l),
(1321,1530,l),
(201,1530,l),
(154,1452,l),
(566,748,l),
(134,78,l,{
name = hr00;
})
);
}
);
userData = {
com.typemytype.robofont.guides = (
{
angle = 0;
isGlobal = 0;
magnetic = 5;
x = 0;
y = 811;
},
{
angle = 90;
isGlobal = 0;
magnetic = 5;
x = 152;
y = 0;
},
{
angle = 90;
isGlobal = 0;
magnetic = 5;
x = 1302;
y = 0;
}
);
};
width = 1364;
}
);
unicode = 8721;
}
{
glyphname = minus;
layers = (
{
layerId = m001;
shapes = (
{
closed = 1;
nodes = (
(1220,753,l),
(1261,919,l),
(139,919,l),
(99,753,l,{
name = hr00;
})
);
}
);
width = 1360;
}
);
unicode = 8722;
}
{
glyphname = radical;
layers = (
{
layerId = m001;
shapes = (
{
closed = 1;
nodes = (
(811,0,l),
(1589,1683,l),
(1438,1753,l),
(1313,1483,o),
(875,493,o),
(751,223,c),
(467,834,l),
(127,834,l),
(127,708,l),
(344,708,l),
(691,0,l,{
name = hr00;
})
);
}
);
width = 1710;
}
);
unicode = 8730;
}
{
glyphname = infinity;
layers = (
{
layerId = m001;
shapes = (
{
closed = 1;
nodes = (
(658,189,o),
(752,313,o),
(835,421,cs),
(869,467,l),
(958,342,o),
(1052,193,o),
(1204,193,cs),
(1417,193,o),
(1527,384,o),
(1527,594,cs),
(1527,818,o),
(1407,1004,o),
(1195,1004,cs),
(1042,1004,o),
(948,875,o),
(865,762,cs,{
name = hr02;
}),
(831,726,l),
(742,851,o),
(648,1000,o),
(496,1000,cs),
(283,1000,o),
(173,809,o),
(173,599,cs),
(173,375,o),
(293,189,o),
(505,189,cs,{
name = hr01;
})
);
},
{
closed = 1;
nodes = (
(1010,638,o),
(1095,815,o),
(1242,820,c),
(1354,820,o),
(1418,736,o),
(1418,605,cs),
(1418,442,o),
(1316,378,o),
(1180,378,cs),
(1096,378,o),
(983,464,o),
(930,537,c,{
name = hr03;
})
);
},
{
closed = 1;
nodes = (
(346,373,o),
(282,457,o),
(282,588,cs),
(282,751,o),
(384,815,o),
(520,815,cs),
(604,815,o),
(717,729,o),
(770,656,c),
(693,558,o),
(601,373,o),
(458,373,cs)
);
}
);
width = 1700;
}
);
unicode = 8734;
}
{
glyphname = integral;
layers = (
{
layerId = m001;
shapes = (
{
closed = 1;
nodes = (
(-79,-149,o),
(-181,-246,o),
(-181,-350,cs),
(-181,-515,o),
(-75,-588,o),
(98,-588,cs),
(303,-588,o),
(484,-459,o),
(484,-146,cs),
(484,1397,ls),
(484,1591,o),
(498,1704,o),
(637,1704,cs),
(701,1704,o),
(736,1654,o),
(736,1555,cs),
(736,1484,o),
(718,1435,o),
(680,1391,c),
(735,1347,l),
(827,1375,o),
(929,1472,o),
(929,1576,cs),
(929,1750,o),
(823,1814,o),
(650,1814,cs),
(445,1814,o),
(284,1685,o),
(284,1372,cs),
(284,-171,l),
(284,-365,o),
(250,-478,o),
(111,-478,cs),
(47,-478,o),
(12,-428,o),
(12,-329,cs),
(12,-258,o),
(30,-209,o),
(68,-165,c),
(13,-121,l,{
name = hr00;
})
);
}
);
width = 854;
}
);
unicode = 8747;
}
{
glyphname = notequal;
layers = (
{
layerId = m001;
shapes = (
{
closed = 1;
nodes = (
(461,319,l),
(588,525,l),
(1171,525,l),
(1212,692,l),
(691,692,l),
(866,977,l),
(1171,977,l),
(1212,1144,l),
(969,1144,l),
(1064,1298,l),
(968,1359,l),
(835,1144,l),
(188,1144,l),
(148,977,l),
(732,977,l),
(556,692,l),
(188,692,l),
(148,525,l),
(453,525,l),
(364,380,l,{
name = hr00;
})
);
}
);
width = 1360;
}
);
unicode = 8800;
}
{
glyphname = lessequal;
layers = (
{
layerId = m001;
shapes = (
{
closed = 1;
nodes = (
(1128,458,l),
(1198,609,l),
(928,734,o),
(659,861,o),
(390,986,c),
(1198,1362,l),
(1128,1513,l),
(123,1046,l),
(123,926,l,{
name = hr00;
})
);
},
{
closed = 1;
nodes = (
(1200,169,l),
(1241,335,l),
(149,335,l),
(109,169,l)
);
}
);
width = 1360;
}
);
unicode = 8804;
}
{
glyphname = greaterequal;
layers = (
{
layerId = m001;
shapes = (
{
closed = 1;
nodes = (
(1237,926,l),
(1237,1046,l),
(232,1513,l),
(162,1362,l),
(970,986,l),
(701,861,o),
(432,734,o),
(162,609,c),
(232,458,l,{
name = hr00;
})
);
},
{
closed = 1;
nodes = (
(1251,169,l),
(1211,335,l),
(119,335,l),
(160,169,l)
);
}
);
width = 1360;
}
);
unicode = 8805;
}
{
glyphname = lozenge;
layers = (
{
layerId = m001;
shapes = (
{
closed = 1;
nodes = (
(1078,847,l),
(596,1678,l),
(110,847,l),
(596,-11,l,{
name = hr00;
})
);
},
{
closed = 1;
nodes = (
(498,480,o),
(395,669,o),
(298,845,c),
(596,1365,l),
(891,845,l),
(596,304,l)
);
}
);
width = 1188;
}
);
unicode = 9674;
}
{
glyphname = ff;
layers = (
{
layerId = m001;
shapes = (
{
closed = 1;
nodes = (
(724,0,l),
(724,85,l),
(507,100,o),
(476,113,o),
(476,252,cs),
(476,1086,l),
(1127,1086,l),
(1127,231,ls),
(1127,118,o),
(1104,96,o),
(952,85,c),
(952,0,l),
(1578,0,l),
(1578,85,l),
(1361,100,o),
(1330,113,o),
(1330,252,cs),
(1330,1086,l),
(1667,1086,l),
(1667,1208,l),
(1328,1208,l),
(1328,1472,ls),
(1328,1670,o),
(1421,1733,o),
(1626,1767,c),
(1748,1783,l),
(1739,1890,l),
(1622,1890,ls),
(1309,1890,o),
(1129,1787,o),
(1129,1425,c),
(1127,1208,l),
(474,1208,l),
(474,1397,ls),
(474,1595,o),
(567,1658,o),
(772,1692,c),
(894,1708,l),
(885,1815,l),
(768,1815,ls),
(455,1815,o),
(275,1712,o),
(275,1350,cs),
(275,1294,ls),
(275,1223,o),
(247,1199,o),
(106,1179,c),
(106,1086,l),
(273,1086,l),
(273,231,ls),
(273,118,o),
(250,96,o),
(98,85,c),
(98,0,l,{
name = hr00;
})
);
}
);
width = 1708;
}
);
unicode = 64256;
}
{
glyphname = fi;
layers = (
{
layerId = m001;
shapes = (
{
closed = 1;
nodes = (
(715,0,l),
(715,85,l,{
name = hr02;
}),
(498,100,o),
(467,113,o),
(467,252,cs),
(467,1086,l),
(1103,1086,l,{
name = hr03;
}),
(1103,266,ls),
(1103,110,o),
(1081,104,o),
(965,88,cs),
(930,83,l,{
name = hr04;
}),
(930,0,l),
(1477,0,l),
(1477,83,l),
(1438,89,ls),
(1320,108,o),
(1305,111,o),
(1305,266,cs),
(1305,944,ls),
(1305,1104,o),
(1326,1107,o),
(1477,1122,c),
(1477,1208,l),
(465,1208,l),
(465,1397,ls),
(465,1595,o),
(558,1658,o),
(763,1692,c),
(885,1708,l),
(886,1815,l),
(759,1815,ls),
(446,1815,o),
(266,1712,o),
(266,1350,cs),
(266,1294,ls),
(266,1223,o),
(238,1199,o),
(97,1179,c),
(97,1086,l),
(264,1086,l),
(264,231,ls),
(264,118,o),
(241,96,o),
(89,85,c),
(89,0,l,{
name = hr01;
})
);
},
{
closed = 1;
nodes = (
(1373,1607,l),
(1195,1786,l,{
name = hr05;
}),
(1013,1607,l),
(1195,1426,l)
);
}
);
width = 1540;
}
);
unicode = 64257;
}
{
glyphname = fl;
layers = (
{
layerId = m001;
shapes = (
{
closed = 1;
nodes = (
(711,0,l),
(711,85,l),
(494,100,o),
(463,113,o),
(463,252,cs),
(463,1086,l),
(800,1086,l),
(800,1208,l),
(461,1208,l),
(461,1377,ls),
(461,1575,o),
(584,1664,o),
(792,1664,cs),
(1100,1664,l),
(1100,265,ls),
(1100,110,o),
(1078,104,o),
(962,88,cs),
(927,83,l),
(927,0,l),
(1504,0,l),
(1504,83,l),
(1456,90,ls),
(1342,107,o),
(1302,115,o),
(1302,265,cs),
(1302,1775,l),
(755,1775,ls),
(442,1775,o),
(262,1692,o),
(262,1330,cs),
(262,1294,ls),
(262,1223,o),
(234,1199,o),
(93,1179,c),
(93,1086,l),
(260,1086,l),
(260,231,ls),
(260,118,o),
(237,96,o),
(85,85,c),
(85,0,l,{
name = hr00;
})
);
}
);
width = 1535;
}
);
unicode = 64258;
}
{
glyphname = .notdef;
layers = (
{
layerId = m001;
shapes = (
{
closed = 1;
nodes = (
(1593,0,l),
(1593,1416,l),
(177,1416,l),
(177,0,l,{
name = hr01;
})
);
},
{
closed = 1;
nodes = (
(377,552,l),
(483,465,o),
(499,454,o),
(600,556,cs),
(753,708,l),
(601,860,ls),
(502,960,o),
(482,953,o),
(378,864,c),
(323,919,l),
(671,1266,l),
(726,1212,l),
(639,1106,o),
(628,1090,o),
(730,989,cs),
(882,837,l),
(1031,987,ls),
(1130,1086,o),
(1122,1098,o),
(1059,1184,cs),
(1039,1213,l),
(1092,1266,l),
(1439,918,l),
(1387,865,l),
(1362,884,l),
(1277,947,o),
(1259,958,o),
(1160,858,cs),
(1011,708,l),
(1161,558,ls),
(1260,459,o),
(1272,467,o),
(1358,530,cs),
(1387,550,l),
(1440,497,l,{
name = hr02;
}),
(1092,150,l),
(1039,202,l),
(1058,227,ls),
(1121,312,o),
(1132,330,o),
(1032,429,cs,{
name = hr03;
}),
(882,579,l),
(729,427,ls),
(629,328,o),
(636,308,o),
(725,204,c),
(670,149,l),
(323,497,l)
);
}
);
width = 1770;
}
);
}
{
glyphname = acute.cap;
layers = (
{
anchors = (
{
name = _top;
pos = (320,1530);
}
);
layerId = m001;
shapes = (
{
closed = 1;
nodes = (
(713,1822,l),
(599,2040,l),
(147,1762,l),
(179,1672,l,{
name = hr00;
})
);
}
);
width = 679;
}
);
}
{
glyphname = breve.cap;
layers = (
{
anchors = (
{
name = _top;
pos = (509,1530);
}
);
layerId = m001;
shapes = (
{
closed = 1;
nodes = (
(802,1672,o),
(819,1916,o),
(824,1975,c),
(721,1975,l),
(685,1905,o),
(649,1831,o),
(512,1831,cs),
(395,1831,o),
(316,1889,o),
(298,1975,c),
(195,1975,l),
(199,1793,o),
(342,1672,o),
(508,1672,cs,{
name = hr00;
})
);
}
);
width = 1020;
}
);
}
{
glyphname = caron.cap;
layers = (
{
anchors = (
{
name = _top;
pos = (339,1530);
}
);
layerId = m001;
shapes = (
{
closed = 1;
nodes = (
(442,1627,l),
(676,1908,l),
(612,1972,l),
(525,1916,o),
(436,1856,o),
(349,1800,c),
(67,1972,l),
(3,1908,l),
(258,1627,l,{
name = hr00;
})
);
}
);
width = 679;
}
);
}
{
glyphname = cedilla.cap;
layers = (
{
anchors = (
{
name = _btm;
pos = (407,0);
}
);
layerId = m001;
shapes = (
{
closed = 1;
nodes = (
(392,-221,o),
(478,-253,o),
(478,-352,cs),
(478,-420,o),
(402,-476,o),
(282,-505,c),
(339,-588,l),
(465,-578,o),
(685,-481,o),
(685,-319,cs),
(685,-194,o),
(559,-126,o),
(425,-128,c),
(474,1,l),
(355,1,l),
(268,-221,l,{
name = hr00;
})
);
}
);
width = 934;
}
);
}
{
glyphname = circumflex.cap;
layers = (
{
anchors = (
{
name = _top;
pos = (513,1530);
}
);
layerId = m001;
shapes = (
{
closed = 1;
nodes = (
(513,1758,l),
(784,1586,l),
(848,1650,l),
(606,1931,l),
(420,1931,l),
(178,1650,l),
(242,1586,l,{
name = hr00;
})
);
}
);
width = 1019;
}
);
}
{
glyphname = commaaccent;
layers = (
{
anchors = (
{
name = _btm;
pos = (333,0);
}
);
layerId = m001;
shapes = (
{
closed = 1;
nodes = (
(248,-308,o),
(274,-344,o),
(274,-389,cs),
(274,-452,o),
(235,-484,o),
(188,-514,c),
(230,-588,l),
(416,-516,o),
(481,-364,o),
(481,-245,c),
(331,-93,l),
(182,-240,l,{
name = hr00;
})
);
}
);
width = 661;
}
);
}
{
glyphname = dieresis.cap;
layers = (
{
anchors = (
{
name = _top;
pos = (510,1530);
}
);
layerId = m001;
shapes = (
{
closed = 1;
nodes = (
(926,1793,l),
(747,1972,l),
(564,1793,l),
(747,1612,l,{
name = hr00;
})
);
},
{
closed = 1;
nodes = (
(456,1793,l),
(277,1972,l),
(94,1793,l),
(277,1612,l)
);
}
);
width = 1020;
}
);
}
{
glyphname = dotaccent.cap;
layers = (
{
anchors = (
{
name = _top;
pos = (306,1530);
}
);
layerId = m001;
shapes = (
{
closed = 1;
nodes = (
(486,1793,l),
(308,1972,l),
(126,1793,l),
(308,1613,l,{
name = hr00;
})
);
}
);
width = 612;
}
);
}
{
glyphname = foundryicon;
layers = (
{
guides = (
{
pos = (0,517);
},
{
pos = (0,1867);
},
{
angle = 90;
pos = (2476,0);
}
);
layerId = m001;
shapes = (
{
closed = 1;
nodes = (
(2294,0,l),
(2294,1658,l),
(2204,1658,l),
(2204,0,l,{
name = hr01;
})
);
},
{
closed = 1;
nodes = (
(371,441,o),
(611,89,o),
(1096,89,cs),
(1577,89,o),
(1821,434,o),
(1821,784,cs),
(1821,1131,o),
(1577,1479,o),
(1096,1479,cs),
(614,1479,o),
(371,1131,o),
(371,784,cs)
);
},
{
closed = 1;
nodes = (
(2677,439,o),
(2916,87,o),
(3401,87,cs),
(3883,87,o),
(4127,432,o),
(4127,781,cs),
(4127,1129,o),
(3883,1477,o),
(3401,1477,cs),
(2920,1477,o),
(2677,1129,o),
(2677,781,cs)
);
},
{
closed = 1;
nodes = (
(2736,1102,o),
(2959,1420,o),
(3401,1420,cs),
(3843,1420,o),
(4068,1102,o),
(4068,781,cs),
(4068,459,o),
(3843,144,o),
(3401,144,cs),
(2955,144,o),
(2736,467,o),
(2736,781,cs)
);
},
{
closed = 1;
nodes = (
(3092,581,l),
(3075,548,o),
(3068,511,o),
(3068,473,cs),
(3068,367,o),
(3142,268,o),
(3287,268,cs,{
name = hr02;
}),
(3335,268,o),
(3384,286,o),
(3421,313,c),
(3454,289,o),
(3497,275,o),
(3551,275,cs),
(3694,275,o),
(3767,378,o),
(3767,481,cs),
(3767,514,o),
(3760,548,o),
(3745,576,c),
(3756,576,o),
(3766,575,o),
(3777,575,cs,{
name = hr03;
}),
(3853,575,o),
(3912,609,o),
(3948,651,c),
(3928,667,l),
(3894,638,o),
(3842,616,o),
(3789,616,cs),
(3690,616,o),
(3659,684,o),
(3653,758,c),
(3863,762,o),
(3934,835,o),
(3934,899,cs),
(3934,952,o),
(3871,989,o),
(3780,989,cs),
(3767,989,o),
(3757,988,o),
(3745,987,c,{
name = hr04;
}),
(3762,1019,o),
(3771,1057,o),
(3771,1094,cs),
(3771,1196,o),
(3699,1300,o),
(3553,1300,cs),
(3510,1300,o),
(3464,1293,o),
(3427,1293,cs),
(3297,1293,l),
(3297,1257,l),
(3341,1253,o),
(3362,1253,o),
(3362,1208,cs,{
name = hr05;
}),
(3362,1116,ls),
(3362,1012,o),
(3317,962,o),
(3265,926,c),
(3163,1006,o),
(3167,1047,o),
(3167,1208,cs),
(3167,1257,o),
(3173,1255,o),
(3226,1260,c),
(3226,1293,l),
(3035,1293,l),
(3035,1260,l),
(3085,1253,o),
(3090,1258,o),
(3090,1202,cs),
(3090,1084,o),
(3105,1016,o),
(3142,966,c),
(2999,966,l),
(2999,1089,l),
(2945,1067,l),
(2940,1017,o),
(2925,983,o),
(2920,976,cs),
(2912,967,o),
(2856,961,o),
(2856,961,c),
(2856,926,l),
(2921,926,l),
(2921,690,ls),
(2921,635,o),
(2916,627,o),
(2856,617,c),
(2856,581,l)
);
},
{
closed = 1;
nodes = (
(3439,1199,ls),
(3439,1234,o),
(3455,1265,o),
(3553,1265,cs),
(3659,1265,o),
(3686,1184,o),
(3686,1095,cs),
(3686,1010,o),
(3662,923,o),
(3567,923,cs),
(3491,923,o),
(3439,975,o),
(3439,1039,cs,{
name = hr06;
})
);
},
{
closed = 1;
nodes = (
(629,586,o),
(679,625,o),
(725,636,c),
(748,610,l),
(734,594,o),
(728,577,o),
(728,544,cs),
(728,502,o),
(772,448,o),
(858,448,cs),
(944,448,o),
(995,488,o),
(995,551,cs),
(995,617,o),
(931,650,o),
(835,691,c),
(734,738,o),
(661,798,o),
(661,884,cs),
(661,988,o),
(770,1048,o),
(891,1048,cs,{
name = hr08;
}),
(914,1048,o),
(938,1044,o),
(961,1037,c,{
name = hr09;
}),
(948,1053,o),
(940,1072,o),
(940,1097,cs,{
name = hr10;
}),
(940,1158,o),
(1004,1189,o),
(1153,1189,cs),
(1353,1189,l),
(1355,1190,l),
(1355,1030,l),
(1542,1030,l),
(1542,967,l,{
name = hr11;
}),
(1355,967,l),
(1355,549,ls),
(1355,457,o),
(1377,451,o),
(1542,447,c,{
name = hr12;
}),
(1542,405,l),
(1161,405,l),
(1161,447,l),
(1245,460,o),
(1253,459,o),
(1253,548,cs),
(1253,967,l),
(1163,967,l),
(1163,1014,l),
(1163,1014,o),
(1239,1023,o),
(1250,1034,cs),
(1256,1042,o),
(1272,1080,o),
(1279,1136,c),
(1157,1136,ls),
(1051,1136,o),
(1023,1088,o),
(1023,1059,cs),
(1023,1030,o),
(1028,1014,o),
(1036,1001,c,{
name = hr13;
}),
(1057,983,o),
(1070,962,o),
(1070,939,cs,{
name = hr14;
}),
(1070,896,o),
(1023,865,o),
(990,858,c),
(962,880,l),
(969,889,o),
(981,909,o),
(981,929,cs),
(981,968,o),
(938,993,o),
(877,993,cs),
(808,993,o),
(761,959,o),
(761,908,cs,{
name = hr15;
}),
(761,841,o),
(832,807,o),
(923,764,c,{
name = hr16;
}),
(1019,717,o),
(1098,669,o),
(1098,580,cs),
(1098,460,o),
(980,393,o),
(854,393,cs),
(737,393,o),
(626,447,o),
(628,534,cs,{
name = hr07;
})
);
},
{
closed = 1;
nodes = (
(2999,926,l),
(3180,926,l),
(3203,908,o),
(3230,892,o),
(3262,875,c),
(3310,904,o),
(3342,932,o),
(3362,968,c,{
name = hr17;
}),
(3362,848,ls),
(3362,801,o),
(3331,796,o),
(3235,794,c),
(3080,794,l),
(3080,757,l,{
name = hr18;
}),
(3560,757,l,{
name = hr19;
}),
(3562,732,o),
(3570,708,o),
(3581,686,c),
(3571,689,o),
(3561,689,o),
(3551,689,cs),
(3499,689,o),
(3455,675,o),
(3422,652,c),
(3422,731,l),
(3384,731,l),
(3384,688,o),
(3364,672,o),
(3351,672,cs,{
name = hr20;
}),
(3332,672,o),
(3303,682,o),
(3289,682,cs),
(3212,682,o),
(3157,657,o),
(3121,617,c),
(3028,617,o),
(2999,626,o),
(2999,672,cs)
);
},
{
closed = 1;
nodes = (
(3653,867,o),
(3690,952,o),
(3769,952,cs),
(3824,952,o),
(3841,923,o),
(3841,899,cs),
(3841,825,o),
(3747,798,o),
(3653,794,c)
);
},
{
closed = 1;
nodes = (
(3439,935,l,{
name = hr22;
}),
(3467,905,o),
(3514,887,o),
(3568,887,cs),
(3574,887,o),
(3581,887,o),
(3585,888,c,{
name = hr23;
}),
(3571,860,o),
(3561,829,o),
(3559,794,c,{
name = hr24;
}),
(3467,794,o),
(3439,802,o),
(3439,848,c,{
name = hr21;
})
);
},
{
closed = 1;
nodes = (
(3429,559,o),
(3452,653,o),
(3553,653,cs),
(3649,653,o),
(3676,559,o),
(3676,480,cs),
(3676,401,o),
(3652,310,o),
(3553,310,cs),
(3452,310,o),
(3429,402,o),
(3429,480,cs)
);
},
{
closed = 1;
nodes = (
(3159,554,o),
(3190,648,o),
(3294,648,cs),
(3354,648,o),
(3374,622,o),
(3358,580,cs),
(3347,548,o),
(3335,516,o),
(3335,481,cs),
(3335,427,o),
(3356,371,o),
(3398,331,c),
(3370,315,o),
(3339,305,o),
(3300,305,cs),
(3195,305,o),
(3159,392,o),
(3159,473,cs)
);
}
);
userData = {
com.typemytype.robofont.guides = (
{
angle = 0;
isGlobal = 0;
magnetic = 5;
x = 0;
y = 517;
},
{
angle = 0;
isGlobal = 0;
magnetic = 5;
x = 0;
y = 1867;
},
{
angle = 90;
isGlobal = 0;
magnetic = 5;
x = 2476;
y = 0;
}
);
};
width = 4469;
}
);
}
{
glyphname = grave.cap;
layers = (
{
anchors = (
{
name = _top;
pos = (320,1530);
}
);
layerId = m001;
shapes = (
{
closed = 1;
nodes = (
(603,1692,l),
(151,1970,l),
(37,1752,l),
(571,1602,l,{
name = hr00;
})
);
}
);
width = 661;
}
);
}
{
glyphname = hungarumlaut.cap;
layers = (
{
anchors = (
{
name = _top;
pos = (407,1530);
}
);
layerId = m001;
shapes = (
{
closed = 1;
nodes = (
(808,1836,l),
(702,1970,l),
(400,1692,l),
(455,1628,l,{
name = hr00;
})
);
},
{
closed = 1;
nodes = (
(414,1836,l),
(308,1970,l),
(6,1692,l),
(61,1628,l)
);
}
);
width = 680;
}
);
}
{
glyphname = macron.cap;
layers = (
{
anchors = (
{
name = _top;
pos = (305,1530);
}
);
layerId = m001;
shapes = (
{
closed = 1;
nodes = (
(611,1699,l),
(611,1882,l),
(0,1853,l),
(0,1722,l,{
name = hr00;
})
);
}
);
width = 612;
}
);
}
{
glyphname = ring.cap;
layers = (
{
anchors = (
{
name = _top;
pos = (340,1530);
}
);
layerId = m001;
shapes = (
{
closed = 1;
nodes = (
(490,1480,o),
(614,1580,o),
(614,1724,cs),
(614,1867,o),
(490,1971,o),
(341,1971,cs),
(191,1971,o),
(67,1867,o),
(67,1724,cs),
(67,1580,o),
(191,1480,o),
(341,1480,cs,{
name = hr00;
})
);
},
{
closed = 1;
nodes = (
(265,1597,o),
(203,1644,o),
(203,1722,cs),
(203,1796,o),
(265,1847,o),
(341,1847,cs),
(417,1847,o),
(478,1796,o),
(478,1722,cs),
(478,1644,o),
(417,1597,o),
(341,1597,cs)
);
}
);
width = 681;
}
);
}
{
glyphname = tilde.cap;
layers = (
{
anchors = (
{
name = _top;
pos = (508,1530);
}
);
layerId = m001;
shapes = (
{
closed = 1;
nodes = (
(249,1716,l),
(262,1789,o),
(306,1804,o),
(344,1804,cs),
(382,1804,o),
(425,1780,o),
(467,1757,cs),
(513,1731,o),
(567,1702,o),
(620,1702,cs),
(733,1702,o),
(853,1798,o),
(860,1957,c,{
name = hr02;
}),
(767,1957,l),
(754,1884,o),
(710,1869,o),
(672,1869,cs),
(634,1869,o),
(595,1891,o),
(554,1915,cs),
(507,1942,o),
(456,1971,o),
(396,1971,cs),
(283,1971,o),
(163,1875,o),
(156,1716,c,{
name = hr01;
})
);
}
);
width = 1016;
}
);
}
